<svg baseProfile="tiny-ps" version="1.2" viewBox="0 0 500 500" xmlns="http://www.w3.org/2000/svg"><defs><clipPath id="c"><rect width="112" height="46"/></clipPath><clipPath id="b"><path d="m0.6 12h17v30h-17z"/></clipPath><clipPath id="a"><rect width="118" height="59"/></clipPath><clipPath id="d"><rect width="120" height="41"/></clipPath></defs><rect x="-14" y="-14" width="173" height="173" fill="#fff"/><rect x="-14" y="-14" width="173" height="173" fill="#118c8d"/><g transform="translate(18 11)"><g clip-path="url(#c)"><g fill="#14cec7"><g transform="translate(.01 34)"><path d="m1-23c0-2 0.6-4 2-6 1-1 3-2 5-2 2 0 4 0.7 5 2 1 1 2 3 2 6v1h-5v-1c0-1-0.2-2-0.6-2-0.4-0.5-1-0.7-2-0.7-0.8 0-1 0.2-2 0.7-0.4 0.4-0.6 1-0.6 2 0 1 0.2 2 0.7 3 0.5 0.8 1 2 2 2 0.7 0.7 1 1 2 2 0.8 0.7 2 2 2 2 0.7 0.8 1 2 2 3 0.5 1 0.7 2 0.7 4 0 2-0.6 4-2 6-1 1-3 2-5 2-2 0-4-0.7-5-2-1-1-2-3-2-6v-2h5v2c0 1 0.2 2 0.7 2 0.5 0.4 1 0.7 2 0.7 0.8 0 1-0.2 2-0.7 0.5-0.4 0.7-1 0.7-2 0-1-0.2-2-0.7-3-0.5-0.8-1-2-2-2-0.7-0.7-1-1-2-2-0.8-0.7-2-2-2-2-0.7-0.9-1-2-2-3-0.5-1-0.7-2-0.7-4z"/></g><g transform="translate(16 34)"><path d="m0.4-31h15v4h-5v26h-5v-26h-5z"/></g><g transform="translate(32 34)"><path d="m17 0h-5l-0.8-6h-6l-0.8 6h-4l5-31h7zm-11-10h5l-2-16z"/></g><g transform="translate(50 34)"><path d="m6-10-6-21h5l4 14 4-14h5l-6 21v10h-5z"/></g><g transform="translate(67 34)"><path d="m2-31h5v31h-5z"/></g><g transform="translate(76 34)"><path d="m6-22v22h-4v-31h6l5 18v-18h4v31h-5z"/></g><g transform="translate(94 34)"><path d="m9-17h7v10c0 2-0.6 4-2 6-1 1-3 2-5 2-2 0-4-0.7-5-2-1-1-2-3-2-6v-16c0-2 0.6-4 2-6 1-1 3-2 5-2 2 0 4 0.7 5 2 1 1 2 3 2 6v3h-5v-3c0-1-0.2-2-0.7-2-0.4-0.5-1-0.7-2-0.7-0.8 0-1 0.2-2 0.7-0.4 0.4-0.7 1-0.7 2v17c0 1 0.2 2 0.7 2 0.5 0.4 1 0.7 2 0.7 0.8 0 1-0.2 2-0.7 0.5-0.4 0.7-1 0.7-2v-6h-2z"/></g></g></g></g><g transform="translate(15 37)"><g clip-path="url(#a)"><g clip-path="url(#b)"><g fill="#ffbd59"><g transform="translate(.6 39)"><path d="m3-10c0.07-0.8 0.1-1 0.1-2 0.02-0.5 0.2-1 0.5-1 0.1-0.2 0.3-0.5 0.3-0.9 0.07-0.4 0.2-0.9 0.3-1 0.1-0.5 0.3-0.9 0.5-1 0.07-0.2 0.2-0.4 0.2-0.5 0.1-0.2 0.2-0.4 0.2-0.6 0.02-0.2 0.1-0.4 0.3-0.5 0.2-0.1 0.3-0.3 0.3-0.5 0.02-0.2 0.04-0.4 0.06-0.7 0.03-0.3 0.09-0.5 0.2-0.7 0.3-0.5 0.6-1 0.9-2 0.3-0.8 0.6-2 0.9-2 0.3-0.7 0.7-1 1-2 0.4-0.5 1-0.7 2-0.7h0.3 0.3c0.5 0 0.9 0.2 1 0.6 0.3 0.4 0.5 0.9 0.7 1 0.1 0.6 0.2 1 0.3 2 0.04 0.6 0.06 1 0.06 2v0.7c0 0.1-0.03 0.3-0.08 0.5 0.3 0.4 0.4 1 0.5 2 0.05 0.7 0.1 1 0.2 2 0.07 0.4 0.2 0.8 0.2 1 0.1 0.3 0.2 0.7 0.2 1 0 0.2-0.01 0.4-0.03 0.6-0.01 0.2-0.02 0.4-0.02 0.6 0 0.7 0.1 1 0.3 2 0.2 0.6 0.6 1 1 2-0.07 0.2-0.1 0.4-0.2 0.6-0.07 0.2-0.1 0.4-0.2 0.6 0.09 0.4 0.2 0.8 0.3 1 0.09 0.5 0.2 1 0.3 1 0.09 0.4 0.2 0.7 0.3 0.9 0.1 0.1 0.2 0.4 0.3 0.8 0.07 0.4 0.1 0.8 0.2 1 0.06 0.4 0.2 0.8 0.3 1 0.1 0.4 0.2 0.7 0.2 1 0.04 0.4 0.06 0.8 0.06 1-0.09 0.07-0.2 0.1-0.3 0.2-0.09 0.06-0.2 0.1-0.3 0.2-0.2 0.2-0.5 0.5-0.9 0.8-0.3 0.3-0.6 0.5-0.9 0.5-0.2 0-0.3-0.09-0.4-0.3-0.09-0.2-0.2-0.3-0.3-0.4-0.5-0.3-0.8-0.6-0.9-1-0.1-0.4-0.3-0.9-0.3-1-0.07-0.4-0.2-0.8-0.3-1-0.1-0.4-0.2-0.8-0.2-1 0-0.07 4e-3 -0.1 0.02-0.2 8e-3 -0.07 0.02-0.1 0.02-0.2 0-0.2-0.03-0.6-0.08-1-0.04-0.5-0.1-1-0.2-2-0.1-0.6-0.2-1-0.4-2-0.2-0.4-0.4-0.7-0.6-0.7-0.2 0-0.5 0.06-0.8 0.2-0.3 0.1-0.6 0.2-0.9 0.3-0.2 0.2-0.4 0.3-0.7 0.3-0.3 0-0.5 0.07-0.7 0.2-0.09 0.07-0.2 0.1-0.3 0.1-0.07 0-0.1-4e-3 -0.2-0.02-0.05-0.02-0.1-0.04-0.2-0.06-0.1 0-0.3 0.1-0.7 0.3-0.3 0.2-0.7 0.3-1 0.3-0.3 0-0.6 0.2-0.9 0.7-0.2 0.5-0.5 1-0.7 2-0.2 0.7-0.3 1-0.5 2-0.2 0.6-0.3 1-0.5 1-0.05 0.1-0.2 0.4-0.4 0.8-0.2 0.4-0.4 0.8-0.7 1-0.3 0.4-0.6 0.6-1 0.6-0.2 0-0.4-0.09-0.7-0.3-0.2-0.2-0.3-0.4-0.3-0.6 0-0.07 8e-3 -0.1 0.03-0.2 0.2-0.5 0.4-1 0.6-2 0.2-0.6 0.4-1 0.5-2 0.09-0.5 0.2-1 0.4-2 0.2-0.6 0.4-1 0.5-2 0.2-0.6 0.3-1 0.3-2 0-0.2-0.06-0.5-0.2-0.7-0.1-0.2-0.2-0.5-0.2-0.7 0-0.2 0.1-0.3 0.3-0.3 0.09 0 0.2 8e-3 0.3 0.02 0.08 0.01 0.2 0.02 0.3 0.02 0.07 0 0.2-0.02 0.4-0.06zm4-6v0.5c0 0.2-0.02 0.3-0.06 0.5-0.03 0.2-0.2 0.5-0.4 0.9-0.2 0.4-0.4 0.9-0.6 1-0.2 0.5-0.3 1-0.3 2 0 0.2 8e-3 0.4 0.03 0.6 0.03 0.2 0.1 0.3 0.3 0.3 0.6 0 1-0.07 2-0.2 0.7-0.1 1-0.3 2-0.4 0.3-0.1 0.4-0.3 0.5-0.5 0.05-0.2 0.08-0.4 0.08-0.6 0-0.9-0.1-2-0.4-3-0.2-1-0.4-2-0.4-3 0-0.09 0.02-0.2 0.05-0.2v0.02 0.02s-0.04-0.1-0.1-0.5c-0.07-0.3-0.2-0.6-0.3-0.9-0.09-0.3-0.2-0.5-0.2-0.5-0.05 0-0.2 0.2-0.4 0.5-0.2 0.4-0.4 0.8-0.5 1-0.2 0.4-0.2 0.7-0.2 0.9 0 0.8-0.3 1-1 2z"/></g></g></g><g fill="#ffbd59"><g transform="translate(20 39)"><path d="m14-2c0.2 0.09 0.4 0.2 0.4 0.4 0 0.2-0.1 0.4-0.3 0.8-0.2 0.3-0.5 0.6-0.7 0.6 0.2 0.2 0.4 0.3 0.4 0.4 0 0.1-0.07 0.2-0.2 0.3-0.1 0.1-0.2 0.3-0.2 0.4 0 0.1 0.07 0.2 0.2 0.2 0.1 0.05 0.2 0.1 0.2 0.2 0 0.1-0.09 0.3-0.3 0.4-0.2 0.1-0.2 0.3-0.2 0.5 0 0.1 0.02 0.2 0.08 0.3 0.05 0.08 0.08 0.2 0.08 0.2 0 0.2-0.03 0.3-0.09 0.5-0.06 0.1-0.1 0.3-0.1 0.4 0 0.05-0.1 0.2-0.3 0.3-0.2 0.2-0.3 0.4-0.3 0.7 0 0.2 0.03 0.4 0.09 0.6 0.06 0.1 0.09 0.3 0.09 0.5 0 0.3-0.07 0.8-0.2 1-0.1 0.6-0.3 1-0.4 2-0.1 0.5-0.2 0.9-0.2 1 0 0.07 8e-3 0.1 0.03 0.1 0 0.2-0.07 0.5-0.2 0.8-0.1 0.3-0.3 0.6-0.4 0.8-0.1 0.3-0.2 0.4-0.2 0.5 0 0.07 0.02 0.1 0.08 0.2 0.05 0.07 0.08 0.1 0.08 0.2 0 0.1-0.05 0.2-0.2 0.3-0.09 0.1-0.1 0.2-0.1 0.3-0.02 0.4-0.2 0.9-0.4 1-0.3 0.4-0.4 0.8-0.4 1 0 0.05 8e-3 0.1 0.03 0.2 0.03 0.06 0.05 0.1 0.05 0.2 0 0.1-0.06 0.3-0.2 0.4-0.1 0.1-0.2 0.3-0.2 0.4 0 0.8-0.3 1-0.9 2-0.6 0.5-1 0.8-2 0.8-0.2 0-0.4-0.02-0.6-0.06-0.2-0.03-0.4-0.1-0.6-0.2-0.6-0.4-1-0.9-2-1-0.5-0.4-0.8-0.9-1-2-0.2-0.7-0.4-2-0.4-3 0-0.4 0.04-0.8 0.1-1 0.08-0.4 0.1-0.8 0.1-1 0-0.1 0.04-0.4 0.1-0.8 0.08-0.4 0.2-0.8 0.3-1 0.1-0.5 0.3-0.9 0.4-1 0.2-0.4 0.3-0.6 0.5-0.7 0.2-0.2 0.3-0.4 0.4-0.6 0.03-0.2 0.07-0.5 0.1-0.8 0.05-0.2 0.2-0.5 0.5-0.6 0.04-0.04 0.07-0.1 0.09-0.2 0.03-0.07 0.05-0.1 0.08-0.2 0.1-0.4 0.2-0.7 0.4-1 0.2-0.2 0.4-0.5 0.6-0.9 0.2-0.8 0.7-1 1-2 0.05-0.02 0.08-0.06 0.09-0.1 8e-3 -0.05 0.02-0.09 0.05-0.1 0.1-0.4 0.3-0.8 0.6-1 0.3-0.3 0.5-0.5 0.8-0.8 0.3-0.2 0.5-0.5 0.6-0.8 0.03-0.1 0.2-0.3 0.4-0.6 0.2-0.3 0.5-0.6 0.7-0.9 0.3-0.3 0.4-0.5 0.5-0.5 0.07 0 0.2 0.03 0.3 0.08 0.1-0.3 0.2-0.6 0.4-1 0.2-0.4 0.4-0.8 0.5-1 0.2-0.4 0.2-0.8 0.2-1 0-0.2-0.04-0.4-0.1-0.5-0.07-0.2-0.1-0.3-0.1-0.5 0-0.2 0.05-0.4 0.1-0.7 0.1-0.3 0.2-0.5 0.2-0.8 0-0.1-0.02-0.3-0.05-0.5-0.02-0.2-0.03-0.3-0.03-0.5 0-0.4 0.04-0.7 0.1-1 0.09-0.4 0.1-0.8 0.1-1 0-0.2-0.01-0.4-0.03-0.7-0.01-0.2-0.09-0.4-0.2-0.4-0.1 0-0.2 0.05-0.2 0.1-0.1 0.3-0.3 0.6-0.5 0.8-0.2 0.2-0.5 0.3-0.9 0.3-0.05 0-0.1-0.02-0.1-0.08-0.07 0-0.1 0.09-0.2 0.3-0.07 0.2-0.2 0.4-0.3 0.6-0.09 0.2-0.2 0.4-0.3 0.4v-0.03-0.05l0.05 0.03c-0.05 0.07-0.1 0.2-0.2 0.2-0.04 0.09-0.1 0.1-0.2 0.2-0.4 0.1-0.7 0.3-0.9 0.7-0.2 0.4-0.5 0.6-0.8 0.7-0.3 0.1-0.5 0.3-0.6 0.5-0.1 0.2-0.2 0.4-0.4 0.6-0.2 0.2-0.4 0.4-0.5 0.5-0.1 0.1-0.3 0.3-0.5 0.6-0.04 0.2-0.2 0.5-0.4 1-0.2 0.5-0.5 0.9-0.9 1-0.4 0.4-0.8 0.7-1 0.8-1 0-2-0.3-3-0.9-0.6-0.6-0.9-1-0.9-3 0-0.5 0.06-0.9 0.2-1 0.1-0.3 0.2-0.6 0.3-0.8 0.07-0.3 0.2-0.7 0.3-1 0.1-0.3 0.3-0.6 0.4-1 0.1-0.3 0.3-0.5 0.6-0.7 0.3-0.2 0.5-0.4 0.6-0.8 0.1-0.4 0.4-0.7 0.7-0.9 0.4-0.3 0.6-0.6 0.7-1 0.1-0.4 0.4-0.8 1-1 0.5-0.5 1-0.9 2-1 0.7-0.4 1-0.5 2-0.5 0.4 0 0.7 0.03 1 0.08 0.3 0.05 0.7 0.1 1 0.2 0.4 0.09 0.8 0.3 1 0.6 0.3 0.3 0.6 0.4 0.9 0.4 0.2 0 0.3-0.1 0.5-0.3 0.3-0.3 0.5-0.6 0.5-0.7 0.03-0.1 0.2-0.2 0.4-0.2 0.4 0 0.8 0.06 1 0.2s0.9 0.3 1 0.6c0.4 0.3 0.6 0.7 0.6 1 0 0.5-0.1 1-0.3 2-0.2 0.7-0.5 1-0.7 2-0.2 0.7-0.3 1-0.3 2 0 0.2-0.09 0.5-0.3 0.7-0.2 0.2-0.2 0.4-0.2 0.7 0 0.2 0.04 0.4 0.1 0.5 0.07 0.04 0.2 0.06 0.3 0.06 0.2 0 0.5-0.08 0.6-0.2 0.07-0.07 0.3-0.2 0.6-0.4 0.4-0.2 0.8-0.3 1-0.5s0.8-0.2 1-0.2c0.1 0 0.3 0.04 0.6 0.1 0.3 0.09 0.5 0.2 0.7 0.4 0.2 0.2 0.3 0.4 0.3 0.7 0 0.2-0.09 0.4-0.3 0.5-0.2 0.06-0.4 0.09-0.6 0.09-0.2 0-0.3 0.05-0.4 0.1-0.2 0.2-0.5 0.4-0.8 0.4-0.3 0.02-0.6 0.1-0.8 0.2-0.6 0.3-0.9 0.6-1 0.8-0.2 0.2-0.4 0.4-0.8 0.6-0.2 0.2-0.3 0.3-0.4 0.2-0.09-0.02-0.2 0.04-0.4 0.2-0.2 0.1-0.5 0.5-1 1-0.09 0.1-0.2 0.3-0.2 0.5-0.02 0.2-0.09 0.4-0.2 0.5-0.02 0.02-0.09 0.1-0.2 0.3-0.1 0.2-0.2 0.3-0.2 0.4v-0.03zm-4 14c-0.1-0.3-0.2-0.6-0.2-0.7 0-0.2 0.07-0.4 0.2-0.6 0.1-0.2 0.2-0.4 0.2-0.6 0-0.7 0.1-1 0.4-2 0.3-0.7 0.4-1 0.4-2 0-0.3 0.07-0.6 0.2-0.8 0.1-0.2 0.2-0.4 0.2-0.6 0-0.09-0.06-0.2-0.2-0.3-0.1-0.09-0.2-0.1-0.2-0.2 0-0.05 0.04-0.1 0.1-0.2 0.04-0.1 0.1-0.4 0.2-0.8 0.1-0.4 0.2-0.9 0.3-1 0.09-0.6 0.1-1 0.1-1 0-0.07-0.06-0.2-0.2-0.2-0.1-0.08-0.2-0.1-0.2-0.1-0.07 0-0.2 0.1-0.5 0.4-0.3 0.3-0.5 0.5-0.6 0.7-0.8 1-2 3-3 4-0.9 1-2 3-2 4-0.6 2-0.9 3-0.9 5 0 0.5 0.08 1 0.2 2 0.2 0.6 0.5 1 1 1 0.2-0.05 0.5-0.1 0.7-0.2 0.2-0.07 0.5-0.1 0.7-0.2 0.1-0.2 0.3-0.4 0.4-0.5 0.1-0.2 0.3-0.3 0.4-0.5 0.2-0.1 0.3-0.3 0.2-0.5-0.01-0.2 0.05-0.4 0.2-0.6 0.2-0.3 0.4-0.6 0.4-0.9 0.07-0.3 0.2-0.7 0.3-1 0.1-0.3 0.3-0.6 0.7-0.9zm2-27c-0.1-0.09-0.2-0.2-0.2-0.3-0.05-0.1-0.2-0.2-0.3-0.2-0.2 0-0.5 0.2-1 0.5-0.5 0.3-1 0.7-2 1-0.6 0.4-1 0.8-2 1-0.4 0.3-0.7 0.6-0.7 0.6 0 0.2-0.1 0.4-0.4 0.8-0.2 0.4-0.5 0.7-0.8 1-0.09 0.1-0.2 0.3-0.5 0.6-0.2 0.3-0.4 0.6-0.6 0.9-0.2 0.3-0.3 0.5-0.3 0.5 0.04 0.09 0.06 0.2 0.06 0.2s0.05 0.09 0.2 0.09c0.02 0 0.04-4e-3 0.05-0.02l0.02-0.02c0.8-0.5 1-1 2-2 0.6-0.7 1-1 2-2 0.2-0.09 0.4-0.4 0.7-0.8 0.3-0.4 0.6-0.8 0.9-1 0.2-0.2 0.4-0.3 0.6-0.5 0.2-0.1 0.4-0.3 0.5-0.6 0.1-0.2 0.2-0.3 0.4-0.3 0.2-0.03 0.3-0.09 0.5-0.2 0.1-0.08 0.2-0.3 0.3-0.6zm0.8 17c-0.09 0-0.1 0.04-0.1 0.1 0 0.02 0.02 0.04 0.05 0.06 0.04 0.03 0.06 0.05 0.06 0.05 0.05 0 0.08-0.05 0.08-0.1 0-0.03-0.02-0.06-0.05-0.08zm-4-14c-0.02-0.02-0.03-0.04-0.03-0.05 0-0.02-0.01-0.04-0.03-0.06l-0.08 0.08c0 0.09 0.02 0.1 0.08 0.1 0.04 0 0.06-0.04 0.06-0.1zm1 0.2-0.05 0.05v-0.03-0.05z"/></g><g transform="translate(38 39)"><path d="m2-13c0.2-0.2 0.4-0.4 0.5-0.7 0.2-0.2 0.3-0.5 0.4-0.8 0.1-0.3 0.3-0.6 0.5-0.8 0.3-0.2 0.5-0.4 0.8-0.6 0.3-0.2 0.4-0.4 0.5-0.7 0.3-0.3 0.5-0.6 0.8-0.9s0.6-0.6 1-0.7c0.2-0.1 0.4-0.2 0.6-0.4 0.2-0.2 0.4-0.3 0.7-0.3 0.6 0 1 0.1 2 0.4 0.8 0.3 1 0.7 2 1 0.6 0.5 0.9 1 0.9 2 0 0.05-0.01 0.1-0.03 0.2-0.01 0.07-0.02 0.1-0.02 0.2 0 0.1 4e-3 0.2 0.02 0.3 0.02 0.1 0.03 0.2 0.03 0.3 0 0.5-0.2 0.8-0.5 1-0.2 0.09-0.3 0.3-0.4 0.5-0.1 0.2-0.2 0.4-0.4 0.6-0.1 0.1-0.2 0.2-0.4 0.4-0.1 0.1-0.2 0.3-0.3 0.5-0.1 0.2-0.4 0.6-0.9 1-0.5 0.4-1 0.8-2 1-0.6 0.3-1 0.5-2 0.5-0.2 0-0.5-0.02-0.8-0.08-0.2-0.05-0.5-0.08-0.8-0.08-0.3 0-0.6 0.2-0.6 0.6-0.07 0.4-0.1 0.7-0.1 1 0 0.5 0.03 1 0.09 2 0.06 0.7 0.2 1 0.4 2 0.2 0.6 0.5 0.8 1 0.8 0.3 0 0.6-0.08 0.9-0.2 0.3-0.2 0.6-0.3 0.8-0.5 1-0.8 2-2 3-2 1-0.8 2-2 3-2 0.1-0.1 0.4-0.4 0.7-0.7 0.3-0.3 0.7-0.7 1-1 0.4-0.3 0.8-0.5 1-0.5 0.1 0 0.2 0.03 0.4 0.09 0.1 0.05 0.2 0.2 0.2 0.3 0 0.2-0.2 0.5-0.6 0.7-0.4 0.2-0.7 0.4-0.9 0.5 0 0-0.1 0.09-0.3 0.3-0.2 0.2-0.4 0.4-0.7 0.6-0.3 0.2-0.5 0.5-0.7 0.7-0.2 0.2-0.3 0.4-0.3 0.5 0 0.1-0.05 0.3-0.2 0.5-0.09 0.2-0.2 0.3-0.4 0.3-0.3 0.2-0.6 0.4-0.9 0.8-0.2 0.3-0.5 0.7-0.7 1-0.2 0.3-0.4 0.5-0.6 0.6-0.1 0.05-0.4 0.2-0.7 0.6-0.3 0.3-0.7 0.7-1 1-0.4 0.4-0.8 0.7-1 1-0.3 0.3-0.6 0.5-0.7 0.5-0.1 0-0.2-0.04-0.4-0.1-0.1 0.07-0.2 0.1-0.3 0.2-0.1 0.07-0.2 0.1-0.3 0.2-0.7-0.07-1-0.2-2-0.2-0.5-0.1-1-0.4-1-1-0.09-0.2-0.2-0.4-0.3-0.4-0.2-0.1-0.4-0.3-0.6-0.6-0.2-0.3-0.3-0.5-0.4-0.8-0.09-0.2-0.1-0.4-0.1-0.4 0-0.07 8e-3 -0.1 0.03-0.2 0.03-0.08 0.05-0.2 0.05-0.3 0-0.2-0.07-0.3-0.2-0.5-0.1-0.1-0.2-0.3-0.2-0.4 0-0.05 0.02-0.1 0.05-0.2 0.04-0.07 0.06-0.1 0.06-0.2 0-0.1-0.03-0.2-0.08-0.3-0.04-0.1-0.06-0.2-0.06-0.4 0-0.09 0.03-0.2 0.09-0.3 0.06-0.1 0.09-0.2 0.09-0.3 0-0.1-0.05-0.3-0.1-0.4-0.09-0.1-0.1-0.3-0.1-0.4 0-0.2 4e-3 -0.6 0.02-1 0.02-0.4 0.05-0.8 0.1-1 0.06-0.4 0.2-0.7 0.3-0.9 0.3-0.3 0.4-0.7 0.5-1 0.04-0.5 0.2-0.9 0.5-1-0.1 0.1-0.2 0.3-0.2 0.4 0 0.07 0.02 0.1 0.08 0.2 0.02-0.03 0.04-0.05 0.06-0.05 0.03 0 0.05-0.04 0.05-0.1 0-0.07-8e-3 -0.1-0.02-0.2-0.01-0.07-0.03-0.1-0.06-0.2zm3 2c0.3-0.05 0.8-0.2 1-0.3 0.5-0.2 1-0.4 1-0.7s0.9-0.6 1-1c0.3-0.4 0.5-0.9 0.5-2 0-0.3-0.06-0.7-0.2-1-0.1-0.4-0.3-0.6-0.7-0.6-0.6 0-1 0.2-2 0.6-0.5 0.4-1 0.9-1 1-0.4 0.6-0.7 1-0.9 2-0.2 0.5-0.3 0.9-0.3 1 0 0.1 0.05 0.2 0.2 0.2 0.1 0.02 0.3 0.06 0.6 0.1z"/></g><g transform="translate(53 39)"><path d="m5-9c0.1 0.1 0.2 0.3 0.2 0.5 0.04 0.2 0.06 0.4 0.06 0.7 0 0.5-0.09 0.8-0.3 0.9-0.2 0.1-0.2 0.4-0.2 0.7 0 0.07 8e-3 0.2 0.03 0.3 0.03 0.1 0.07 0.2 0.1 0.2 0.02 0 0.05-0.02 0.08-0.05 0.04-0.04 0.09-0.06 0.1-0.06 0.04 0 0.07 0.2 0.09 0.5 0.03 0.3 0.05 0.7 0.05 1 0 0.4-0.05 0.7-0.2 1-0.09 0.2-0.2 0.5-0.3 0.7-0.09 0.2-0.1 0.5-0.1 0.9 0 0.2-0.01 0.4-0.03 0.6-0.01 0.2-0.02 0.4-0.02 0.6 0 0.3 0.06 0.6 0.2 0.9 0.1 0.3 0.4 0.4 0.8 0.4 0.04 0 0.08-0.01 0.1-0.03 0.02 0.3 0.04 0.6 0.05 0.9 8e-3 0.3 0.07 0.5 0.2 0.5 0.1 0 0.3-0.3 0.5-0.8 0.2-0.5 0.4-1 0.7-2 0.2-0.8 0.5-2 0.8-2 0.3-0.8 0.5-1 0.7-2 0.07 0.02 0.2 0.03 0.2 0.03 0.1 0 0.2-0.07 0.2-0.2 8e-3 -0.1 0.02-0.3 0.03-0.4 0.02-0.1 0.07-0.2 0.1-0.2 0.07 0 0.1 0.1 0.1 0.3 8e-3 0.2 0.03 0.5 0.06 0.7 0.04 0.2 0.1 0.3 0.2 0.3 0.1-0.1 0.2-0.4 0.2-0.8 0.02-0.4 0.03-0.8 0.03-1 0-0.1-0.01-0.3-0.03-0.5-0.02-0.2-0.03-0.3-0.03-0.5 0-0.5 0.08-1 0.2-2 0.2-0.6 0.5-1 0.9-1 0.1-0.07 0.2-0.3 0.3-0.7 0.06-0.4 0.1-0.7 0.2-1 0.04-0.3 0.1-0.6 0.3-0.8 0.2-0.3 0.3-0.5 0.4-0.9 0.02-0.1 0.1-0.3 0.4-0.5 0.2-0.2 0.5-0.4 0.8-0.6 0.3-0.2 0.5-0.3 0.7-0.3 0.1 0 0.2 0.03 0.4 0.08 0.1 0.05 0.2 0.1 0.2 0.2 0 0.4-0.2 0.8-0.5 1-0.3 0.4-0.6 0.8-0.9 1-0.3 0.2-0.5 0.5-0.8 1-0.2 0.5-0.4 0.9-0.6 1-0.2 0.4-0.3 0.6-0.4 0.6-0.07 0-0.1-0.04-0.2-0.1-0.03-0.09-0.1-0.1-0.2-0.1-0.07 0-0.1 0.2-0.2 0.5-0.04 0.4-0.07 0.8-0.08 1-0.01 0.5-0.03 1-0.05 2-0.01 0.5-0.03 1-0.05 1-0.07 0.05-0.1 0.1-0.2 0.2-0.07 0.04-0.2 0.09-0.2 0.1-0.05 0.7-0.07 1-0.05 2 0.03 0.7-0.03 1-0.2 2-0.07 0-0.2-4e-3 -0.2-0.02-0.09-8e-3 -0.2-0.02-0.3-0.02-0.05 0.09-0.08 0.2-0.08 0.2 0 0.09 0.02 0.2 0.05 0.3 0.04 0.09 0.06 0.2 0.06 0.3 0 0.09-8e-3 0.2-0.02 0.3-0.01 0.09-0.02 0.2-0.02 0.3 0 0.05 4e-3 0.1 0.02 0.2 8e-3 0.07 0.02 0.1 0.02 0.2-0.02 0.6-0.1 1-0.4 2-0.2 0.5-0.4 1-0.6 2-0.1 0.5-0.4 0.8-0.7 0.9-0.3 0.1-0.5 0.3-0.6 0.6-0.04 0.2-0.2 0.4-0.4 0.6-0.2 0.2-0.4 0.3-0.4 0.3-0.1 0-0.2-0.04-0.3-0.1-0.07-0.09-0.2-0.1-0.3-0.1-0.1 0-0.3 0.02-0.4 0.08-0.1 0.06-0.3 0.09-0.4 0.09-0.4-0.04-0.7-0.2-0.9-0.6-0.2-0.3-0.4-0.7-0.6-1-0.1-0.5-0.3-0.9-0.4-1-0.1-0.4-0.3-0.7-0.5-0.9-0.09-0.09-0.1-0.3-0.1-0.7 0-0.4-0.03-0.8-0.09-1-0.06-0.2-0.1-0.4-0.2-0.6-0.07-0.2-0.1-0.4-0.2-0.7-0.05-0.3-0.08-0.7-0.08-1 0-0.3 4e-3 -0.6 0.02-0.9 8e-3 -0.3 0.02-0.6 0.02-0.8 0-0.3-0.04-0.6-0.1-0.9-0.07-0.3-0.1-0.6-0.1-0.8 0-0.4 0.04-0.8 0.1-1 0.07-0.4 0.1-0.8 0.1-1v-0.5c0-0.2-0.01-0.3-0.03-0.5 0-0.2 0.05-0.4 0.2-0.4 0.1-0.03 0.2-0.05 0.3-0.05s0.1-0.07 0.1-0.2c0-0.1-8e-3 -0.2-0.02-0.3-0.01-0.1-0.02-0.2-0.02-0.3 0.02-0.4 0.04-0.7 0.05-1 0.02-0.4 0.03-0.7 0.03-1 0-0.4-0.07-0.8-0.2-1-0.1-0.4-0.2-0.8-0.2-1 0-0.7 0.05-1 0.2-2 0.1-0.6 0.2-1 0.3-2 0.04-0.09 0.06-0.2 0.06-0.3 0-0.2-0.02-0.3-0.06-0.5-0.03-0.2-0.05-0.3-0.05-0.5 0-0.2 0.04-0.3 0.1-0.5 0.07-0.1 0.1-0.3 0.1-0.5 0-0.1-0.01-0.2-0.03-0.4-0.02-0.1-0.03-0.3-0.03-0.4 0-0.4 0.04-0.9 0.1-1 0.08-0.5 0.1-0.9 0.1-1 0-0.1-8e-3 -0.3-0.02-0.4-0.01-0.1-0.02-0.3-0.02-0.4 0-0.3 4e-3 -0.6 0.02-0.9 8e-3 -0.3 0.02-0.6 0.02-0.8 0-0.3-0.04-0.5-0.1-0.7-0.07-0.2-0.1-0.4-0.1-0.6 0-0.4 0.2-0.7 0.6-0.7 0.4-0.07 0.8-0.1 1-0.1 0.6 0 1 0.09 1 0.3 0.1 0.2 0.2 0.5 0.2 1 0 0.9-0.07 2-0.2 3-0.1 1-0.2 2-0.2 3 0 0.09 0.02 0.2 0.08 0.3 0.05 0.09 0.08 0.2 0.08 0.3 0 0.02-0.01 0.04-0.03 0.06l-0.02 0.02c-0.1 0.2-0.2 0.5-0.2 0.7 8e-3 0.2-0.01 0.5-0.06 0.8 0 0.1 0.02 0.2 0.08 0.3 0.05 0.09 0.08 0.2 0.08 0.3 0 0.07-0.02 0.1-0.06 0.2-0.03 0.07-0.05 0.1-0.05 0.2 0 0.09 0.02 0.2 0.05 0.2 0.04 0.07 0.06 0.2 0.06 0.3 0 0.1-0.03 0.3-0.08 0.5-0.05 0.2-0.08 0.4-0.08 0.5 0 0.1 0.02 0.3 0.08 0.4 0.05 0.1 0.08 0.3 0.08 0.4 0 0.3-0.05 0.6-0.2 1-0.09 0.3-0.1 0.6-0.1 0.9 0 0.09 0.02 0.2 0.06 0.3 0.05 0.1 0.08 0.2 0.08 0.3 0 0.1-0.06 0.3-0.2 0.4-0.1 0.1-0.2 0.3-0.2 0.4 0 0.1 0.05 0.3 0.2 0.4 0.1 0.1 0.2 0.3 0.2 0.5-0.04 0.5-0.09 0.8-0.2 1-0.06 0.2-0.1 0.5-0.2 0.9v-0.02-0.06zm-3 4c0.1-0.05 0.2-0.1 0.4-0.1 0.1-0.05 0.2-0.2 0.2-0.3 0-0.1-0.06-0.2-0.2-0.3-0.1-0.07-0.2-0.1-0.3-0.1-0.2 0-0.2 0.2-0.2 0.5 0 0.1 0.04 0.3 0.1 0.4zm6 2-0.1-0.03c-0.02 0.2-0.03 0.3-0.03 0.5v0.6s4e-3 8e-3 0.02 0.02c8e-3 0.01 0.02 0.03 0.05 0.06 0.05 0 0.08-0.2 0.08-0.6v-0.3-0.3zm2-3c-0.03 0.2-0.05 0.3-0.06 0.4-0.01 0.07-0.02 0.1-0.02 0.2 0 0.07 0.02 0.1 0.08 0.2 0-0.02 4e-3 -0.04 0.02-0.05 8e-3 -8e-3 0.02-0.03 0.02-0.06 0-0.07-8e-3 -0.1-0.02-0.2-0.01-0.08-0.02-0.2-0.02-0.4zm-5 8c-0.07 0-0.1 0.04-0.1 0.1-0.01 0.07-0.02 0.1-0.02 0.2 0 0.1 0.04 0.2 0.1 0.3 0.03-0.07 0.05-0.1 0.08-0.2 0.02-0.05 0.05-0.1 0.08-0.2 0-0.04-0.04-0.1-0.1-0.2zm4-5c0.1-0.09 0.2-0.2 0.2-0.2 0-0.07-0.04-0.1-0.1-0.1-0.07 0-0.1 0.06-0.2 0.2 0 0.07 0.05 0.1 0.1 0.1zm-5-0.08c0-0.07-0.03-0.1-0.08-0.2-0.04 0.09-0.06 0.2-0.06 0.2 0 0.04 8e-3 0.08 0.03 0.1 0.02-0.03 0.04-0.05 0.05-0.08 0.02-0.02 0.04-0.05 0.06-0.08zm7-8c0-0.1-0.03-0.2-0.08-0.2-0.05 0-0.08 0.03-0.08 0.08 0 0.02 4e-3 0.04 0.02 0.06 0.02 0.01 0.03 0.03 0.03 0.05 0.04 0 0.08-8e-3 0.1-0.03zm-8 4 0.03 0.1 0.05-0.08z"/></g><g transform="translate(61 39)"><path d="m2-13c0.2-0.2 0.4-0.4 0.5-0.7 0.2-0.2 0.3-0.5 0.4-0.8 0.1-0.3 0.3-0.6 0.5-0.8 0.3-0.2 0.5-0.4 0.8-0.6 0.3-0.2 0.4-0.4 0.5-0.7 0.3-0.3 0.5-0.6 0.8-0.9s0.6-0.6 1-0.7c0.2-0.1 0.4-0.2 0.6-0.4 0.2-0.2 0.4-0.3 0.7-0.3 0.6 0 1 0.1 2 0.4 0.8 0.3 1 0.7 2 1 0.6 0.5 0.9 1 0.9 2 0 0.05-0.01 0.1-0.03 0.2-0.01 0.07-0.02 0.1-0.02 0.2 0 0.1 4e-3 0.2 0.02 0.3 0.02 0.1 0.03 0.2 0.03 0.3 0 0.5-0.2 0.8-0.5 1-0.2 0.09-0.3 0.3-0.4 0.5-0.1 0.2-0.2 0.4-0.4 0.6-0.1 0.1-0.2 0.2-0.4 0.4-0.1 0.1-0.2 0.3-0.3 0.5-0.1 0.2-0.4 0.6-0.9 1-0.5 0.4-1 0.8-2 1-0.6 0.3-1 0.5-2 0.5-0.2 0-0.5-0.02-0.8-0.08-0.2-0.05-0.5-0.08-0.8-0.08-0.3 0-0.6 0.2-0.6 0.6-0.07 0.4-0.1 0.7-0.1 1 0 0.5 0.03 1 0.09 2 0.06 0.7 0.2 1 0.4 2 0.2 0.6 0.5 0.8 1 0.8 0.3 0 0.6-0.08 0.9-0.2 0.3-0.2 0.6-0.3 0.8-0.5 1-0.8 2-2 3-2 1-0.8 2-2 3-2 0.1-0.1 0.4-0.4 0.7-0.7 0.3-0.3 0.7-0.7 1-1 0.4-0.3 0.8-0.5 1-0.5 0.1 0 0.2 0.03 0.4 0.09 0.1 0.05 0.2 0.2 0.2 0.3 0 0.2-0.2 0.5-0.6 0.7-0.4 0.2-0.7 0.4-0.9 0.5 0 0-0.1 0.09-0.3 0.3-0.2 0.2-0.4 0.4-0.7 0.6-0.3 0.2-0.5 0.5-0.7 0.7-0.2 0.2-0.3 0.4-0.3 0.5 0 0.1-0.05 0.3-0.2 0.5-0.09 0.2-0.2 0.3-0.4 0.3-0.3 0.2-0.6 0.4-0.9 0.8-0.2 0.3-0.5 0.7-0.7 1-0.2 0.3-0.4 0.5-0.6 0.6-0.1 0.05-0.4 0.2-0.7 0.6-0.3 0.3-0.7 0.7-1 1-0.4 0.4-0.8 0.7-1 1-0.3 0.3-0.6 0.5-0.7 0.5-0.1 0-0.2-0.04-0.4-0.1-0.1 0.07-0.2 0.1-0.3 0.2-0.1 0.07-0.2 0.1-0.3 0.2-0.7-0.07-1-0.2-2-0.2-0.5-0.1-1-0.4-1-1-0.09-0.2-0.2-0.4-0.3-0.4-0.2-0.1-0.4-0.3-0.6-0.6-0.2-0.3-0.3-0.5-0.4-0.8-0.09-0.2-0.1-0.4-0.1-0.4 0-0.07 8e-3 -0.1 0.03-0.2 0.03-0.08 0.05-0.2 0.05-0.3 0-0.2-0.07-0.3-0.2-0.5-0.1-0.1-0.2-0.3-0.2-0.4 0-0.05 0.02-0.1 0.05-0.2 0.04-0.07 0.06-0.1 0.06-0.2 0-0.1-0.03-0.2-0.08-0.3-0.04-0.1-0.06-0.2-0.06-0.4 0-0.09 0.03-0.2 0.09-0.3 0.06-0.1 0.09-0.2 0.09-0.3 0-0.1-0.05-0.3-0.1-0.4-0.09-0.1-0.1-0.3-0.1-0.4 0-0.2 4e-3 -0.6 0.02-1 0.02-0.4 0.05-0.8 0.1-1 0.06-0.4 0.2-0.7 0.3-0.9 0.3-0.3 0.4-0.7 0.5-1 0.04-0.5 0.2-0.9 0.5-1-0.1 0.1-0.2 0.3-0.2 0.4 0 0.07 0.02 0.1 0.08 0.2 0.02-0.03 0.04-0.05 0.06-0.05 0.03 0 0.05-0.04 0.05-0.1 0-0.07-8e-3 -0.1-0.02-0.2-0.01-0.07-0.03-0.1-0.06-0.2zm3 2c0.3-0.05 0.8-0.2 1-0.3 0.5-0.2 1-0.4 1-0.7s0.9-0.6 1-1c0.3-0.4 0.5-0.9 0.5-2 0-0.3-0.06-0.7-0.2-1-0.1-0.4-0.3-0.6-0.7-0.6-0.6 0-1 0.2-2 0.6-0.5 0.4-1 0.9-1 1-0.4 0.6-0.7 1-0.9 2-0.2 0.5-0.3 0.9-0.3 1 0 0.1 0.05 0.2 0.2 0.2 0.1 0.02 0.3 0.06 0.6 0.1z"/></g><g transform="translate(76 39)"><path d="m14-4c0.2 0.2 0.3 0.4 0.3 0.7 0 0.5-0.1 0.8-0.4 1-0.3 0.3-0.7 0.4-1 0.4-0.2 0-0.4-0.2-0.5-0.6-0.1-0.4-0.2-0.7-0.2-1-0.5 0-0.8 0.1-1 0.4-0.3 0.2-0.5 0.5-0.8 0.8-0.2 0.3-0.6 0.6-1 0.8-0.6 0.2-1 0.6-1 1-0.4 0.4-0.8 0.8-1 1-0.4 0.1-0.8 0.5-1 1-0.3 0.6-0.6 1-0.9 2-0.1 0.2-0.2 0.5-0.2 0.8 0 0.3-0.03 0.5-0.08 0.8 0 0.2 0.09 0.3 0.3 0.4 0.2 0.07 0.4 0.1 0.5 0.1 0.1 0 0.3-0.02 0.4-0.06 0.1-0.03 0.3-0.05 0.4-0.05 0.07 0 0.1 4e-3 0.2 0.02 0.06 8e-3 0.1 0.02 0.2 0.02 0.3 0 0.4-0.1 0.5-0.3 0.08-0.2 0.2-0.4 0.3-0.6 0.1-0.2 0.3-0.4 0.6-0.5 0.5-0.1 0.9-0.4 1-0.9 0.2-0.5 0.4-1 0.6-2 0.2-0.3 0.5-0.7 0.8-1 0.4-0.5 0.5-0.9 0.5-1v0.03c0.05 0 0.1-0.09 0.2-0.3 0.1-0.2 0.3-0.4 0.4-0.6 0.1-0.2 0.2-0.3 0.2-0.3 0.2 0 0.3 0.07 0.3 0.2 0.04 0.1 0.07 0.3 0.09 0.5 0.02 0.2 0.07 0.2 0.1 0.2 0.05 0 0.1-4e-3 0.2-0.02 0.07-0.02 0.2-0.03 0.2-0.03 0.2 0 0.3 0.07 0.3 0.2 0 0.3-0.1 0.6-0.4 0.9-0.3 0.3-0.7 0.6-1 0.8-0.07 0-0.1-0.01-0.2-0.03-0.05-0.01-0.1-0.03-0.2-0.05 0 0 8e-3 8e-3 0.03 0.03 0.02 0.03 0.03 0.05 0.03 0.05l-0.03-0.1c0.07 0.02 0.2 0.05 0.4 0.1 0 0.4-0.02 0.7-0.06 1-0.03 0.3-0.2 0.6-0.6 0.7-0.2 0.02-0.3 0.2-0.3 0.5-0.01 0.3-0.1 0.5-0.4 0.6-0.2 0.1-0.4 0.3-0.4 0.5-0.03 0.2-0.08 0.4-0.1 0.6-0.05 0.2-0.2 0.3-0.6 0.3-0.2 0-0.4 0.1-0.5 0.4-0.09 0.2-0.2 0.4-0.4 0.4-0.2 0.07-0.4 0.2-0.7 0.4-0.4 0.3-0.8 0.5-1 0.6-0.3 0.07-0.7 0.1-1 0.1-0.4 0-0.6 0.1-0.8 0.3s-0.3 0.3-0.5 0.3c-0.3 0-0.6-0.2-0.9-0.5-0.3-0.3-0.6-0.7-0.8-1-0.2-0.4-0.3-0.7-0.3-0.9 0-0.05 0.08-0.2 0.2-0.5s0.3-0.6 0.4-0.9c0.02-0.09 0.1-0.4 0.3-1 0.2-0.6 0.4-1 0.8-2 0.4-0.7 0.9-1 1-2 0.3-0.2 0.5-0.4 0.7-0.8 0.1-0.3 0.4-0.5 0.8-0.6 0.4-0.1 0.7-0.3 0.9-0.5 0.2-0.3 0.4-0.5 0.6-0.7 0.2-0.2 0.3-0.3 0.4-0.3 0.2-0.04 0.4-0.1 0.6-0.3 0.1-0.1 0.3-0.3 0.4-0.4 0.1-0.1 0.3-0.2 0.5-0.2 0.3 0 0.5-0.1 0.7-0.3 0.2-0.2 0.3-0.4 0.5-0.7 0.2-0.2 0.5-0.4 0.8-0.5 0.5-0.1 0.8-0.4 1-0.7 0.2-0.4 0.3-0.8 0.4-1 0.06-0.5 0.1-1 0.2-2 0-0.2-0.09-0.5-0.2-0.7-0.2-0.2-0.4-0.3-0.6-0.3-0.1 0-0.2 0.02-0.3 0.05-0.09 0.02-0.2 0.03-0.2 0.03-0.09 0-0.2-0.03-0.3-0.09s-0.2-0.09-0.4-0.09c-0.2 0-0.6 0.1-0.9 0.4-0.4 0.2-0.8 0.4-1 0.6-0.4 0.1-0.7 0.2-0.9 0.4-0.2 0.1-0.5 0.3-0.9 0.6-0.1-0.05-0.2-0.1-0.3-0.2-0.09-0.06-0.2-0.09-0.2-0.09 0 0-0.1 0.09-0.3 0.2-0.2 0.2-0.5 0.3-1 0.5-0.4 0.2-0.9 0.2-1 0.2-0.1 0-0.2-0.09-0.2-0.3-0.05-0.2-0.1-0.3-0.3-0.4-0.6-0.2-1-0.5-1-0.8-0.4-0.3-0.6-0.8-0.6-1 0-0.05 8e-3 -0.1 0.03-0.2 0.03-0.06 0.05-0.1 0.05-0.2 0-0.1-0.02-0.2-0.06-0.4-0.03-0.1-0.05-0.2-0.05-0.4 0-0.2 0.05-0.4 0.1-0.6 0.1-0.2 0.2-0.4 0.2-0.6 0.02-0.4 0.1-0.8 0.3-1 0.2-0.3 0.4-0.6 0.7-0.8 0.1-0.1 0.3-0.3 0.6-0.6 0.3-0.3 0.5-0.5 0.7-0.8 0.2-0.2 0.3-0.4 0.3-0.4 0.1-0.3 0.3-0.5 0.5-0.6 0.2-0.1 0.5-0.2 0.7-0.3 0.2-0.1 0.4-0.3 0.5-0.6 0.07-0.2 0.3-0.4 0.7-0.6 0.4-0.2 0.7-0.4 0.9-0.8 0.3-0.4 0.6-0.8 0.9-1 0.3-0.2 0.6-0.5 1-0.8 0.3 0.04 0.6 0.09 1 0.2 0.5 0.06 0.9 0.2 1 0.4 0.4 0.2 0.6 0.5 0.7 0.9 0 0.09-0.03 0.2-0.08 0.3-0.05 0.09-0.1 0.2-0.2 0.2-0.5 0.07-1 0.3-1 0.7-0.4 0.4-0.8 0.8-1 1-0.2 0.2-0.5 0.5-0.8 0.6-0.3 0.2-0.6 0.4-0.9 0.7-0.3 0.3-0.5 0.7-0.7 1-0.07 0.3-0.3 0.5-0.7 0.7-0.4 0.2-0.6 0.5-0.7 1-0.07 0.2-0.2 0.4-0.4 0.6-0.2 0.2-0.3 0.4-0.3 0.6 0 0.2 0.1 0.2 0.3 0.2 0.1 0 0.2-8e-3 0.2-0.03 0.9-0.2 2-0.5 3-0.9 1-0.3 3-0.5 4-0.5 0.7 0 1 0.09 2 0.3 0.4 0.2 0.7 0.5 1 0.9 0.1 0.2 0.1 0.5 0.1 0.8-0.02 0.2 0.07 0.5 0.3 0.7 0.07-0.05 0.2-0.1 0.2-0.2 0.09-0.07 0.2-0.1 0.2-0.1 0.1 0 0.2 0.2 0.3 0.5 0.04 0.3 0.07 0.6 0.09 0.8 0.2 0.02 0.3 0.1 0.4 0.2 0.03 0.1 0.09 0.3 0.2 0.4 0.08 0.1 0.3 0.2 0.6 0.2 0.3 0 0.5-0.05 0.7-0.1 0.3-0.2 0.7-0.2 1-0.2 0.3 0.02 0.7-0.02 1-0.1 0.2 0.04 0.4 0.09 0.7 0.1 0.3 0.03 0.5 0.1 0.8 0.2 0.2 0.09 0.3 0.2 0.3 0.5 0 0.2-0.1 0.5-0.4 0.7-0.3 0.2-0.5 0.3-0.7 0.3-0.1 0-0.2-8e-3 -0.3-0.03-0.09-0.02-0.2-0.03-0.3-0.03-0.2 0-0.6 0.06-1 0.2-0.5 0.1-1 0.3-2 0.5-0.5 0.2-0.8 0.5-0.9 0.9-0.07 0.1-0.2 0.2-0.4 0.2-0.05 0-0.1-4e-3 -0.2-0.02-0.07-8e-3 -0.1-0.02-0.2-0.02-0.1 0-0.3 0.08-0.5 0.2-0.2 0.2-0.4 0.4-0.6 0.6-0.2 0.2-0.3 0.5-0.3 0.7 0 0.05 4e-3 0.1 0.02 0.2 0.02 0.06 0.03 0.1 0.03 0.2 0 0.1-0.07 0.2-0.2 0.2-0.07 0-0.1-4e-3 -0.2-0.02-0.07-8e-3 -0.1-0.02-0.2-0.02-0.4 0-0.6 0.2-0.6 0.7 0 0.3 0.05 0.6 0.2 0.8-0.07-0.02-0.1-0.05-0.2-0.08-0.05-0.04-0.1-0.06-0.2-0.06-0.09 0-0.2 0.03-0.2 0.08-0.01 0.04-0.04 0.1-0.08 0.2 0.3 0 0.5-0.08 0.6-0.2 0.05-0.2 0.09-0.4 0.1-0.7 0-0.1-8e-3 -0.2-0.02-0.3-0.01-0.07-0.02-0.2-0.02-0.2z"/></g><g transform="translate(94 39)"><path d="m14-4c0.2 0.2 0.3 0.4 0.3 0.7 0 0.5-0.1 0.8-0.4 1-0.3 0.3-0.7 0.4-1 0.4-0.2 0-0.4-0.2-0.5-0.6-0.1-0.4-0.2-0.7-0.2-1-0.5 0-0.8 0.1-1 0.4-0.3 0.2-0.5 0.5-0.8 0.8-0.2 0.3-0.6 0.6-1 0.8-0.6 0.2-1 0.6-1 1-0.4 0.4-0.8 0.8-1 1-0.4 0.1-0.8 0.5-1 1-0.3 0.6-0.6 1-0.9 2-0.1 0.2-0.2 0.5-0.2 0.8 0 0.3-0.03 0.5-0.08 0.8 0 0.2 0.09 0.3 0.3 0.4 0.2 0.07 0.4 0.1 0.5 0.1 0.1 0 0.3-0.02 0.4-0.06 0.1-0.03 0.3-0.05 0.4-0.05 0.07 0 0.1 4e-3 0.2 0.02 0.06 8e-3 0.1 0.02 0.2 0.02 0.3 0 0.4-0.1 0.5-0.3 0.08-0.2 0.2-0.4 0.3-0.6 0.1-0.2 0.3-0.4 0.6-0.5 0.5-0.1 0.9-0.4 1-0.9 0.2-0.5 0.4-1 0.6-2 0.2-0.3 0.5-0.7 0.8-1 0.4-0.5 0.5-0.9 0.5-1v0.03c0.05 0 0.1-0.09 0.2-0.3 0.1-0.2 0.3-0.4 0.4-0.6 0.1-0.2 0.2-0.3 0.2-0.3 0.2 0 0.3 0.07 0.3 0.2 0.04 0.1 0.07 0.3 0.09 0.5 0.02 0.2 0.07 0.2 0.1 0.2 0.05 0 0.1-4e-3 0.2-0.02 0.07-0.02 0.2-0.03 0.2-0.03 0.2 0 0.3 0.07 0.3 0.2 0 0.3-0.1 0.6-0.4 0.9-0.3 0.3-0.7 0.6-1 0.8-0.07 0-0.1-0.01-0.2-0.03-0.05-0.01-0.1-0.03-0.2-0.05 0 0 8e-3 8e-3 0.03 0.03 0.02 0.03 0.03 0.05 0.03 0.05l-0.03-0.1c0.07 0.02 0.2 0.05 0.4 0.1 0 0.4-0.02 0.7-0.06 1-0.03 0.3-0.2 0.6-0.6 0.7-0.2 0.02-0.3 0.2-0.3 0.5-0.01 0.3-0.1 0.5-0.4 0.6-0.2 0.1-0.4 0.3-0.4 0.5-0.03 0.2-0.08 0.4-0.1 0.6-0.05 0.2-0.2 0.3-0.6 0.3-0.2 0-0.4 0.1-0.5 0.4-0.09 0.2-0.2 0.4-0.4 0.4-0.2 0.07-0.4 0.2-0.7 0.4-0.4 0.3-0.8 0.5-1 0.6-0.3 0.07-0.7 0.1-1 0.1-0.4 0-0.6 0.1-0.8 0.3s-0.3 0.3-0.5 0.3c-0.3 0-0.6-0.2-0.9-0.5-0.3-0.3-0.6-0.7-0.8-1-0.2-0.4-0.3-0.7-0.3-0.9 0-0.05 0.08-0.2 0.2-0.5s0.3-0.6 0.4-0.9c0.02-0.09 0.1-0.4 0.3-1 0.2-0.6 0.4-1 0.8-2 0.4-0.7 0.9-1 1-2 0.3-0.2 0.5-0.4 0.7-0.8 0.1-0.3 0.4-0.5 0.8-0.6 0.4-0.1 0.7-0.3 0.9-0.5 0.2-0.3 0.4-0.5 0.6-0.7 0.2-0.2 0.3-0.3 0.4-0.3 0.2-0.04 0.4-0.1 0.6-0.3 0.1-0.1 0.3-0.3 0.4-0.4 0.1-0.1 0.3-0.2 0.5-0.2 0.3 0 0.5-0.1 0.7-0.3 0.2-0.2 0.3-0.4 0.5-0.7 0.2-0.2 0.5-0.4 0.8-0.5 0.5-0.1 0.8-0.4 1-0.7 0.2-0.4 0.3-0.8 0.4-1 0.06-0.5 0.1-1 0.2-2 0-0.2-0.09-0.5-0.2-0.7-0.2-0.2-0.4-0.3-0.6-0.3-0.1 0-0.2 0.02-0.3 0.05-0.09 0.02-0.2 0.03-0.2 0.03-0.09 0-0.2-0.03-0.3-0.09s-0.2-0.09-0.4-0.09c-0.2 0-0.6 0.1-0.9 0.4-0.4 0.2-0.8 0.4-1 0.6-0.4 0.1-0.7 0.2-0.9 0.4-0.2 0.1-0.5 0.3-0.9 0.6-0.1-0.05-0.2-0.1-0.3-0.2-0.09-0.06-0.2-0.09-0.2-0.09 0 0-0.1 0.09-0.3 0.2-0.2 0.2-0.5 0.3-1 0.5-0.4 0.2-0.9 0.2-1 0.2-0.1 0-0.2-0.09-0.2-0.3-0.05-0.2-0.1-0.3-0.3-0.4-0.6-0.2-1-0.5-1-0.8-0.4-0.3-0.6-0.8-0.6-1 0-0.05 8e-3 -0.1 0.03-0.2 0.03-0.06 0.05-0.1 0.05-0.2 0-0.1-0.02-0.2-0.06-0.4-0.03-0.1-0.05-0.2-0.05-0.4 0-0.2 0.05-0.4 0.1-0.6 0.1-0.2 0.2-0.4 0.2-0.6 0.02-0.4 0.1-0.8 0.3-1 0.2-0.3 0.4-0.6 0.7-0.8 0.1-0.1 0.3-0.3 0.6-0.6 0.3-0.3 0.5-0.5 0.7-0.8 0.2-0.2 0.3-0.4 0.3-0.4 0.1-0.3 0.3-0.5 0.5-0.6 0.2-0.1 0.5-0.2 0.7-0.3 0.2-0.1 0.4-0.3 0.5-0.6 0.07-0.2 0.3-0.4 0.7-0.6 0.4-0.2 0.7-0.4 0.9-0.8 0.3-0.4 0.6-0.8 0.9-1 0.3-0.2 0.6-0.5 1-0.8 0.3 0.04 0.6 0.09 1 0.2 0.5 0.06 0.9 0.2 1 0.4 0.4 0.2 0.6 0.5 0.7 0.9 0 0.09-0.03 0.2-0.08 0.3-0.05 0.09-0.1 0.2-0.2 0.2-0.5 0.07-1 0.3-1 0.7-0.4 0.4-0.8 0.8-1 1-0.2 0.2-0.5 0.5-0.8 0.6-0.3 0.2-0.6 0.4-0.9 0.7-0.3 0.3-0.5 0.7-0.7 1-0.07 0.3-0.3 0.5-0.7 0.7-0.4 0.2-0.6 0.5-0.7 1-0.07 0.2-0.2 0.4-0.4 0.6-0.2 0.2-0.3 0.4-0.3 0.6 0 0.2 0.1 0.2 0.3 0.2 0.1 0 0.2-8e-3 0.2-0.03 0.9-0.2 2-0.5 3-0.9 1-0.3 3-0.5 4-0.5 0.7 0 1 0.09 2 0.3 0.4 0.2 0.7 0.5 1 0.9 0.1 0.2 0.1 0.5 0.1 0.8-0.02 0.2 0.07 0.5 0.3 0.7 0.07-0.05 0.2-0.1 0.2-0.2 0.09-0.07 0.2-0.1 0.2-0.1 0.1 0 0.2 0.2 0.3 0.5 0.04 0.3 0.07 0.6 0.09 0.8 0.2 0.02 0.3 0.1 0.4 0.2 0.03 0.1 0.09 0.3 0.2 0.4 0.08 0.1 0.3 0.2 0.6 0.2 0.3 0 0.5-0.05 0.7-0.1 0.3-0.2 0.7-0.2 1-0.2 0.3 0.02 0.7-0.02 1-0.1 0.2 0.04 0.4 0.09 0.7 0.1 0.3 0.03 0.5 0.1 0.8 0.2 0.2 0.09 0.3 0.2 0.3 0.5 0 0.2-0.1 0.5-0.4 0.7-0.3 0.2-0.5 0.3-0.7 0.3-0.1 0-0.2-8e-3 -0.3-0.03-0.09-0.02-0.2-0.03-0.3-0.03-0.2 0-0.6 0.06-1 0.2-0.5 0.1-1 0.3-2 0.5-0.5 0.2-0.8 0.5-0.9 0.9-0.07 0.1-0.2 0.2-0.4 0.2-0.05 0-0.1-4e-3 -0.2-0.02-0.07-8e-3 -0.1-0.02-0.2-0.02-0.1 0-0.3 0.08-0.5 0.2-0.2 0.2-0.4 0.4-0.6 0.6-0.2 0.2-0.3 0.5-0.3 0.7 0 0.05 4e-3 0.1 0.02 0.2 0.02 0.06 0.03 0.1 0.03 0.2 0 0.1-0.07 0.2-0.2 0.2-0.07 0-0.1-4e-3 -0.2-0.02-0.07-8e-3 -0.1-0.02-0.2-0.02-0.4 0-0.6 0.2-0.6 0.7 0 0.3 0.05 0.6 0.2 0.8-0.07-0.02-0.1-0.05-0.2-0.08-0.05-0.04-0.1-0.06-0.2-0.06-0.09 0-0.2 0.03-0.2 0.08-0.01 0.04-0.04 0.1-0.08 0.2 0.3 0 0.5-0.08 0.6-0.2 0.05-0.2 0.09-0.4 0.1-0.7 0-0.1-8e-3 -0.2-0.02-0.3-0.01-0.07-0.02-0.2-0.02-0.2z"/></g></g></g></g><g transform="translate(14 91)"><g clip-path="url(#d)"><g fill="#14cec7"><g transform="translate(.4 31)"><path d="m14-10v4c0 2-0.5 4-2 5-1 1-3 2-5 2-2 0-4-0.6-5-2-1-1-2-3-2-5v-14c0-2 0.5-4 2-5 1-1 3-2 5-2 2 0 4 0.6 5 2 1 1 2 3 2 5v3h-4v-3c0-1-0.2-2-0.6-2-0.4-0.4-0.9-0.6-2-0.6-0.7 0-1 0.2-2 0.6-0.4 0.4-0.6 1-0.6 2v15c0 1 0.2 2 0.6 2 0.4 0.4 1 0.6 2 0.6 0.7 0 1-0.2 2-0.6 0.4-0.4 0.6-1 0.6-2v-4z"/></g><g transform="translate(16 31)"><path d="m6-6c0 1 0.2 2 0.6 2 0.4 0.4 1 0.6 2 0.6 0.7 0 1-0.2 2-0.6 0.4-0.4 0.6-1 0.6-2v-15c0-1-0.2-2-0.6-2-0.4-0.4-0.9-0.6-2-0.6-0.7 0-1 0.2-2 0.6-0.4 0.4-0.6 1-0.6 2zm-4-15c0-2 0.6-4 2-5 1-1 3-2 5-2 2 0 4 0.6 5 2 1 1 2 3 2 5v14c0 2-0.6 4-2 5-1 1-3 2-5 2-2 0-4-0.6-5-2-1-1-2-3-2-5z"/></g><g transform="translate(31 31)"><path d="m16 0h-4l-0.8-5h-5l-0.8 5h-4l4-28h6zm-10-9h4l-2-14z"/></g><g transform="translate(47 31)"><path d="m14-10v4c0 2-0.5 4-2 5-1 1-3 2-5 2-2 0-4-0.6-5-2-1-1-2-3-2-5v-14c0-2 0.5-4 2-5 1-1 3-2 5-2 2 0 4 0.6 5 2 1 1 2 3 2 5v3h-4v-3c0-1-0.2-2-0.6-2-0.4-0.4-0.9-0.6-2-0.6-0.7 0-1 0.2-2 0.6-0.4 0.4-0.6 1-0.6 2v15c0 1 0.2 2 0.6 2 0.4 0.4 1 0.6 2 0.6 0.7 0 1-0.2 2-0.6 0.4-0.4 0.6-1 0.6-2v-4z"/></g><g transform="translate(63 31)"><path d="m6 0h-4v-28h4v12h5v-12h4v28h-4v-12h-5z"/></g><g transform="translate(79 31)"><path d="m2-28h4v28h-4z"/></g><g transform="translate(87 31)"><path d="m5-20v20h-4v-28h5l4 17v-17h4v28h-4z"/></g><g transform="translate(104 31)"><path d="m8-15h6v9c0 2-0.5 4-2 5-1 1-3 2-5 2-2 0-4-0.6-5-2-1-1-2-3-2-5v-14c0-2 0.5-4 2-5 1-1 3-2 5-2 2 0 4 0.6 5 2 1 1 2 3 2 5v3h-4v-3c0-1-0.2-2-0.6-2-0.4-0.4-0.9-0.6-2-0.6-0.7 0-1 0.2-2 0.6-0.4 0.4-0.6 1-0.6 2v15c0 1 0.2 2 0.6 2 0.4 0.4 1 0.6 2 0.6 0.7 0 1-0.2 2-0.6 0.4-0.4 0.6-1 0.6-2v-5h-2z"/></g></g></g></g></svg>
