<svg xmlns="http://www.w3.org/2000/svg" width="192" height="192" version="1.0" viewBox="0 0 144 144"><defs><clipPath id="a"><path d="M0 0h112v46H0z"/></clipPath><clipPath id="c"><path d="M.602 12H18v30H.602Zm0 0"/></clipPath><clipPath id="b"><path d="M0 0h118v59H0z"/></clipPath><clipPath id="d"><path d="M0 0h120v41H0z"/></clipPath></defs><path fill="#fff" d="M-14.4-14.4h172.8v172.8H-14.4z"/><path fill="#118c8d" d="M-14.4-14.4h172.8v172.8H-14.4z"/><g fill="#14cec7" clip-path="url(#a)" transform="translate(18 11)"><path d="M1.154 10.542c0-2.488.586-4.395 1.766-5.719q1.78-1.999 5.343-2 3.544.001 5.313 2 1.78 1.986 1.781 5.719v1.172H10.81v-1.485q-.001-1.67-.64-2.343-.645-.687-1.782-.688-1.142 0-1.78.688-.627.674-.626 2.343 0 1.58.703 2.782.702 1.204 1.75 2.28a43 43 0 0 0 2.25 2.157q1.219 1.078 2.266 2.344a12 12 0 0 1 1.75 2.89q.703 1.628.703 3.813 0 3.737-1.828 5.734-1.815 1.986-5.36 1.985-3.548.001-5.375-1.985-1.813-1.997-1.812-5.734v-2.094h4.547v2.407c0 1.117.226 1.89.687 2.328q.687.656 1.813.656 1.138 0 1.812-.656c.457-.438.688-1.211.688-2.328q0-1.575-.703-2.782-.69-1.202-1.75-2.28c-.7-.72-1.45-1.43-2.25-2.142a22.6 22.6 0 0 1-2.266-2.343q-1.048-1.277-1.75-2.907-.703-1.622-.703-3.812M16.855 3.167H31.76v4.39H26.73V33.87h-4.828V7.558h-5.047ZM49.582 33.87h-4.875l-.828-5.562h-5.922l-.844 5.562h-4.422l4.907-30.703h7.062Zm-11.016-9.734h4.657L40.894 8.604ZM56.324 23.698 50.23 3.167h5.047l3.687 14 3.688-14h4.594l-6.094 20.531V33.87h-4.828ZM69.177 3.167h4.828V33.87h-4.828ZM81.807 11.636V33.87h-4.344V3.167h6.063l4.953 18.375V3.167h4.297V33.87h-4.953ZM103.473 16.76h6.766v9.735q0 3.737-1.828 5.734-1.814 1.986-5.375 1.985-3.55.001-5.375-1.985-1.815-1.997-1.813-5.734V10.542q-.002-3.732 1.813-5.719 1.825-1.999 5.375-2 3.56.001 5.375 2 1.828 1.986 1.828 5.719v2.984h-4.563V10.23q0-1.67-.687-2.343-.676-.687-1.813-.688-1.142 0-1.828.688-.673.674-.672 2.343v16.579c0 1.117.223 1.89.672 2.328q.685.656 1.828.656 1.138 0 1.813-.656c.457-.438.687-1.211.687-2.328V21.15h-2.203Zm0 0"/></g><g clip-path="url(#b)" transform="translate(15 37)"><g clip-path="url(#c)"><path fill="#ffbd59" d="M3.852 29.467c.07-.781.113-1.398.125-1.86q.029-.701.531-1.468c.145-.188.254-.492.328-.922q.106-.64.266-1.39.17-.748.469-1.298.107-.28.25-.53.152-.266.187-.595a.83.83 0 0 1 .266-.546.82.82 0 0 0 .281-.547q.03-.282.063-.657.045-.386.187-.656.515-.797.906-1.922.404-1.137.86-2.234.467-1.091 1.094-1.813a2.07 2.07 0 0 1 1.625-.734h.625q.762 0 1.203.563.433.564.656 1.421.217.861.266 1.75.06.891.062 1.547v.703q0 .223-.078.47.405.626.469 1.687.074 1.049.156 1.875c.07.398.156.773.25 1.125.101.343.156.726.156 1.14q-.001.3-.031.594a9 9 0 0 0-.016.578q0 1.05.344 1.969.356.908 1.047 1.969a20 20 0 0 0-.219.578c-.074.2-.148.39-.219.578.094.367.18.805.266 1.312q.141.768.281 1.407.14.644.297.86c.113.148.207.421.281.827.07.399.141.82.204 1.266q.093.674.28 1.187c.114.368.188.735.22 1.11q.06.562.062 1.187a4 4 0 0 1-.578.36c-.242.195-.531.46-.875.796-.344.344-.649.516-.906.516q-.268 0-.407-.281-.14-.27-.328-.375-.69-.393-.906-1.031a7.7 7.7 0 0 1-.328-1.297 7 7 0 0 0-.313-1.11q-.203-.526-.203-1.218-.001-.106.016-.22c.008-.07.016-.144.016-.218q-.001-.294-.079-1.094-.064-.81-.234-1.703a7 7 0 0 0-.437-1.547q-.269-.656-.625-.656-.3.001-.797.172-.487.159-.891.266a.82.82 0 0 1-.656.296q-.394.001-.688.22a.47.47 0 0 1-.297.109 1 1 0 0 1-.203-.016q-.082-.03-.187-.063c-.106 0-.328.102-.672.297a2.1 2.1 0 0 1-1.047.282q-.518.001-.906.734a9.5 9.5 0 0 0-.656 1.75c-.18.68-.344 1.328-.5 1.953q-.237.925-.454 1.328c-.054.125-.171.403-.359.828a6 6 0 0 1-.703 1.203q-.44.593-1.016.594-.327 0-.656-.281-.328-.27-.328-.563-.002-.112.031-.171.293-.738.61-1.625.311-.889.453-1.766.138-.702.406-1.61.28-.902.531-1.859.265-.95.266-1.719-.001-.356-.172-.718a1.9 1.9 0 0 1-.156-.735q-.002-.328.297-.328.138.002.265.016.123.017.281.015c.07 0 .204-.019.391-.062m4.266-6.125v.484c0 .157-.024.309-.063.453q-.047.269-.36.875-.298.598-.609 1.36a4.1 4.1 0 0 0-.312 1.594q-.002.268.031.578.046.298.297.297c.633 0 1.297-.07 1.984-.22q1.046-.217 1.985-.359c.27-.125.426-.273.469-.453q.076-.28.078-.609c0-.895-.133-1.922-.391-3.078a15.6 15.6 0 0 1-.375-3.297q0-.14.047-.25v.031s-.04-.148-.11-.453c-.074-.3-.164-.61-.265-.922-.094-.32-.18-.484-.25-.484q-.082 0-.375.547-.282.55-.516 1.172-.234.626-.234.906 0 1.171-1.031 1.828m0 0"/></g><path fill="#ffbd59" d="M34.118 37.264q.358.143.359.437-.002.251-.344.766c-.23.344-.453.555-.672.625.239.164.36.297.36.39 0 .102-.075.22-.219.344q-.22.2-.219.422 0 .154.203.219.201.077.203.219-.001.217-.265.406a.56.56 0 0 0-.172.75q.076.123.078.234 0 .245-.094.47-.094.215-.125.437-.002.075-.297.328a.84.84 0 0 0-.296.656c0 .25.03.445.093.594q.094.216.094.468 0 .468-.219 1.329-.222.855-.437 1.64c-.149.52-.219.867-.219 1.047q-.002.105.031.14c0 .22-.074.477-.218.782q-.222.452-.438.828-.22.388-.219.547-.002.107.078.219.078.106.079.218a.43.43 0 0 1-.157.313.5.5 0 0 0-.14.344q-.035.655-.438 1.328c-.273.445-.406.828-.406 1.14q-.002.078.031.172a.4.4 0 0 1 .047.157q0 .217-.187.421a.63.63 0 0 0-.172.422c0 .82-.29 1.485-.86 1.985a2.93 2.93 0 0 1-1.984.75c-.2 0-.402-.024-.61-.063a1.8 1.8 0 0 1-.593-.203 25 25 0 0 1-1.656-1.234q-.69-.58-1.047-1.563-.362-.985-.36-2.844-.001-.626.125-1.25c.082-.406.125-.82.125-1.234q-.001-.175.125-.75.124-.563.328-1.25c.133-.46.282-.883.438-1.266q.232-.562.453-.703a.88.88 0 0 0 .36-.64c.03-.25.066-.508.109-.766q.076-.376.453-.64a.5.5 0 0 0 .094-.172c.031-.075.054-.137.078-.188.101-.418.25-.742.437-.969q.295-.346.594-.922a3.1 3.1 0 0 1 1.344-1.828.16.16 0 0 0 .094-.109q.011-.081.046-.11.187-.627.579-1.015.405-.405.828-.75a1.65 1.65 0 0 0 .562-.781c.031-.102.16-.313.39-.625.227-.313.47-.617.72-.922.257-.313.437-.469.53-.469q.106 0 .329.078.155-.403.437-1 .295-.608.532-1.234.234-.638.234-1.125-.002-.282-.11-.516a1.1 1.1 0 0 1-.109-.469q0-.28.141-.656.154-.389.156-.765a2.3 2.3 0 0 0-.047-.454 3 3 0 0 1-.03-.484c0-.363.038-.734.124-1.11q.14-.574.14-1.156 0-.293-.03-.656-.018-.358-.235-.36c-.117 0-.187.048-.219.141q-.174.516-.484.797c-.211.18-.496.266-.86.266-.054 0-.101-.023-.14-.078q-.112 0-.219.281-.112.269-.265.578-.141.317-.329.422v-.078l.047.031a2 2 0 0 0-.156.25.43.43 0 0 1-.172.188 1.52 1.52 0 0 0-.937.718q-.344.563-.813.704a1.03 1.03 0 0 0-.578.5q-.159.347-.406.593-.3.3-.516.47-.222.157-.515.562-.064.282-.438 1.015-.361.738-.922 1.375-.564.628-1.187.781c-1.117 0-1.985-.304-2.61-.921q-.924-.937-.922-2.547 0-.734.188-1.125.2-.405.312-.844a5 5 0 0 1 .313-.984c.133-.313.266-.63.39-.954q.17-.434.61-.687.434-.248.594-.766.168-.544.718-.937.547-.404.735-.953c.125-.364.445-.79.969-1.282a8.4 8.4 0 0 1 1.812-1.28q1.044-.547 1.953-.548.545.002 1.031.078.499.083 1.016.188c.414.094.774.29 1.078.578q.452.439.89.438.247 0 .47-.329c.343-.343.523-.585.546-.734q.046-.218.438-.219.546 0 1.297.188.749.189 1.328.64.576.457.578 1.329-.002.738-.344 1.734a74 74 0 0 0-.687 2.094q-.344 1.095-.344 2.156-.001.361-.266.687-.251.33-.25.688 0 .376.11.453.105.064.328.063.374.001.625-.25c.07-.07.281-.192.625-.36q.53-.265 1.187-.5.656-.234 1.094-.234.187.001.578.125.406.127.735.406.328.268.328.672c0 .242-.094.39-.281.453a1.7 1.7 0 0 1-.563.094q-.28 0-.422.14a1.18 1.18 0 0 1-.765.407 2.1 2.1 0 0 0-.844.25q-.846.47-1.094.828-.251.344-.766.625-.252.269-.375.25-.126-.029-.406.172-.269.205-1 1.156a1 1 0 0 0-.187.469.93.93 0 0 1-.219.515 3 3 0 0 0-.203.344q-.157.316-.156.375zm-4.079 14.14c-.105-.312-.156-.554-.156-.718 0-.18.07-.367.219-.563a.95.95 0 0 0 .219-.578q-.002-1.049.406-2.11.406-1.064.406-2.218c0-.344.07-.617.219-.813a.95.95 0 0 0 .219-.578q-.001-.14-.172-.28-.157-.13-.156-.188c0-.055.035-.125.109-.22q.06-.157.219-.796.168-.626.297-1.469.14-.843.14-1.453 0-.11-.187-.25-.19-.124-.25-.125-.11 0-.532.375-.42.388-.562.688a137 137 0 0 1-2.578 4.25 26.6 26.6 0 0 0-2.25 4.39q-.907 2.296-.906 5.031a6.2 6.2 0 0 0 .25 1.688q.263.905 1.062 1.234.374-.081.719-.187c.226-.074.453-.137.672-.188q.215-.281.39-.547.185-.251.407-.468.262-.222.234-.532a.83.83 0 0 1 .172-.562q.327-.409.437-.906.106-.486.266-1 .171-.503.687-.907m2.079-27.453a1.5 1.5 0 0 1-.25-.28q-.081-.155-.344-.157-.253.002-1.016.484a35 35 0 0 0-1.687 1.11q-.908.645-1.563 1.171-.656.518-.656.625 0 .27-.36.813a13 13 0 0 1-.765 1.047q-.14.189-.469.64-.328.456-.61.86-.267.408-.265.547.061.14.063.234-.002.094.156.094.03.001.047-.016l.015-.015a8.5 8.5 0 0 0 2.016-1.735c.582-.695 1.203-1.203 1.86-1.515.187-.094.43-.352.734-.782q.467-.637.906-1 .28-.262.578-.484.294-.216.469-.578a.56.56 0 0 1 .406-.281c.164-.032.32-.086.469-.172q.217-.123.266-.61m.828 17.47q-.14-.002-.14.108 0 .03.046.063.06.047.062.047.078 0 .079-.14 0-.05-.047-.079m-3.828-13.673c-.024-.02-.032-.035-.032-.047q0-.029-.03-.062l-.079.078c0 .094.023.14.078.14q.061.001.063-.109m1.468.25-.03.031-.017.016v-.078Zm0 0"/><path fill="#ffbd59" d="M40.93 26.248a5.6 5.6 0 0 0 .531-.687 3.8 3.8 0 0 0 .39-.797q.172-.516.548-.844.389-.328.765-.61.388-.293.5-.702.406-.406.828-.875a2.9 2.9 0 0 1 1-.72c.239-.1.442-.25.61-.437a.9.9 0 0 1 .703-.297q.95 0 2.11.422 1.17.425 2.03 1.188c.57.5.86 1.078.86 1.734a.7.7 0 0 1-.031.188 1 1 0 0 0-.016.187q-.001.174.016.344.03.157.031.344 0 .688-.516 1.062-.252.143-.422.485-.157.345-.375.609c-.125.117-.25.234-.375.36a2.3 2.3 0 0 0-.328.468q-.173.376-.875 1.016a8.2 8.2 0 0 1-1.656 1.14q-.971.516-1.984.516a3.6 3.6 0 0 1-.75-.078 4 4 0 0 0-.782-.078q-.517.001-.625.593-.11.582-.109 1.016 0 .797.094 1.922c.062.742.187 1.39.375 1.953.195.555.515.828.953.828q.404.001.86-.25.45-.264.75-.515c1-.801 1.976-1.598 2.937-2.391q1.435-1.185 2.86-2.422c.144-.125.382-.351.718-.687a9 9 0 0 1 1.156-.97q.637-.451 1.188-.452.188 0 .375.093.201.082.203.297-.002.376-.578.688-.581.299-.875.484s-.102.09-.297.266l-.688.61q-.41.361-.703.671-.28.315-.281.453c0 .149-.055.328-.156.547q-.141.328-.422.328c-.344.18-.649.446-.906.797-.25.344-.477.68-.672 1q-.281.471-.61.578-.221.081-.718.578-.487.486-1.079 1.094-.579.597-1.093 1.047c-.336.305-.574.453-.719.453a.73.73 0 0 1-.375-.11q-.174.114-.344.22a4 4 0 0 1-.344.218 22 22 0 0 1-1.828-.25q-.768-.152-1.343-.984-.141-.327-.329-.438a1.6 1.6 0 0 1-.562-.562 5 5 0 0 1-.375-.75 3 3 0 0 1-.125-.406q-.002-.105.031-.235a.8.8 0 0 0 .047-.281q-.002-.246-.203-.469-.204-.216-.203-.437 0-.077.047-.188a.45.45 0 0 0 .062-.219.75.75 0 0 0-.078-.328 1 1 0 0 1-.062-.359q0-.141.093-.281a.57.57 0 0 0 .094-.297.77.77 0 0 0-.14-.406.84.84 0 0 1-.126-.438q-.001-.356.016-.953.029-.61.11-1.172.091-.576.312-.86.406-.48.453-1.218c.04-.5.195-.945.469-1.344-.106.149-.156.281-.156.406 0 .075.023.137.078.188q.029-.047.062-.047.047.001.047-.11c0-.07-.008-.144-.016-.218a1 1 0 0 0-.062-.219m3.469 1.828q.514-.076 1.234-.312a8 8 0 0 0 1.484-.656q.749-.422 1.235-1.047.499-.638.5-1.516-.001-.481-.172-1.062c-.105-.383-.34-.579-.703-.579q-.925 0-1.703.61a6.7 6.7 0 0 0-1.39 1.453 8.4 8.4 0 0 0-.923 1.64q-.328.785-.328 1.141-.002.189.156.219.17.034.61.11m0 0"/><path fill="#ffbd59" d="M57.956 29.639a.84.84 0 0 1 .234.469q.061.269.063.671-.001.69-.266.907-.251.22-.25.687-.002.111.031.281c.032.106.07.157.125.157q.03 0 .079-.047a.2.2 0 0 1 .14-.063q.059 0 .094.516.047.518.047.953c0 .406-.055.734-.156.984q-.141.363-.282.672-.14.315-.14.86c0 .218-.012.414-.032.578a9 9 0 0 0-.015.625q0 .504.187.937.188.439.844.438a.2.2 0 0 0 .11-.031q.029.403.046.859.013.449.172.484.218 0 .516-.828c.207-.543.43-1.195.672-1.969q.375-1.17.75-2.312.389-1.156.718-1.813a.8.8 0 0 0 .25.032c.125 0 .192-.07.204-.219.007-.145.02-.281.03-.406q.03-.201.141-.203.107.002.125.343c.008.23.032.461.063.688q.06.344.172.344c.125-.114.195-.38.219-.797.02-.414.03-.782.03-1.094q0-.218-.03-.453a3 3 0 0 1-.032-.453q-.001-.732.25-1.563c.164-.562.47-.969.907-1.219q.217-.106.312-.687c.063-.383.117-.703.172-.953q.058-.47.328-.844.28-.389.438-.86.03-.184.375-.5.34-.309.78-.577.436-.282.735-.282.187.002.375.078c.133.055.203.125.203.22q0 .627-.515 1.25c-.336.405-.649.757-.938 1.046q-.41.298-.75 1.047-.345.738-.61 1.36-.251.625-.421.624-.112.002-.172-.125-.048-.14-.203-.14c-.074 0-.137.18-.188.531q-.064.535-.078 1.297-.017.768-.047 1.547-.017.783-.046 1.297l-.22.156q-.108.065-.25.14-.081 1.018-.046 2.047a8 8 0 0 1-.172 2.032 2 2 0 0 1-.25-.016c-.086-.008-.172-.016-.266-.016a.5.5 0 0 0-.078.22q0 .14.047.265c.04.086.063.187.063.312q-.002.139-.016.266a2 2 0 0 0-.016.281q-.001.075.016.188.014.106.016.218a4.9 4.9 0 0 1-.36 1.72 17 17 0 0 0-.578 1.624c-.148.469-.386.758-.719.875-.324.125-.539.32-.64.594-.043.164-.188.36-.438.578q-.361.328-.39.328a.34.34 0 0 1-.266-.125.35.35 0 0 0-.281-.125q-.189-.001-.406.078a1.05 1.05 0 0 1-.407.094 1.24 1.24 0 0 1-.922-.563 4.1 4.1 0 0 1-.562-1.187q-.223-.688-.422-1.297-.207-.597-.5-.89-.14-.142-.14-.688 0-.658-.094-.969a5 5 0 0 0-.203-.562 4 4 0 0 1-.204-.657q-.08-.404-.078-1.203-.001-.468.016-.937.014-.48.016-.844c0-.32-.04-.613-.11-.875q-.11-.404-.11-.844 0-.622.11-1.25c.07-.425.11-.847.11-1.265v-.547q-.001-.246-.032-.516-.001-.356.157-.39a1.2 1.2 0 0 1 .312-.047c.094 0 .14-.07.14-.219a4 4 0 0 0-.015-.328 3 3 0 0 1-.016-.328q.03-.545.047-1.094.031-.544.032-1.094-.002-.654-.204-1.234a3.5 3.5 0 0 1-.203-1.172c0-.656.055-1.273.172-1.86q.187-.872.344-1.78a.85.85 0 0 0 .062-.329q-.002-.247-.062-.5a3 3 0 0 1-.047-.515q-.001-.245.11-.47c.07-.144.109-.304.109-.484q-.001-.17-.031-.375a2.4 2.4 0 0 1-.032-.421c0-.414.04-.86.125-1.329q.124-.714.125-1.265-.002-.217-.015-.438a5 5 0 0 1-.016-.39q-.001-.436.016-.86.014-.418.015-.828-.002-.388-.109-.687a1.6 1.6 0 0 1-.11-.578q-.002-.622.594-.735c.407-.07.766-.11 1.078-.11q.922.001 1.11.266.201.253.203.97 0 1.422-.219 3.155-.22 1.735-.219 2.907-.002.14.079.265.077.127.078.313-.001.034-.032.062l-.015.016a1.5 1.5 0 0 0-.156.734q.012.364-.063.75-.002.159.078.282c.051.086.078.187.078.312a.45.45 0 0 1-.062.219.5.5 0 0 0-.047.172c0 .093.016.18.047.25q.06.112.062.265 0 .223-.078.516a1.8 1.8 0 0 0-.078.5q-.002.221.078.437.077.222.078.438-.002.47-.156.969-.14.486-.14.89-.001.142.062.313a.8.8 0 0 1 .078.344.7.7 0 0 1-.172.437.75.75 0 0 0-.156.438q-.002.221.156.39.172.16.172.453-.064.691-.156 1.032-.095.344-.172.859v-.078m-2.578 4.125q.169-.076.39-.14.219-.077.22-.329-.002-.187-.173-.297a.55.55 0 0 0-.297-.11q-.25 0-.25.47 0 .188.11.406m5.828 2.219-.11-.032a4 4 0 0 0-.03.532v.562q-.002.002.015.016l.047.062c.05 0 .078-.195.078-.594v-.546m2.156-3.454q-.048.254-.062.36a1 1 0 0 0-.016.187q-.002.113.078.172-.001-.03.016-.047.014-.012.015-.062-.002-.105-.015-.235a3 3 0 0 1-.016-.375m-4.922 8.204q-.11-.001-.14.109-.017.106-.016.172-.001.153.11.265.044-.11.078-.187.03-.082.078-.188c0-.042-.04-.101-.11-.171m4.22-5.22c.1-.093.155-.155.155-.187 0-.07-.039-.109-.109-.109q-.111 0-.188.187 0 .111.141.11m-5.282-.077a.22.22 0 0 0-.078-.172.6.6 0 0 0-.063.219q-.002.064.031.109.03-.045.047-.078.03-.03.063-.078m7.406-7.719q0-.154-.078-.156c-.055 0-.078.027-.078.078q0 .034.015.062.031.018.032.047a.2.2 0 0 0 .11-.031m-7.516 4.047.032.11.047-.079Zm0 0"/><path fill="#ffbd59" d="M63.935 26.248a5.6 5.6 0 0 0 .531-.687 3.8 3.8 0 0 0 .391-.797q.17-.516.547-.844.388-.328.765-.61.388-.293.5-.702.405-.406.829-.875a2.9 2.9 0 0 1 1-.72c.238-.1.441-.25.609-.437a.9.9 0 0 1 .703-.297q.95 0 2.11.422 1.17.425 2.03 1.188.858.75.86 1.734a.7.7 0 0 1-.031.188 1 1 0 0 0-.016.187q-.001.174.016.344.03.157.031.344 0 .688-.516 1.062-.251.143-.421.485-.158.345-.375.609c-.125.117-.25.234-.375.36a2.3 2.3 0 0 0-.329.468c-.117.25-.406.59-.875 1.016a8.2 8.2 0 0 1-1.656 1.14q-.971.516-1.984.516a3.6 3.6 0 0 1-.75-.078 4 4 0 0 0-.781-.078c-.344 0-.555.199-.625.593q-.111.582-.11 1.016 0 .797.094 1.922c.062.742.187 1.39.375 1.953.195.555.516.828.953.828q.404.001.86-.25.45-.264.75-.515c1-.801 1.976-1.598 2.937-2.391q1.435-1.185 2.86-2.422c.144-.125.382-.351.718-.687a9 9 0 0 1 1.156-.97q.638-.451 1.188-.452.188 0 .375.093.201.082.203.297-.002.376-.578.688-.581.299-.875.484s-.102.09-.297.266l-.688.61q-.41.361-.703.671-.28.315-.28.453c0 .149-.056.328-.157.547q-.141.328-.422.328-.517.27-.906.797c-.25.344-.477.68-.672 1q-.281.471-.61.578-.221.081-.718.578-.487.486-1.078 1.094-.58.597-1.094 1.047c-.336.305-.574.453-.719.453a.73.73 0 0 1-.375-.11q-.174.114-.344.22a4 4 0 0 1-.343.218 22 22 0 0 1-1.829-.25q-.767-.152-1.343-.984-.14-.327-.328-.438a1.6 1.6 0 0 1-.563-.562 5 5 0 0 1-.375-.75 3 3 0 0 1-.125-.406q-.002-.105.031-.235a.8.8 0 0 0 .047-.281q-.002-.246-.203-.469-.204-.216-.203-.437 0-.077.047-.188a.45.45 0 0 0 .062-.219.75.75 0 0 0-.078-.328 1 1 0 0 1-.062-.359q0-.141.093-.281a.57.57 0 0 0 .094-.297.77.77 0 0 0-.14-.406.84.84 0 0 1-.125-.438q0-.356.015-.953.029-.61.11-1.172.091-.576.312-.86.406-.48.453-1.218c.04-.5.196-.945.469-1.344-.105.149-.156.281-.156.406 0 .075.023.137.078.188q.029-.047.062-.047.047.001.047-.11c0-.07-.008-.144-.015-.218a1 1 0 0 0-.063-.219m3.469 1.828q.515-.076 1.234-.312a8 8 0 0 0 1.485-.656q.749-.422 1.234-1.047.499-.638.5-1.516-.001-.481-.172-1.062c-.105-.383-.34-.579-.703-.579q-.925 0-1.703.61a6.7 6.7 0 0 0-1.39 1.453 8.4 8.4 0 0 0-.923 1.64q-.328.785-.328 1.141 0 .189.156.219.17.034.61.11m0 0"/><path fill="#ffbd59" d="M89.211 34.748a.82.82 0 0 1 .328.688q0 .702-.422 1.125c-.28.273-.68.406-1.187.406q-.362 0-.531-.563a6 6 0 0 1-.204-.968q-.69 0-1.093.375a9 9 0 0 0-.766.812q-.363.458-.984.75a3.9 3.9 0 0 0-1.407 1.016q-.564.655-1.14.984-.626.218-1.094 1.11a23 23 0 0 1-.906 1.593 1.4 1.4 0 0 0-.219.766q0 .405-.078.797 0 .263.281.375c.196.07.36.11.485.11.144 0 .289-.024.437-.063q.218-.047.406-.047.105 0 .188.015.093.014.203.016.403-.001.531-.297.124-.282.313-.64.186-.346.625-.454c.508-.117.86-.414 1.047-.89q.293-.705.593-1.516.28-.44.813-1.203c.351-.508.531-.93.531-1.266v.032q.075 0 .25-.282.187-.294.39-.593.2-.295.235-.297c.195 0 .313.074.344.219q.058.222.094.468.03.235.14.235.077.001.188-.016a1 1 0 0 1 .25-.031q.264 0 .265.219-.002.439-.437.859-.439.42-1.14.828a.7.7 0 0 1-.204-.031 3 3 0 0 1-.187-.047l.03.031.032.047-.031-.11q.106.029.406.11-.002.575-.062 1.063-.048.499-.563.687-.33.03-.344.469-.016.435-.39.578a.64.64 0 0 0-.39.484 3 3 0 0 1-.142.594q-.082.282-.562.281-.362-.001-.484.36-.13.357-.422.437a2.1 2.1 0 0 0-.688.406c-.437.333-.82.536-1.14.61-.313.07-.688.11-1.125.11q-.58 0-.766.327-.187.329-.516.328-.438 0-.906-.515a4.9 4.9 0 0 1-.781-1.11q-.315-.596-.313-.921 0-.08.235-.547.233-.47.39-.875c.02-.094.11-.43.266-1q.232-.86.781-1.844a4 4 0 0 1 1.469-1.531q.466-.294.687-.75.217-.452.844-.594.544-.154.906-.531.36-.389.594-.719.246-.328.422-.328.375-.06.563-.266c.132-.133.265-.27.39-.406q.186-.201.547-.203a.79.79 0 0 0 .656-.328q.247-.327.547-.688.295-.357.766-.469.731-.186 1-.718.279-.528.36-1.313.092-.78.25-1.687c0-.25-.087-.485-.25-.703a.74.74 0 0 0-.626-.329q-.158 0-.281.047a1 1 0 0 1-.234.032.76.76 0 0 1-.329-.094.8.8 0 0 0-.359-.094q-.375 0-.937.375-.562.363-1.407.61-.58.187-.875.374a27 27 0 0 0-.875.579 4 4 0 0 1-.328-.157.5.5 0 0 0-.25-.093l-.344.25q-.344.252-.953.515-.597.251-1.359.25-.157.002-.25-.265c-.055-.188-.14-.317-.266-.391q-.878-.327-1.468-.813-.58-.499-.579-1.296c0-.051.008-.11.032-.172a.4.4 0 0 0 .047-.157c0-.125-.024-.242-.063-.359a1.5 1.5 0 0 1-.047-.375 1.2 1.2 0 0 1 .14-.562q.155-.282.157-.563.029-.623.344-1.062.31-.434.672-.797.187-.187.562-.578.388-.405.688-.75l.312-.36q.154-.5.5-.64.34-.154.703-.313.375-.17.516-.64c.07-.22.3-.415.687-.594q.593-.282.875-.75.406-.655.875-1.016c.32-.25.641-.531.954-.844q.403.063 1.093.157.686.093 1.266.375c.395.18.617.484.672.921a.7.7 0 0 1-.078.297q-.082.142-.188.172-.767.112-1.406.688a7 7 0 0 0-1.031 1.14 3.4 3.4 0 0 1-.813.641c-.312.18-.617.414-.906.703q-.44.439-.688 1.313c-.074.273-.292.515-.656.734q-.55.328-.734.984a3.4 3.4 0 0 1-.39.625q-.268.363-.266.578 0 .251.328.25a.5.5 0 0 0 .218-.03c.907-.25 1.961-.536 3.172-.86q1.83-.499 3.938-.5 1.06 0 1.61.281.545.269 1.124.86.154.363.11.75-.035.377.265.671c.07-.05.156-.113.25-.187.094-.07.164-.11.219-.11q.218.001.266.5l.093.782c.22.023.336.105.36.25q.045.22.172.406.124.174.64.172.388 0 .688-.14.513-.248 1.015-.22.516.036.985-.14a7 7 0 0 0 .672.125q.42.048.75.203.328.14.328.469c0 .242-.14.468-.422.687-.274.219-.516.328-.735.328-.105 0-.203-.007-.296-.03a1.5 1.5 0 0 0-.297-.032q-.363 0-1.172.172a6.8 6.8 0 0 0-1.531.5q-.72.345-.938.89-.11.222-.39.22-.083 0-.188-.017c-.074-.007-.137-.015-.188-.015q-.174 0-.53.234c-.231.156-.438.352-.626.578-.18.23-.265.453-.265.672q0 .08.015.172.03.096.031.156-.001.188-.218.188-.112.001-.219-.016-.111-.014-.188-.015-.578 0-.578.687-.002.469.172.797a1 1 0 0 1-.203-.078.28.28 0 0 0-.156-.063q-.142.002-.172.078a1 1 0 0 1-.078.172q.497 0 .578-.234.075-.234.11-.703c0-.102-.008-.192-.016-.266a1.6 1.6 0 0 1-.016-.25m0 0"/><path fill="#ffbd59" d="M108.096 34.748a.82.82 0 0 1 .329.688q0 .702-.422 1.125-.424.408-1.188.406-.362 0-.531-.563a6 6 0 0 1-.203-.968q-.69 0-1.094.375a9 9 0 0 0-.766.812q-.363.458-.984.75a3.9 3.9 0 0 0-1.406 1.016c-.375.437-.758.765-1.14.984q-.627.218-1.095 1.11a23 23 0 0 1-.906 1.593 1.4 1.4 0 0 0-.219.766q0 .405-.078.797 0 .263.282.375c.195.07.359.11.484.11.144 0 .289-.024.437-.063q.218-.047.407-.047.105 0 .187.015.094.014.203.016.404-.001.532-.297.124-.282.312-.64.187-.346.625-.454c.508-.117.86-.414 1.047-.89q.293-.705.594-1.516.28-.44.812-1.203.53-.762.531-1.266v.032q.076 0 .25-.282.187-.294.391-.593.2-.295.234-.297.296 0 .344.219.059.222.094.468.03.235.14.235.077.001.188-.016a1 1 0 0 1 .25-.031q.265 0 .266.219c0 .293-.149.578-.438.859q-.439.42-1.14.828a.7.7 0 0 1-.204-.031 3 3 0 0 1-.187-.047l.031.031.031.047-.03-.11.405.11q-.002.575-.062 1.063-.047.499-.563.687c-.218.02-.336.176-.343.469q-.016.435-.39.578a.64.64 0 0 0-.392.484 3 3 0 0 1-.14.594q-.082.282-.563.281-.362-.001-.484.36-.13.357-.422.437a2.1 2.1 0 0 0-.687.406q-.658.5-1.141.61c-.313.07-.688.11-1.125.11q-.579 0-.766.327-.188.329-.515.328-.438 0-.907-.515a4.9 4.9 0 0 1-.78-1.11c-.212-.398-.313-.703-.313-.921q0-.08.234-.547.233-.47.39-.875c.02-.094.11-.43.266-1 .157-.574.414-1.188.782-1.844a4 4 0 0 1 1.468-1.531q.468-.294.688-.75.217-.452.844-.594.544-.154.906-.531.358-.389.594-.719.246-.328.421-.328.375-.06.563-.266c.133-.133.266-.27.39-.406.126-.133.305-.203.547-.203a.79.79 0 0 0 .657-.328q.246-.327.547-.688c.195-.238.453-.394.765-.469q.731-.186 1-.718c.188-.352.305-.79.36-1.313q.092-.78.25-1.687c0-.25-.086-.485-.25-.703a.74.74 0 0 0-.625-.329q-.159 0-.282.047a1 1 0 0 1-.234.032.76.76 0 0 1-.328-.094.8.8 0 0 0-.36-.094q-.375 0-.937.375-.563.363-1.406.61-.581.187-.875.374a27 27 0 0 0-.875.579 4 4 0 0 1-.328-.157.5.5 0 0 0-.25-.093l-.344.25q-.345.252-.953.515-.598.251-1.36.25-.157.002-.25-.265-.08-.281-.265-.391-.878-.327-1.47-.813-.578-.499-.577-1.296-.002-.078.031-.172a.4.4 0 0 0 .047-.157c0-.125-.024-.242-.063-.359a1.5 1.5 0 0 1-.046-.375 1.2 1.2 0 0 1 .14-.562q.155-.282.156-.563.029-.623.344-1.062.31-.434.672-.797.188-.187.563-.578.387-.405.687-.75l.313-.36q.153-.5.5-.64.339-.154.703-.313.375-.17.515-.64c.07-.22.301-.415.688-.594q.592-.282.875-.75.405-.655.875-1.016.482-.375.953-.844.404.063 1.094.157.686.093 1.265.375c.395.18.617.484.672.921a.7.7 0 0 1-.078.297q-.082.142-.187.172-.767.112-1.407.688a7 7 0 0 0-1.03 1.14 3.4 3.4 0 0 1-.813.641q-.471.27-.907.703-.44.439-.687 1.313c-.074.273-.293.515-.656.734-.368.219-.61.547-.735.984a3.4 3.4 0 0 1-.39.625c-.18.243-.266.434-.266.578q0 .251.328.25a.5.5 0 0 0 .219-.03c.906-.25 1.96-.536 3.172-.86q1.827-.499 3.937-.5 1.06 0 1.61.281.545.269 1.125.86.153.363.109.75-.035.377.266.671c.07-.05.156-.113.25-.187.093-.07.164-.11.218-.11q.218.001.266.5l.094.782q.326.034.36.25.044.22.17.406.125.174.642.172.387 0 .687-.14.514-.248 1.016-.22.515.036.984-.14a7 7 0 0 0 .672.125q.422.048.75.203.328.14.328.469c0 .242-.14.468-.422.687q-.407.328-.734.328c-.106 0-.203-.007-.297-.03a1.5 1.5 0 0 0-.297-.032q-.363 0-1.172.172a6.8 6.8 0 0 0-1.531.5q-.72.345-.938.89-.11.222-.39.22-.082 0-.188-.017c-.074-.007-.136-.015-.187-.015q-.175 0-.531.234c-.23.156-.438.352-.625.578-.18.23-.266.453-.266.672q-.001.08.016.172.03.096.03.156 0 .188-.218.188-.112.001-.219-.016-.11-.014-.187-.015-.58 0-.578.687c0 .313.054.578.172.797a1 1 0 0 1-.204-.078.28.28 0 0 0-.156-.063q-.141.002-.172.078a1 1 0 0 1-.078.172q.498 0 .578-.234.075-.234.11-.703c0-.102-.008-.192-.016-.266a1.6 1.6 0 0 1-.016-.25m0 0"/></g><g fill="#14cec7" clip-path="url(#d)" transform="translate(14 91)"><path d="M14.588 20.285v3.672q0 3.364-1.641 5.157-1.643 1.797-4.844 1.796-3.204.001-4.844-1.796-1.64-1.793-1.64-5.157V9.582q0-3.357 1.64-5.156C4.353 3.231 5.966 2.63 8.103 2.63c2.133 0 3.75.602 4.844 1.797q1.64 1.8 1.64 5.156v2.688h-4.109V9.3q-.001-1.5-.625-2.11-.61-.609-1.625-.609c-.687 0-1.242.203-1.656.61q-.61.61-.61 2.11v14.937q0 1.501.61 2.093c.414.399.969.594 1.656.594.676 0 1.219-.195 1.625-.594q.623-.592.625-2.093v-3.954ZM21.209 24.239q0 1.5.609 2.109c.414.406.969.61 1.656.61q1.015 0 1.625-.61.623-.61.625-2.11V9.302q-.001-1.5-.625-2.11-.61-.609-1.625-.609c-.687 0-1.242.203-1.656.61q-.61.61-.61 2.11ZM16.865 9.582q-.001-3.357 1.703-5.156c1.133-1.195 2.77-1.797 4.906-1.797 2.125 0 3.754.602 4.89 1.797q1.703 1.8 1.704 5.156v14.375q-.002 3.364-1.703 5.157-1.705 1.797-4.89 1.796-3.207.001-4.907-1.796-1.704-1.793-1.703-5.157ZM46.928 30.598h-4.39l-.75-5.016h-5.329l-.75 5.016h-3.984l4.422-27.656h6.359Zm-9.906-8.766h4.187L39.115 7.848ZM61.55 20.285v3.672q0 3.364-1.64 5.157-1.643 1.797-4.844 1.796-3.204.001-4.844-1.796-1.64-1.793-1.64-5.157V9.582q0-3.357 1.64-5.156c1.094-1.195 2.707-1.797 4.844-1.797 2.133 0 3.75.602 4.844 1.797q1.64 1.8 1.64 5.156v2.688h-4.11V9.3q-.001-1.5-.624-2.11-.61-.609-1.625-.609-1.033 0-1.656.61-.61.61-.61 2.11v14.937q0 1.501.61 2.093c.414.399.968.594 1.656.594.676 0 1.219-.195 1.625-.594.414-.394.625-1.093.625-2.093v-3.954ZM68.53 30.598h-4.343V2.942h4.344v11.86h4.937V2.941h4.422v27.656h-4.422V18.754h-4.937ZM81.052 2.942h4.344v27.656h-4.344ZM92.432 10.567v20.03h-3.906V2.943h5.437l4.469 16.562V2.942h3.875v27.656h-4.469ZM111.938 15.192h6.094v8.765q0 3.364-1.64 5.157-1.644 1.797-4.845 1.796-3.204.001-4.843-1.796-1.641-1.793-1.641-5.157V9.582q0-3.357 1.64-5.156c1.094-1.195 2.708-1.797 4.844-1.797 2.133 0 3.75.602 4.844 1.797q1.64 1.8 1.64 5.156v2.688h-4.109V9.3q-.001-1.5-.625-2.11-.61-.609-1.625-.609c-.687 0-1.242.203-1.656.61q-.61.61-.61 2.11v14.937q0 1.501.61 2.093c.414.399.969.594 1.656.594.676 0 1.22-.195 1.625-.594.414-.394.625-1.093.625-2.093v-5.094h-1.984Zm0 0"/></g></svg>
