<svg xmlns="http://www.w3.org/2000/svg" xmlns:xlink="http://www.w3.org/1999/xlink" width="192" zoomAndPan="magnify" viewBox="0 0 144 143.999998" height="192" preserveAspectRatio="xMidYMid meet" version="1.0"><defs><g/><clipPath id="31e1f244f9"><rect x="0" width="112" y="0" height="46"/></clipPath><clipPath id="3b822af918"><path d="M 0.601562 12 L 18 12 L 18 42 L 0.601562 42 Z M 0.601562 12 " clip-rule="nonzero"/></clipPath><clipPath id="7fc6297954"><rect x="0" width="118" y="0" height="59"/></clipPath><clipPath id="07e2b916ea"><rect x="0" width="120" y="0" height="41"/></clipPath></defs><rect x="-14.4" width="172.8" fill="#ffffff" y="-14.4" height="172.799997" fill-opacity="1"/><rect x="-14.4" width="172.8" fill="#118c8d" y="-14.4" height="172.799997" fill-opacity="1"/><g transform="matrix(1, 0, 0, 1, 18, 11)"><g clip-path="url(#31e1f244f9)"><g fill="#14cec7" fill-opacity="1"><g transform="translate(0.0133413, 33.870052)"><g><path d="M 1.140625 -23.328125 C 1.140625 -25.816406 1.726562 -27.722656 2.90625 -29.046875 C 4.09375 -30.378906 5.875 -31.046875 8.25 -31.046875 C 10.613281 -31.046875 12.382812 -30.378906 13.5625 -29.046875 C 14.75 -27.722656 15.34375 -25.816406 15.34375 -23.328125 L 15.34375 -22.15625 L 10.796875 -22.15625 L 10.796875 -23.640625 C 10.796875 -24.753906 10.582031 -25.535156 10.15625 -25.984375 C 9.726562 -26.441406 9.132812 -26.671875 8.375 -26.671875 C 7.613281 -26.671875 7.019531 -26.441406 6.59375 -25.984375 C 6.175781 -25.535156 5.96875 -24.753906 5.96875 -23.640625 C 5.96875 -22.585938 6.203125 -21.660156 6.671875 -20.859375 C 7.140625 -20.054688 7.722656 -19.296875 8.421875 -18.578125 C 9.117188 -17.859375 9.867188 -17.140625 10.671875 -16.421875 C 11.484375 -15.703125 12.238281 -14.921875 12.9375 -14.078125 C 13.632812 -13.234375 14.21875 -12.269531 14.6875 -11.1875 C 15.15625 -10.101562 15.390625 -8.832031 15.390625 -7.375 C 15.390625 -4.882812 14.78125 -2.972656 13.5625 -1.640625 C 12.351562 -0.316406 10.566406 0.34375 8.203125 0.34375 C 5.835938 0.34375 4.046875 -0.316406 2.828125 -1.640625 C 1.617188 -2.972656 1.015625 -4.882812 1.015625 -7.375 L 1.015625 -9.46875 L 5.5625 -9.46875 L 5.5625 -7.0625 C 5.5625 -5.945312 5.789062 -5.171875 6.25 -4.734375 C 6.707031 -4.296875 7.3125 -4.078125 8.0625 -4.078125 C 8.820312 -4.078125 9.425781 -4.296875 9.875 -4.734375 C 10.332031 -5.171875 10.5625 -5.945312 10.5625 -7.0625 C 10.5625 -8.113281 10.328125 -9.039062 9.859375 -9.84375 C 9.398438 -10.644531 8.816406 -11.40625 8.109375 -12.125 C 7.410156 -12.84375 6.660156 -13.554688 5.859375 -14.265625 C 5.054688 -14.984375 4.300781 -15.765625 3.59375 -16.609375 C 2.894531 -17.460938 2.3125 -18.429688 1.84375 -19.515625 C 1.375 -20.597656 1.140625 -21.867188 1.140625 -23.328125 Z M 1.140625 -23.328125 "/></g></g></g><g fill="#14cec7" fill-opacity="1"><g transform="translate(16.417134, 33.870052)"><g><path d="M 0.4375 -30.703125 L 15.34375 -30.703125 L 15.34375 -26.3125 L 10.3125 -26.3125 L 10.3125 0 L 5.484375 0 L 5.484375 -26.3125 L 0.4375 -26.3125 Z M 0.4375 -30.703125 "/></g></g></g><g fill="#14cec7" fill-opacity="1"><g transform="translate(32.206885, 33.870052)"><g><path d="M 17.375 0 L 12.5 0 L 11.671875 -5.5625 L 5.75 -5.5625 L 4.90625 0 L 0.484375 0 L 5.390625 -30.703125 L 12.453125 -30.703125 Z M 6.359375 -9.734375 L 11.015625 -9.734375 L 8.6875 -25.265625 Z M 6.359375 -9.734375 "/></g></g></g><g fill="#14cec7" fill-opacity="1"><g transform="translate(50.058071, 33.870052)"><g><path d="M 6.265625 -10.171875 L 0.171875 -30.703125 L 5.21875 -30.703125 L 8.90625 -16.703125 L 12.59375 -30.703125 L 17.1875 -30.703125 L 11.09375 -10.171875 L 11.09375 0 L 6.265625 0 Z M 6.265625 -10.171875 "/></g></g></g><g fill="#14cec7" fill-opacity="1"><g transform="translate(67.426787, 33.870052)"><g><path d="M 1.75 -30.703125 L 6.578125 -30.703125 L 6.578125 0 L 1.75 0 Z M 1.75 -30.703125 "/></g></g></g><g fill="#14cec7" fill-opacity="1"><g transform="translate(75.760264, 33.870052)"><g><path d="M 6.046875 -22.234375 L 6.046875 0 L 1.703125 0 L 1.703125 -30.703125 L 7.765625 -30.703125 L 12.71875 -12.328125 L 12.71875 -30.703125 L 17.015625 -30.703125 L 17.015625 0 L 12.0625 0 Z M 6.046875 -22.234375 "/></g></g></g><g fill="#14cec7" fill-opacity="1"><g transform="translate(94.488653, 33.870052)"><g><path d="M 8.984375 -17.109375 L 15.75 -17.109375 L 15.75 -7.375 C 15.75 -4.882812 15.140625 -2.972656 13.921875 -1.640625 C 12.710938 -0.316406 10.921875 0.34375 8.546875 0.34375 C 6.179688 0.34375 4.390625 -0.316406 3.171875 -1.640625 C 1.960938 -2.972656 1.359375 -4.882812 1.359375 -7.375 L 1.359375 -23.328125 C 1.359375 -25.816406 1.960938 -27.722656 3.171875 -29.046875 C 4.390625 -30.378906 6.179688 -31.046875 8.546875 -31.046875 C 10.921875 -31.046875 12.710938 -30.378906 13.921875 -29.046875 C 15.140625 -27.722656 15.75 -25.816406 15.75 -23.328125 L 15.75 -20.34375 L 11.1875 -20.34375 L 11.1875 -23.640625 C 11.1875 -24.753906 10.957031 -25.535156 10.5 -25.984375 C 10.050781 -26.441406 9.445312 -26.671875 8.6875 -26.671875 C 7.925781 -26.671875 7.316406 -26.441406 6.859375 -25.984375 C 6.410156 -25.535156 6.1875 -24.753906 6.1875 -23.640625 L 6.1875 -7.0625 C 6.1875 -5.945312 6.410156 -5.171875 6.859375 -4.734375 C 7.316406 -4.296875 7.925781 -4.078125 8.6875 -4.078125 C 9.445312 -4.078125 10.050781 -4.296875 10.5 -4.734375 C 10.957031 -5.171875 11.1875 -5.945312 11.1875 -7.0625 L 11.1875 -12.71875 L 8.984375 -12.71875 Z M 8.984375 -17.109375 "/></g></g></g></g></g><g transform="matrix(1, 0, 0, 1, 15, 37)"><g clip-path="url(#7fc6297954)"><g clip-path="url(#3b822af918)"><g fill="#ffbd59" fill-opacity="1"><g transform="translate(0.64891, 39.123247)"><g><path d="M 3.203125 -9.65625 C 3.273438 -10.4375 3.316406 -11.054688 3.328125 -11.515625 C 3.347656 -11.984375 3.523438 -12.472656 3.859375 -12.984375 C 4.003906 -13.171875 4.113281 -13.476562 4.1875 -13.90625 C 4.257812 -14.332031 4.347656 -14.796875 4.453125 -15.296875 C 4.566406 -15.796875 4.722656 -16.226562 4.921875 -16.59375 C 4.992188 -16.78125 5.078125 -16.957031 5.171875 -17.125 C 5.273438 -17.300781 5.335938 -17.5 5.359375 -17.71875 C 5.378906 -17.9375 5.46875 -18.117188 5.625 -18.265625 C 5.789062 -18.410156 5.882812 -18.59375 5.90625 -18.8125 C 5.925781 -19 5.945312 -19.21875 5.96875 -19.46875 C 6 -19.726562 6.0625 -19.945312 6.15625 -20.125 C 6.5 -20.65625 6.800781 -21.296875 7.0625 -22.046875 C 7.332031 -22.804688 7.617188 -23.550781 7.921875 -24.28125 C 8.234375 -25.007812 8.597656 -25.613281 9.015625 -26.09375 C 9.441406 -26.582031 9.984375 -26.828125 10.640625 -26.828125 C 10.742188 -26.828125 10.847656 -26.828125 10.953125 -26.828125 C 11.066406 -26.828125 11.171875 -26.828125 11.265625 -26.828125 C 11.773438 -26.828125 12.175781 -26.640625 12.46875 -26.265625 C 12.757812 -25.890625 12.976562 -25.414062 13.125 -24.84375 C 13.269531 -24.269531 13.359375 -23.6875 13.390625 -23.09375 C 13.429688 -22.5 13.453125 -21.984375 13.453125 -21.546875 C 13.453125 -21.222656 13.453125 -20.988281 13.453125 -20.84375 C 13.453125 -20.695312 13.425781 -20.539062 13.375 -20.375 C 13.644531 -19.957031 13.800781 -19.394531 13.84375 -18.6875 C 13.894531 -17.988281 13.945312 -17.363281 14 -16.8125 C 14.070312 -16.414062 14.15625 -16.039062 14.25 -15.6875 C 14.351562 -15.34375 14.40625 -14.960938 14.40625 -14.546875 C 14.40625 -14.347656 14.394531 -14.148438 14.375 -13.953125 C 14.363281 -13.765625 14.359375 -13.570312 14.359375 -13.375 C 14.359375 -12.675781 14.472656 -12.019531 14.703125 -11.40625 C 14.941406 -10.800781 15.289062 -10.144531 15.75 -9.4375 C 15.675781 -9.25 15.601562 -9.054688 15.53125 -8.859375 C 15.457031 -8.660156 15.382812 -8.46875 15.3125 -8.28125 C 15.40625 -7.914062 15.492188 -7.476562 15.578125 -6.96875 C 15.671875 -6.457031 15.765625 -5.988281 15.859375 -5.5625 C 15.953125 -5.132812 16.050781 -4.847656 16.15625 -4.703125 C 16.269531 -4.554688 16.363281 -4.28125 16.4375 -3.875 C 16.507812 -3.476562 16.578125 -3.054688 16.640625 -2.609375 C 16.703125 -2.160156 16.796875 -1.765625 16.921875 -1.421875 C 17.035156 -1.054688 17.109375 -0.6875 17.140625 -0.3125 C 17.179688 0.0625 17.203125 0.457031 17.203125 0.875 C 17.109375 0.945312 17.007812 1.015625 16.90625 1.078125 C 16.8125 1.140625 16.71875 1.191406 16.625 1.234375 C 16.382812 1.429688 16.09375 1.695312 15.75 2.03125 C 15.40625 2.375 15.101562 2.546875 14.84375 2.546875 C 14.664062 2.546875 14.53125 2.453125 14.4375 2.265625 C 14.34375 2.085938 14.234375 1.960938 14.109375 1.890625 C 13.648438 1.628906 13.347656 1.285156 13.203125 0.859375 C 13.054688 0.429688 12.945312 0 12.875 -0.4375 C 12.800781 -0.820312 12.695312 -1.191406 12.5625 -1.546875 C 12.425781 -1.898438 12.359375 -2.304688 12.359375 -2.765625 C 12.359375 -2.835938 12.363281 -2.910156 12.375 -2.984375 C 12.382812 -3.054688 12.390625 -3.128906 12.390625 -3.203125 C 12.390625 -3.398438 12.363281 -3.765625 12.3125 -4.296875 C 12.269531 -4.835938 12.191406 -5.40625 12.078125 -6 C 11.972656 -6.59375 11.828125 -7.109375 11.640625 -7.546875 C 11.460938 -7.984375 11.253906 -8.203125 11.015625 -8.203125 C 10.816406 -8.203125 10.550781 -8.144531 10.21875 -8.03125 C 9.894531 -7.925781 9.597656 -7.835938 9.328125 -7.765625 C 9.160156 -7.566406 8.941406 -7.46875 8.671875 -7.46875 C 8.410156 -7.46875 8.179688 -7.394531 7.984375 -7.25 C 7.890625 -7.175781 7.789062 -7.140625 7.6875 -7.140625 C 7.613281 -7.140625 7.546875 -7.144531 7.484375 -7.15625 C 7.429688 -7.175781 7.367188 -7.195312 7.296875 -7.21875 C 7.191406 -7.21875 6.96875 -7.117188 6.625 -6.921875 C 6.289062 -6.734375 5.941406 -6.640625 5.578125 -6.640625 C 5.234375 -6.640625 4.929688 -6.394531 4.671875 -5.90625 C 4.421875 -5.414062 4.203125 -4.832031 4.015625 -4.15625 C 3.835938 -3.476562 3.671875 -2.828125 3.515625 -2.203125 C 3.359375 -1.585938 3.207031 -1.144531 3.0625 -0.875 C 3.007812 -0.75 2.890625 -0.472656 2.703125 -0.046875 C 2.523438 0.367188 2.289062 0.769531 2 1.15625 C 1.707031 1.550781 1.367188 1.75 0.984375 1.75 C 0.765625 1.75 0.546875 1.65625 0.328125 1.46875 C 0.109375 1.289062 0 1.101562 0 0.90625 C 0 0.832031 0.0078125 0.773438 0.03125 0.734375 C 0.226562 0.242188 0.429688 -0.296875 0.640625 -0.890625 C 0.847656 -1.484375 1 -2.070312 1.09375 -2.65625 C 1.1875 -3.125 1.320312 -3.660156 1.5 -4.265625 C 1.6875 -4.867188 1.863281 -5.488281 2.03125 -6.125 C 2.207031 -6.757812 2.296875 -7.332031 2.296875 -7.84375 C 2.296875 -8.082031 2.238281 -8.320312 2.125 -8.5625 C 2.019531 -8.8125 1.96875 -9.054688 1.96875 -9.296875 C 1.96875 -9.515625 2.066406 -9.625 2.265625 -9.625 C 2.359375 -9.625 2.445312 -9.617188 2.53125 -9.609375 C 2.613281 -9.597656 2.707031 -9.59375 2.8125 -9.59375 C 2.882812 -9.59375 3.015625 -9.613281 3.203125 -9.65625 Z M 7.46875 -15.78125 C 7.46875 -15.613281 7.46875 -15.453125 7.46875 -15.296875 C 7.46875 -15.140625 7.445312 -14.988281 7.40625 -14.84375 C 7.375 -14.664062 7.253906 -14.375 7.046875 -13.96875 C 6.847656 -13.570312 6.644531 -13.117188 6.4375 -12.609375 C 6.226562 -12.097656 6.125 -11.566406 6.125 -11.015625 C 6.125 -10.835938 6.132812 -10.644531 6.15625 -10.4375 C 6.1875 -10.238281 6.285156 -10.140625 6.453125 -10.140625 C 7.085938 -10.140625 7.75 -10.210938 8.4375 -10.359375 C 9.132812 -10.503906 9.796875 -10.625 10.421875 -10.71875 C 10.691406 -10.84375 10.847656 -10.992188 10.890625 -11.171875 C 10.941406 -11.359375 10.96875 -11.5625 10.96875 -11.78125 C 10.96875 -12.675781 10.835938 -13.703125 10.578125 -14.859375 C 10.328125 -16.015625 10.203125 -17.113281 10.203125 -18.15625 C 10.203125 -18.25 10.21875 -18.332031 10.25 -18.40625 C 10.25 -18.40625 10.25 -18.398438 10.25 -18.390625 C 10.25 -18.378906 10.25 -18.375 10.25 -18.375 C 10.25 -18.375 10.210938 -18.523438 10.140625 -18.828125 C 10.066406 -19.128906 9.976562 -19.4375 9.875 -19.75 C 9.78125 -20.070312 9.695312 -20.234375 9.625 -20.234375 C 9.570312 -20.234375 9.445312 -20.050781 9.25 -19.6875 C 9.0625 -19.320312 8.890625 -18.929688 8.734375 -18.515625 C 8.578125 -18.097656 8.5 -17.796875 8.5 -17.609375 C 8.5 -16.828125 8.15625 -16.21875 7.46875 -15.78125 Z M 7.46875 -15.78125 "/></g></g></g></g><g fill="#ffbd59" fill-opacity="1"><g transform="translate(19.680086, 39.123247)"><g><path d="M 14.4375 -1.859375 C 14.675781 -1.765625 14.796875 -1.617188 14.796875 -1.421875 C 14.796875 -1.253906 14.679688 -1 14.453125 -0.65625 C 14.222656 -0.3125 14 -0.101562 13.78125 -0.03125 C 14.019531 0.132812 14.140625 0.265625 14.140625 0.359375 C 14.140625 0.460938 14.066406 0.578125 13.921875 0.703125 C 13.773438 0.835938 13.703125 0.976562 13.703125 1.125 C 13.703125 1.226562 13.769531 1.300781 13.90625 1.34375 C 14.039062 1.394531 14.109375 1.46875 14.109375 1.5625 C 14.109375 1.707031 14.019531 1.84375 13.84375 1.96875 C 13.675781 2.09375 13.59375 2.25 13.59375 2.4375 C 13.59375 2.539062 13.617188 2.632812 13.671875 2.71875 C 13.722656 2.800781 13.75 2.878906 13.75 2.953125 C 13.75 3.117188 13.71875 3.273438 13.65625 3.421875 C 13.59375 3.566406 13.550781 3.710938 13.53125 3.859375 C 13.53125 3.910156 13.429688 4.019531 13.234375 4.1875 C 13.035156 4.363281 12.9375 4.582031 12.9375 4.84375 C 12.9375 5.09375 12.96875 5.289062 13.03125 5.4375 C 13.09375 5.582031 13.125 5.738281 13.125 5.90625 C 13.125 6.21875 13.050781 6.660156 12.90625 7.234375 C 12.757812 7.804688 12.613281 8.351562 12.46875 8.875 C 12.320312 9.394531 12.25 9.742188 12.25 9.921875 C 12.25 9.992188 12.257812 10.039062 12.28125 10.0625 C 12.28125 10.28125 12.207031 10.539062 12.0625 10.84375 C 11.914062 11.144531 11.769531 11.421875 11.625 11.671875 C 11.476562 11.929688 11.40625 12.113281 11.40625 12.21875 C 11.40625 12.289062 11.429688 12.363281 11.484375 12.4375 C 11.535156 12.507812 11.5625 12.582031 11.5625 12.65625 C 11.5625 12.769531 11.507812 12.875 11.40625 12.96875 C 11.3125 13.070312 11.265625 13.1875 11.265625 13.3125 C 11.242188 13.75 11.097656 14.191406 10.828125 14.640625 C 10.554688 15.085938 10.421875 15.46875 10.421875 15.78125 C 10.421875 15.832031 10.429688 15.890625 10.453125 15.953125 C 10.484375 16.015625 10.5 16.066406 10.5 16.109375 C 10.5 16.253906 10.4375 16.394531 10.3125 16.53125 C 10.195312 16.664062 10.140625 16.804688 10.140625 16.953125 C 10.140625 17.773438 9.851562 18.4375 9.28125 18.9375 C 8.707031 19.4375 8.046875 19.6875 7.296875 19.6875 C 7.097656 19.6875 6.894531 19.664062 6.6875 19.625 C 6.476562 19.59375 6.28125 19.523438 6.09375 19.421875 C 5.457031 18.984375 4.90625 18.570312 4.4375 18.1875 C 3.976562 17.800781 3.628906 17.28125 3.390625 16.625 C 3.148438 15.96875 3.03125 15.019531 3.03125 13.78125 C 3.03125 13.363281 3.070312 12.945312 3.15625 12.53125 C 3.238281 12.125 3.28125 11.710938 3.28125 11.296875 C 3.28125 11.179688 3.320312 10.929688 3.40625 10.546875 C 3.488281 10.171875 3.597656 9.753906 3.734375 9.296875 C 3.867188 8.835938 4.015625 8.414062 4.171875 8.03125 C 4.328125 7.65625 4.476562 7.421875 4.625 7.328125 C 4.84375 7.160156 4.960938 6.945312 4.984375 6.6875 C 5.015625 6.4375 5.050781 6.179688 5.09375 5.921875 C 5.144531 5.671875 5.296875 5.457031 5.546875 5.28125 C 5.585938 5.238281 5.617188 5.179688 5.640625 5.109375 C 5.671875 5.035156 5.695312 4.972656 5.71875 4.921875 C 5.820312 4.503906 5.96875 4.179688 6.15625 3.953125 C 6.351562 3.722656 6.550781 3.414062 6.75 3.03125 C 6.96875 2.25 7.414062 1.640625 8.09375 1.203125 C 8.144531 1.179688 8.175781 1.144531 8.1875 1.09375 C 8.195312 1.039062 8.210938 1.003906 8.234375 0.984375 C 8.359375 0.566406 8.550781 0.226562 8.8125 -0.03125 C 9.082031 -0.300781 9.359375 -0.550781 9.640625 -0.78125 C 9.921875 -1.007812 10.109375 -1.269531 10.203125 -1.5625 C 10.234375 -1.664062 10.363281 -1.875 10.59375 -2.1875 C 10.820312 -2.5 11.0625 -2.804688 11.3125 -3.109375 C 11.570312 -3.421875 11.75 -3.578125 11.84375 -3.578125 C 11.914062 -3.578125 12.023438 -3.550781 12.171875 -3.5 C 12.273438 -3.769531 12.421875 -4.101562 12.609375 -4.5 C 12.804688 -4.90625 12.984375 -5.316406 13.140625 -5.734375 C 13.296875 -6.160156 13.375 -6.535156 13.375 -6.859375 C 13.375 -7.046875 13.335938 -7.21875 13.265625 -7.375 C 13.191406 -7.539062 13.15625 -7.695312 13.15625 -7.84375 C 13.15625 -8.03125 13.203125 -8.25 13.296875 -8.5 C 13.398438 -8.757812 13.453125 -9.015625 13.453125 -9.265625 C 13.453125 -9.410156 13.4375 -9.5625 13.40625 -9.71875 C 13.382812 -9.875 13.375 -10.035156 13.375 -10.203125 C 13.375 -10.566406 13.414062 -10.9375 13.5 -11.3125 C 13.59375 -11.695312 13.640625 -12.082031 13.640625 -12.46875 C 13.640625 -12.664062 13.628906 -12.882812 13.609375 -13.125 C 13.597656 -13.363281 13.519531 -13.484375 13.375 -13.484375 C 13.257812 -13.484375 13.1875 -13.4375 13.15625 -13.34375 C 13.039062 -13 12.878906 -12.734375 12.671875 -12.546875 C 12.460938 -12.367188 12.175781 -12.28125 11.8125 -12.28125 C 11.757812 -12.28125 11.710938 -12.304688 11.671875 -12.359375 C 11.597656 -12.359375 11.523438 -12.265625 11.453125 -12.078125 C 11.378906 -11.898438 11.289062 -11.707031 11.1875 -11.5 C 11.09375 -11.289062 10.984375 -11.148438 10.859375 -11.078125 C 10.859375 -11.078125 10.859375 -11.085938 10.859375 -11.109375 C 10.859375 -11.140625 10.859375 -11.15625 10.859375 -11.15625 L 10.90625 -11.125 C 10.851562 -11.050781 10.800781 -10.96875 10.75 -10.875 C 10.707031 -10.789062 10.648438 -10.726562 10.578125 -10.6875 C 10.179688 -10.582031 9.867188 -10.34375 9.640625 -9.96875 C 9.410156 -9.59375 9.140625 -9.359375 8.828125 -9.265625 C 8.554688 -9.160156 8.363281 -8.992188 8.25 -8.765625 C 8.144531 -8.535156 8.007812 -8.335938 7.84375 -8.171875 C 7.644531 -7.972656 7.472656 -7.816406 7.328125 -7.703125 C 7.179688 -7.597656 7.007812 -7.410156 6.8125 -7.140625 C 6.769531 -6.953125 6.625 -6.613281 6.375 -6.125 C 6.132812 -5.632812 5.828125 -5.175781 5.453125 -4.75 C 5.078125 -4.332031 4.679688 -4.070312 4.265625 -3.96875 C 3.148438 -3.96875 2.28125 -4.273438 1.65625 -4.890625 C 1.039062 -5.515625 0.734375 -6.363281 0.734375 -7.4375 C 0.734375 -7.925781 0.796875 -8.300781 0.921875 -8.5625 C 1.054688 -8.832031 1.160156 -9.113281 1.234375 -9.40625 C 1.304688 -9.75 1.410156 -10.078125 1.546875 -10.390625 C 1.679688 -10.703125 1.8125 -11.019531 1.9375 -11.34375 C 2.050781 -11.632812 2.253906 -11.863281 2.546875 -12.03125 C 2.835938 -12.195312 3.035156 -12.453125 3.140625 -12.796875 C 3.253906 -13.160156 3.492188 -13.472656 3.859375 -13.734375 C 4.222656 -14.003906 4.46875 -14.320312 4.59375 -14.6875 C 4.71875 -15.050781 5.039062 -15.476562 5.5625 -15.96875 C 6.082031 -16.457031 6.6875 -16.882812 7.375 -17.25 C 8.070312 -17.613281 8.722656 -17.796875 9.328125 -17.796875 C 9.691406 -17.796875 10.035156 -17.769531 10.359375 -17.71875 C 10.691406 -17.664062 11.03125 -17.601562 11.375 -17.53125 C 11.789062 -17.4375 12.148438 -17.242188 12.453125 -16.953125 C 12.753906 -16.660156 13.050781 -16.515625 13.34375 -16.515625 C 13.507812 -16.515625 13.664062 -16.625 13.8125 -16.84375 C 14.15625 -17.1875 14.335938 -17.429688 14.359375 -17.578125 C 14.390625 -17.722656 14.535156 -17.796875 14.796875 -17.796875 C 15.160156 -17.796875 15.59375 -17.734375 16.09375 -17.609375 C 16.59375 -17.484375 17.035156 -17.269531 17.421875 -16.96875 C 17.804688 -16.664062 18 -16.222656 18 -15.640625 C 18 -15.148438 17.882812 -14.570312 17.65625 -13.90625 C 17.425781 -13.238281 17.195312 -12.539062 16.96875 -11.8125 C 16.738281 -11.082031 16.625 -10.363281 16.625 -9.65625 C 16.625 -9.414062 16.535156 -9.1875 16.359375 -8.96875 C 16.191406 -8.75 16.109375 -8.519531 16.109375 -8.28125 C 16.109375 -8.03125 16.144531 -7.878906 16.21875 -7.828125 C 16.289062 -7.785156 16.398438 -7.765625 16.546875 -7.765625 C 16.796875 -7.765625 17.003906 -7.847656 17.171875 -8.015625 C 17.242188 -8.085938 17.453125 -8.207031 17.796875 -8.375 C 18.148438 -8.550781 18.546875 -8.71875 18.984375 -8.875 C 19.421875 -9.03125 19.785156 -9.109375 20.078125 -9.109375 C 20.203125 -9.109375 20.394531 -9.066406 20.65625 -8.984375 C 20.925781 -8.898438 21.171875 -8.765625 21.390625 -8.578125 C 21.609375 -8.398438 21.71875 -8.175781 21.71875 -7.90625 C 21.71875 -7.664062 21.625 -7.515625 21.4375 -7.453125 C 21.257812 -7.390625 21.070312 -7.359375 20.875 -7.359375 C 20.6875 -7.359375 20.546875 -7.3125 20.453125 -7.21875 C 20.234375 -6.976562 19.976562 -6.84375 19.6875 -6.8125 C 19.394531 -6.789062 19.113281 -6.707031 18.84375 -6.5625 C 18.28125 -6.25 17.914062 -5.972656 17.75 -5.734375 C 17.582031 -5.503906 17.328125 -5.296875 16.984375 -5.109375 C 16.816406 -4.929688 16.691406 -4.847656 16.609375 -4.859375 C 16.523438 -4.878906 16.390625 -4.820312 16.203125 -4.6875 C 16.023438 -4.550781 15.691406 -4.164062 15.203125 -3.53125 C 15.109375 -3.414062 15.046875 -3.257812 15.015625 -3.0625 C 14.992188 -2.863281 14.921875 -2.691406 14.796875 -2.546875 C 14.773438 -2.523438 14.707031 -2.410156 14.59375 -2.203125 C 14.488281 -1.992188 14.4375 -1.867188 14.4375 -1.828125 C 14.4375 -1.828125 14.4375 -1.835938 14.4375 -1.859375 Z M 10.359375 12.28125 C 10.253906 11.96875 10.203125 11.726562 10.203125 11.5625 C 10.203125 11.382812 10.273438 11.195312 10.421875 11 C 10.566406 10.8125 10.640625 10.617188 10.640625 10.421875 C 10.640625 9.722656 10.773438 9.019531 11.046875 8.3125 C 11.316406 7.601562 11.453125 6.863281 11.453125 6.09375 C 11.453125 5.75 11.523438 5.476562 11.671875 5.28125 C 11.816406 5.09375 11.890625 4.898438 11.890625 4.703125 C 11.890625 4.609375 11.832031 4.515625 11.71875 4.421875 C 11.613281 4.335938 11.5625 4.273438 11.5625 4.234375 C 11.5625 4.179688 11.597656 4.109375 11.671875 4.015625 C 11.710938 3.910156 11.785156 3.644531 11.890625 3.21875 C 12.003906 2.800781 12.101562 2.3125 12.1875 1.75 C 12.28125 1.1875 12.328125 0.703125 12.328125 0.296875 C 12.328125 0.222656 12.265625 0.140625 12.140625 0.046875 C 12.015625 -0.0351562 11.929688 -0.078125 11.890625 -0.078125 C 11.816406 -0.078125 11.640625 0.046875 11.359375 0.296875 C 11.078125 0.554688 10.890625 0.785156 10.796875 0.984375 C 9.960938 2.421875 9.101562 3.835938 8.21875 5.234375 C 7.332031 6.628906 6.582031 8.09375 5.96875 9.625 C 5.363281 11.15625 5.0625 12.832031 5.0625 14.65625 C 5.0625 15.1875 5.144531 15.75 5.3125 16.34375 C 5.488281 16.945312 5.84375 17.359375 6.375 17.578125 C 6.625 17.523438 6.863281 17.460938 7.09375 17.390625 C 7.320312 17.316406 7.546875 17.253906 7.765625 17.203125 C 7.910156 17.015625 8.039062 16.832031 8.15625 16.65625 C 8.28125 16.488281 8.414062 16.332031 8.5625 16.1875 C 8.738281 16.039062 8.816406 15.863281 8.796875 15.65625 C 8.785156 15.445312 8.84375 15.257812 8.96875 15.09375 C 9.1875 14.820312 9.332031 14.519531 9.40625 14.1875 C 9.476562 13.863281 9.566406 13.53125 9.671875 13.1875 C 9.785156 12.851562 10.015625 12.550781 10.359375 12.28125 Z M 12.4375 -15.171875 C 12.332031 -15.265625 12.25 -15.359375 12.1875 -15.453125 C 12.132812 -15.554688 12.019531 -15.609375 11.84375 -15.609375 C 11.675781 -15.609375 11.335938 -15.445312 10.828125 -15.125 C 10.316406 -14.8125 9.753906 -14.441406 9.140625 -14.015625 C 8.535156 -13.585938 8.015625 -13.195312 7.578125 -12.84375 C 7.140625 -12.5 6.921875 -12.289062 6.921875 -12.21875 C 6.921875 -12.039062 6.800781 -11.769531 6.5625 -11.40625 C 6.320312 -11.039062 6.066406 -10.691406 5.796875 -10.359375 C 5.703125 -10.234375 5.546875 -10.019531 5.328125 -9.71875 C 5.109375 -9.414062 4.90625 -9.128906 4.71875 -8.859375 C 4.539062 -8.585938 4.453125 -8.40625 4.453125 -8.3125 C 4.492188 -8.21875 4.515625 -8.140625 4.515625 -8.078125 C 4.515625 -8.015625 4.566406 -7.984375 4.671875 -7.984375 C 4.691406 -7.984375 4.707031 -7.988281 4.71875 -8 C 4.726562 -8.007812 4.734375 -8.015625 4.734375 -8.015625 C 5.492188 -8.484375 6.164062 -9.0625 6.75 -9.75 C 7.332031 -10.445312 7.953125 -10.953125 8.609375 -11.265625 C 8.796875 -11.359375 9.039062 -11.617188 9.34375 -12.046875 C 9.65625 -12.472656 9.957031 -12.804688 10.25 -13.046875 C 10.4375 -13.222656 10.628906 -13.382812 10.828125 -13.53125 C 11.023438 -13.675781 11.179688 -13.867188 11.296875 -14.109375 C 11.398438 -14.273438 11.535156 -14.367188 11.703125 -14.390625 C 11.867188 -14.421875 12.023438 -14.476562 12.171875 -14.5625 C 12.316406 -14.644531 12.40625 -14.847656 12.4375 -15.171875 Z M 13.265625 2.296875 C 13.171875 2.296875 13.125 2.332031 13.125 2.40625 C 13.125 2.425781 13.140625 2.445312 13.171875 2.46875 C 13.210938 2.5 13.234375 2.515625 13.234375 2.515625 C 13.285156 2.515625 13.3125 2.46875 13.3125 2.375 C 13.3125 2.34375 13.296875 2.316406 13.265625 2.296875 Z M 9.4375 -11.375 C 9.414062 -11.394531 9.40625 -11.410156 9.40625 -11.421875 C 9.40625 -11.441406 9.394531 -11.460938 9.375 -11.484375 C 9.375 -11.484375 9.347656 -11.457031 9.296875 -11.40625 C 9.296875 -11.3125 9.320312 -11.265625 9.375 -11.265625 C 9.414062 -11.265625 9.4375 -11.300781 9.4375 -11.375 Z M 10.90625 -11.125 C 10.90625 -11.125 10.894531 -11.113281 10.875 -11.09375 C 10.863281 -11.082031 10.859375 -11.078125 10.859375 -11.078125 C 10.859375 -11.078125 10.859375 -11.085938 10.859375 -11.109375 C 10.859375 -11.140625 10.859375 -11.15625 10.859375 -11.15625 Z M 10.90625 -11.125 "/></g></g></g><g fill="#ffbd59" fill-opacity="1"><g transform="translate(38.492494, 39.123247)"><g><path d="M 2.4375 -12.875 C 2.632812 -13.09375 2.8125 -13.320312 2.96875 -13.5625 C 3.125 -13.800781 3.253906 -14.066406 3.359375 -14.359375 C 3.472656 -14.703125 3.65625 -14.984375 3.90625 -15.203125 C 4.164062 -15.421875 4.421875 -15.625 4.671875 -15.8125 C 4.929688 -16.007812 5.097656 -16.242188 5.171875 -16.515625 C 5.441406 -16.785156 5.71875 -17.078125 6 -17.390625 C 6.28125 -17.703125 6.613281 -17.941406 7 -18.109375 C 7.238281 -18.210938 7.441406 -18.359375 7.609375 -18.546875 C 7.785156 -18.742188 8.019531 -18.84375 8.3125 -18.84375 C 8.945312 -18.84375 9.648438 -18.703125 10.421875 -18.421875 C 11.203125 -18.140625 11.878906 -17.742188 12.453125 -17.234375 C 13.023438 -16.734375 13.3125 -16.15625 13.3125 -15.5 C 13.3125 -15.445312 13.300781 -15.382812 13.28125 -15.3125 C 13.269531 -15.238281 13.265625 -15.175781 13.265625 -15.125 C 13.265625 -15.007812 13.269531 -14.894531 13.28125 -14.78125 C 13.300781 -14.675781 13.3125 -14.5625 13.3125 -14.4375 C 13.3125 -13.976562 13.140625 -13.625 12.796875 -13.375 C 12.628906 -13.28125 12.488281 -13.117188 12.375 -12.890625 C 12.269531 -12.660156 12.144531 -12.457031 12 -12.28125 C 11.875 -12.164062 11.75 -12.046875 11.625 -11.921875 C 11.507812 -11.796875 11.398438 -11.640625 11.296875 -11.453125 C 11.179688 -11.203125 10.890625 -10.863281 10.421875 -10.4375 C 9.960938 -10.019531 9.410156 -9.640625 8.765625 -9.296875 C 8.117188 -8.953125 7.457031 -8.78125 6.78125 -8.78125 C 6.539062 -8.78125 6.289062 -8.804688 6.03125 -8.859375 C 5.78125 -8.910156 5.519531 -8.9375 5.25 -8.9375 C 4.90625 -8.9375 4.695312 -8.738281 4.625 -8.34375 C 4.550781 -7.957031 4.515625 -7.617188 4.515625 -7.328125 C 4.515625 -6.796875 4.546875 -6.15625 4.609375 -5.40625 C 4.671875 -4.664062 4.796875 -4.015625 4.984375 -3.453125 C 5.179688 -2.898438 5.5 -2.625 5.9375 -2.625 C 6.207031 -2.625 6.492188 -2.707031 6.796875 -2.875 C 7.097656 -3.050781 7.347656 -3.222656 7.546875 -3.390625 C 8.546875 -4.191406 9.523438 -4.988281 10.484375 -5.78125 C 11.441406 -6.570312 12.394531 -7.378906 13.34375 -8.203125 C 13.488281 -8.328125 13.726562 -8.554688 14.0625 -8.890625 C 14.40625 -9.234375 14.789062 -9.554688 15.21875 -9.859375 C 15.644531 -10.160156 16.039062 -10.3125 16.40625 -10.3125 C 16.53125 -10.3125 16.65625 -10.28125 16.78125 -10.21875 C 16.914062 -10.164062 16.984375 -10.066406 16.984375 -9.921875 C 16.984375 -9.671875 16.789062 -9.441406 16.40625 -9.234375 C 16.019531 -9.035156 15.726562 -8.875 15.53125 -8.75 C 15.53125 -8.75 15.429688 -8.660156 15.234375 -8.484375 C 15.046875 -8.316406 14.816406 -8.113281 14.546875 -7.875 C 14.273438 -7.632812 14.039062 -7.410156 13.84375 -7.203125 C 13.65625 -6.992188 13.5625 -6.84375 13.5625 -6.75 C 13.5625 -6.601562 13.507812 -6.421875 13.40625 -6.203125 C 13.3125 -5.984375 13.171875 -5.875 12.984375 -5.875 C 12.640625 -5.695312 12.335938 -5.429688 12.078125 -5.078125 C 11.828125 -4.734375 11.601562 -4.398438 11.40625 -4.078125 C 11.21875 -3.765625 11.015625 -3.570312 10.796875 -3.5 C 10.648438 -3.445312 10.410156 -3.253906 10.078125 -2.921875 C 9.753906 -2.597656 9.394531 -2.234375 9 -1.828125 C 8.613281 -1.429688 8.25 -1.082031 7.90625 -0.78125 C 7.570312 -0.476562 7.332031 -0.328125 7.1875 -0.328125 C 7.0625 -0.328125 6.9375 -0.363281 6.8125 -0.4375 C 6.695312 -0.363281 6.582031 -0.289062 6.46875 -0.21875 C 6.363281 -0.144531 6.25 -0.0703125 6.125 0 C 5.414062 -0.0703125 4.804688 -0.15625 4.296875 -0.25 C 3.785156 -0.351562 3.335938 -0.679688 2.953125 -1.234375 C 2.859375 -1.453125 2.75 -1.597656 2.625 -1.671875 C 2.40625 -1.796875 2.21875 -1.984375 2.0625 -2.234375 C 1.90625 -2.492188 1.78125 -2.742188 1.6875 -2.984375 C 1.601562 -3.234375 1.5625 -3.367188 1.5625 -3.390625 C 1.5625 -3.460938 1.570312 -3.539062 1.59375 -3.625 C 1.625 -3.707031 1.640625 -3.800781 1.640625 -3.90625 C 1.640625 -4.070312 1.570312 -4.226562 1.4375 -4.375 C 1.300781 -4.519531 1.234375 -4.664062 1.234375 -4.8125 C 1.234375 -4.863281 1.25 -4.925781 1.28125 -5 C 1.320312 -5.070312 1.34375 -5.144531 1.34375 -5.21875 C 1.34375 -5.332031 1.316406 -5.441406 1.265625 -5.546875 C 1.222656 -5.660156 1.203125 -5.78125 1.203125 -5.90625 C 1.203125 -6 1.234375 -6.09375 1.296875 -6.1875 C 1.359375 -6.289062 1.390625 -6.390625 1.390625 -6.484375 C 1.390625 -6.609375 1.34375 -6.742188 1.25 -6.890625 C 1.164062 -7.035156 1.125 -7.179688 1.125 -7.328125 C 1.125 -7.566406 1.128906 -7.882812 1.140625 -8.28125 C 1.160156 -8.6875 1.195312 -9.078125 1.25 -9.453125 C 1.3125 -9.835938 1.414062 -10.125 1.5625 -10.3125 C 1.832031 -10.632812 1.984375 -11.039062 2.015625 -11.53125 C 2.054688 -12.03125 2.210938 -12.476562 2.484375 -12.875 C 2.378906 -12.726562 2.328125 -12.59375 2.328125 -12.46875 C 2.328125 -12.394531 2.351562 -12.332031 2.40625 -12.28125 C 2.425781 -12.3125 2.445312 -12.328125 2.46875 -12.328125 C 2.5 -12.328125 2.515625 -12.363281 2.515625 -12.4375 C 2.515625 -12.507812 2.507812 -12.582031 2.5 -12.65625 C 2.488281 -12.726562 2.46875 -12.800781 2.4375 -12.875 Z M 5.90625 -11.046875 C 6.25 -11.097656 6.660156 -11.203125 7.140625 -11.359375 C 7.628906 -11.515625 8.125 -11.734375 8.625 -12.015625 C 9.125 -12.296875 9.535156 -12.644531 9.859375 -13.0625 C 10.191406 -13.488281 10.359375 -13.992188 10.359375 -14.578125 C 10.359375 -14.898438 10.300781 -15.253906 10.1875 -15.640625 C 10.082031 -16.023438 9.847656 -16.21875 9.484375 -16.21875 C 8.867188 -16.21875 8.300781 -16.015625 7.78125 -15.609375 C 7.257812 -15.210938 6.796875 -14.726562 6.390625 -14.15625 C 5.992188 -13.59375 5.6875 -13.046875 5.46875 -12.515625 C 5.25 -11.992188 5.140625 -11.613281 5.140625 -11.375 C 5.140625 -11.25 5.191406 -11.175781 5.296875 -11.15625 C 5.410156 -11.132812 5.613281 -11.097656 5.90625 -11.046875 Z M 5.90625 -11.046875 "/></g></g></g><g fill="#ffbd59" fill-opacity="1"><g transform="translate(52.565355, 39.123247)"><g><path d="M 5.390625 -9.484375 C 5.515625 -9.359375 5.59375 -9.203125 5.625 -9.015625 C 5.664062 -8.835938 5.6875 -8.613281 5.6875 -8.34375 C 5.6875 -7.882812 5.597656 -7.582031 5.421875 -7.4375 C 5.253906 -7.289062 5.171875 -7.0625 5.171875 -6.75 C 5.171875 -6.675781 5.179688 -6.582031 5.203125 -6.46875 C 5.234375 -6.363281 5.273438 -6.3125 5.328125 -6.3125 C 5.347656 -6.3125 5.375 -6.328125 5.40625 -6.359375 C 5.445312 -6.398438 5.492188 -6.421875 5.546875 -6.421875 C 5.585938 -6.421875 5.617188 -6.25 5.640625 -5.90625 C 5.671875 -5.5625 5.6875 -5.242188 5.6875 -4.953125 C 5.6875 -4.546875 5.632812 -4.21875 5.53125 -3.96875 C 5.4375 -3.726562 5.34375 -3.503906 5.25 -3.296875 C 5.15625 -3.085938 5.109375 -2.800781 5.109375 -2.4375 C 5.109375 -2.21875 5.097656 -2.023438 5.078125 -1.859375 C 5.066406 -1.691406 5.0625 -1.484375 5.0625 -1.234375 C 5.0625 -0.898438 5.125 -0.585938 5.25 -0.296875 C 5.375 -0.00390625 5.65625 0.140625 6.09375 0.140625 C 6.132812 0.140625 6.171875 0.128906 6.203125 0.109375 C 6.222656 0.378906 6.238281 0.664062 6.25 0.96875 C 6.257812 1.269531 6.316406 1.429688 6.421875 1.453125 C 6.566406 1.453125 6.738281 1.175781 6.9375 0.625 C 7.144531 0.0820312 7.367188 -0.570312 7.609375 -1.34375 C 7.859375 -2.125 8.109375 -2.894531 8.359375 -3.65625 C 8.617188 -4.425781 8.859375 -5.03125 9.078125 -5.46875 C 9.148438 -5.445312 9.234375 -5.4375 9.328125 -5.4375 C 9.453125 -5.4375 9.519531 -5.507812 9.53125 -5.65625 C 9.539062 -5.800781 9.550781 -5.9375 9.5625 -6.0625 C 9.582031 -6.195312 9.628906 -6.265625 9.703125 -6.265625 C 9.773438 -6.265625 9.816406 -6.148438 9.828125 -5.921875 C 9.835938 -5.691406 9.859375 -5.460938 9.890625 -5.234375 C 9.929688 -5.003906 9.988281 -4.890625 10.0625 -4.890625 C 10.1875 -5.003906 10.257812 -5.269531 10.28125 -5.6875 C 10.300781 -6.101562 10.3125 -6.46875 10.3125 -6.78125 C 10.3125 -6.925781 10.300781 -7.078125 10.28125 -7.234375 C 10.257812 -7.390625 10.25 -7.539062 10.25 -7.6875 C 10.25 -8.175781 10.332031 -8.695312 10.5 -9.25 C 10.664062 -9.8125 10.96875 -10.21875 11.40625 -10.46875 C 11.550781 -10.539062 11.65625 -10.769531 11.71875 -11.15625 C 11.78125 -11.539062 11.835938 -11.859375 11.890625 -12.109375 C 11.929688 -12.421875 12.039062 -12.703125 12.21875 -12.953125 C 12.40625 -13.210938 12.550781 -13.5 12.65625 -13.8125 C 12.675781 -13.9375 12.800781 -14.101562 13.03125 -14.3125 C 13.257812 -14.519531 13.519531 -14.710938 13.8125 -14.890625 C 14.101562 -15.078125 14.347656 -15.171875 14.546875 -15.171875 C 14.671875 -15.171875 14.796875 -15.144531 14.921875 -15.09375 C 15.054688 -15.039062 15.125 -14.96875 15.125 -14.875 C 15.125 -14.457031 14.953125 -14.039062 14.609375 -13.625 C 14.273438 -13.21875 13.960938 -12.867188 13.671875 -12.578125 C 13.398438 -12.378906 13.148438 -12.03125 12.921875 -11.53125 C 12.691406 -11.039062 12.488281 -10.585938 12.3125 -10.171875 C 12.144531 -9.753906 12.003906 -9.546875 11.890625 -9.546875 C 11.816406 -9.546875 11.757812 -9.585938 11.71875 -9.671875 C 11.6875 -9.765625 11.617188 -9.8125 11.515625 -9.8125 C 11.441406 -9.8125 11.378906 -9.632812 11.328125 -9.28125 C 11.285156 -8.925781 11.257812 -8.492188 11.25 -7.984375 C 11.238281 -7.472656 11.222656 -6.957031 11.203125 -6.4375 C 11.191406 -5.914062 11.175781 -5.484375 11.15625 -5.140625 C 11.082031 -5.085938 11.007812 -5.035156 10.9375 -4.984375 C 10.863281 -4.941406 10.78125 -4.894531 10.6875 -4.84375 C 10.632812 -4.164062 10.617188 -3.484375 10.640625 -2.796875 C 10.671875 -2.117188 10.613281 -1.441406 10.46875 -0.765625 C 10.394531 -0.765625 10.3125 -0.769531 10.21875 -0.78125 C 10.132812 -0.789062 10.046875 -0.796875 9.953125 -0.796875 C 9.898438 -0.703125 9.875 -0.628906 9.875 -0.578125 C 9.875 -0.484375 9.890625 -0.394531 9.921875 -0.3125 C 9.960938 -0.226562 9.984375 -0.125 9.984375 0 C 9.984375 0.09375 9.976562 0.179688 9.96875 0.265625 C 9.957031 0.359375 9.953125 0.453125 9.953125 0.546875 C 9.953125 0.597656 9.957031 0.660156 9.96875 0.734375 C 9.976562 0.804688 9.984375 0.878906 9.984375 0.953125 C 9.960938 1.578125 9.84375 2.148438 9.625 2.671875 C 9.40625 3.203125 9.210938 3.742188 9.046875 4.296875 C 8.898438 4.765625 8.660156 5.054688 8.328125 5.171875 C 8.003906 5.296875 7.789062 5.492188 7.6875 5.765625 C 7.644531 5.929688 7.5 6.125 7.25 6.34375 C 7.007812 6.5625 6.878906 6.671875 6.859375 6.671875 C 6.753906 6.671875 6.664062 6.628906 6.59375 6.546875 C 6.519531 6.460938 6.425781 6.421875 6.3125 6.421875 C 6.1875 6.421875 6.050781 6.445312 5.90625 6.5 C 5.757812 6.5625 5.625 6.59375 5.5 6.59375 C 5.113281 6.550781 4.804688 6.363281 4.578125 6.03125 C 4.347656 5.707031 4.160156 5.3125 4.015625 4.84375 C 3.867188 4.382812 3.726562 3.953125 3.59375 3.546875 C 3.457031 3.148438 3.289062 2.851562 3.09375 2.65625 C 3 2.5625 2.953125 2.332031 2.953125 1.96875 C 2.953125 1.53125 2.921875 1.207031 2.859375 1 C 2.796875 0.789062 2.726562 0.601562 2.65625 0.4375 C 2.582031 0.269531 2.515625 0.0507812 2.453125 -0.21875 C 2.398438 -0.488281 2.375 -0.890625 2.375 -1.421875 C 2.375 -1.734375 2.378906 -2.046875 2.390625 -2.359375 C 2.398438 -2.679688 2.40625 -2.960938 2.40625 -3.203125 C 2.40625 -3.523438 2.367188 -3.816406 2.296875 -4.078125 C 2.222656 -4.347656 2.1875 -4.628906 2.1875 -4.921875 C 2.1875 -5.335938 2.222656 -5.753906 2.296875 -6.171875 C 2.367188 -6.597656 2.40625 -7.019531 2.40625 -7.4375 C 2.40625 -7.632812 2.40625 -7.816406 2.40625 -7.984375 C 2.40625 -8.148438 2.394531 -8.320312 2.375 -8.5 C 2.375 -8.738281 2.425781 -8.867188 2.53125 -8.890625 C 2.644531 -8.921875 2.75 -8.9375 2.84375 -8.9375 C 2.9375 -8.9375 2.984375 -9.007812 2.984375 -9.15625 C 2.984375 -9.269531 2.976562 -9.378906 2.96875 -9.484375 C 2.957031 -9.597656 2.953125 -9.707031 2.953125 -9.8125 C 2.972656 -10.175781 2.988281 -10.539062 3 -10.90625 C 3.019531 -11.269531 3.03125 -11.632812 3.03125 -12 C 3.03125 -12.4375 2.960938 -12.847656 2.828125 -13.234375 C 2.691406 -13.617188 2.625 -14.007812 2.625 -14.40625 C 2.625 -15.0625 2.679688 -15.679688 2.796875 -16.265625 C 2.921875 -16.847656 3.035156 -17.441406 3.140625 -18.046875 C 3.179688 -18.140625 3.203125 -18.25 3.203125 -18.375 C 3.203125 -18.539062 3.179688 -18.707031 3.140625 -18.875 C 3.109375 -19.050781 3.09375 -19.222656 3.09375 -19.390625 C 3.09375 -19.554688 3.128906 -19.710938 3.203125 -19.859375 C 3.273438 -20.003906 3.3125 -20.164062 3.3125 -20.34375 C 3.3125 -20.457031 3.300781 -20.582031 3.28125 -20.71875 C 3.257812 -20.851562 3.25 -20.992188 3.25 -21.140625 C 3.25 -21.554688 3.289062 -22 3.375 -22.46875 C 3.457031 -22.945312 3.5 -23.367188 3.5 -23.734375 C 3.5 -23.878906 3.492188 -24.023438 3.484375 -24.171875 C 3.472656 -24.316406 3.46875 -24.445312 3.46875 -24.5625 C 3.46875 -24.851562 3.472656 -25.140625 3.484375 -25.421875 C 3.492188 -25.703125 3.5 -25.976562 3.5 -26.25 C 3.5 -26.507812 3.460938 -26.738281 3.390625 -26.9375 C 3.316406 -27.132812 3.28125 -27.328125 3.28125 -27.515625 C 3.28125 -27.929688 3.476562 -28.175781 3.875 -28.25 C 4.28125 -28.320312 4.640625 -28.359375 4.953125 -28.359375 C 5.566406 -28.359375 5.9375 -28.269531 6.0625 -28.09375 C 6.195312 -27.925781 6.265625 -27.601562 6.265625 -27.125 C 6.265625 -26.175781 6.191406 -25.125 6.046875 -23.96875 C 5.898438 -22.8125 5.828125 -21.84375 5.828125 -21.0625 C 5.828125 -20.96875 5.851562 -20.878906 5.90625 -20.796875 C 5.957031 -20.710938 5.984375 -20.609375 5.984375 -20.484375 C 5.984375 -20.460938 5.972656 -20.441406 5.953125 -20.421875 C 5.941406 -20.410156 5.9375 -20.40625 5.9375 -20.40625 C 5.820312 -20.164062 5.769531 -19.921875 5.78125 -19.671875 C 5.789062 -19.429688 5.769531 -19.179688 5.71875 -18.921875 C 5.71875 -18.816406 5.742188 -18.722656 5.796875 -18.640625 C 5.847656 -18.554688 5.875 -18.453125 5.875 -18.328125 C 5.875 -18.253906 5.851562 -18.179688 5.8125 -18.109375 C 5.78125 -18.035156 5.765625 -17.976562 5.765625 -17.9375 C 5.765625 -17.84375 5.78125 -17.757812 5.8125 -17.6875 C 5.851562 -17.613281 5.875 -17.523438 5.875 -17.421875 C 5.875 -17.273438 5.847656 -17.101562 5.796875 -16.90625 C 5.742188 -16.71875 5.71875 -16.550781 5.71875 -16.40625 C 5.71875 -16.257812 5.742188 -16.113281 5.796875 -15.96875 C 5.847656 -15.820312 5.875 -15.675781 5.875 -15.53125 C 5.875 -15.21875 5.820312 -14.894531 5.71875 -14.5625 C 5.625 -14.238281 5.578125 -13.941406 5.578125 -13.671875 C 5.578125 -13.578125 5.597656 -13.472656 5.640625 -13.359375 C 5.691406 -13.253906 5.71875 -13.140625 5.71875 -13.015625 C 5.71875 -12.867188 5.660156 -12.722656 5.546875 -12.578125 C 5.441406 -12.429688 5.390625 -12.285156 5.390625 -12.140625 C 5.390625 -11.992188 5.441406 -11.863281 5.546875 -11.75 C 5.660156 -11.644531 5.71875 -11.492188 5.71875 -11.296875 C 5.675781 -10.835938 5.625 -10.492188 5.5625 -10.265625 C 5.5 -10.035156 5.441406 -9.75 5.390625 -9.40625 C 5.390625 -9.40625 5.390625 -9.410156 5.390625 -9.421875 C 5.390625 -9.429688 5.390625 -9.453125 5.390625 -9.484375 Z M 2.8125 -5.359375 C 2.925781 -5.410156 3.054688 -5.457031 3.203125 -5.5 C 3.347656 -5.550781 3.421875 -5.660156 3.421875 -5.828125 C 3.421875 -5.953125 3.363281 -6.050781 3.25 -6.125 C 3.144531 -6.195312 3.046875 -6.234375 2.953125 -6.234375 C 2.785156 -6.234375 2.703125 -6.078125 2.703125 -5.765625 C 2.703125 -5.640625 2.738281 -5.503906 2.8125 -5.359375 Z M 8.640625 -3.140625 L 8.53125 -3.171875 C 8.507812 -3.003906 8.5 -2.828125 8.5 -2.640625 C 8.5 -2.460938 8.5 -2.273438 8.5 -2.078125 C 8.5 -2.078125 8.503906 -2.070312 8.515625 -2.0625 C 8.523438 -2.050781 8.539062 -2.03125 8.5625 -2 C 8.613281 -2 8.640625 -2.195312 8.640625 -2.59375 C 8.640625 -2.6875 8.640625 -2.78125 8.640625 -2.875 C 8.640625 -2.976562 8.640625 -3.066406 8.640625 -3.140625 Z M 10.796875 -6.59375 C 10.765625 -6.425781 10.742188 -6.304688 10.734375 -6.234375 C 10.722656 -6.160156 10.71875 -6.097656 10.71875 -6.046875 C 10.71875 -5.972656 10.742188 -5.914062 10.796875 -5.875 C 10.796875 -5.894531 10.800781 -5.910156 10.8125 -5.921875 C 10.820312 -5.929688 10.828125 -5.953125 10.828125 -5.984375 C 10.828125 -6.054688 10.820312 -6.132812 10.8125 -6.21875 C 10.800781 -6.300781 10.796875 -6.425781 10.796875 -6.59375 Z M 5.875 1.609375 C 5.800781 1.609375 5.753906 1.644531 5.734375 1.71875 C 5.722656 1.789062 5.71875 1.847656 5.71875 1.890625 C 5.71875 1.992188 5.753906 2.082031 5.828125 2.15625 C 5.859375 2.082031 5.882812 2.019531 5.90625 1.96875 C 5.925781 1.914062 5.953125 1.851562 5.984375 1.78125 C 5.984375 1.738281 5.945312 1.679688 5.875 1.609375 Z M 10.09375 -3.609375 C 10.195312 -3.703125 10.25 -3.765625 10.25 -3.796875 C 10.25 -3.867188 10.210938 -3.90625 10.140625 -3.90625 C 10.066406 -3.90625 10.003906 -3.84375 9.953125 -3.71875 C 9.953125 -3.644531 10 -3.609375 10.09375 -3.609375 Z M 4.8125 -3.6875 C 4.8125 -3.757812 4.785156 -3.816406 4.734375 -3.859375 C 4.691406 -3.765625 4.671875 -3.691406 4.671875 -3.640625 C 4.671875 -3.597656 4.679688 -3.5625 4.703125 -3.53125 C 4.722656 -3.5625 4.738281 -3.585938 4.75 -3.609375 C 4.769531 -3.628906 4.789062 -3.65625 4.8125 -3.6875 Z M 12.21875 -11.40625 C 12.21875 -11.507812 12.191406 -11.5625 12.140625 -11.5625 C 12.085938 -11.5625 12.0625 -11.535156 12.0625 -11.484375 C 12.0625 -11.460938 12.066406 -11.441406 12.078125 -11.421875 C 12.097656 -11.410156 12.109375 -11.394531 12.109375 -11.375 C 12.148438 -11.375 12.1875 -11.382812 12.21875 -11.40625 Z M 4.703125 -7.359375 L 4.734375 -7.25 L 4.78125 -7.328125 Z M 4.703125 -7.359375 "/></g></g></g><g fill="#ffbd59" fill-opacity="1"><g transform="translate(61.497619, 39.123247)"><g><path d="M 2.4375 -12.875 C 2.632812 -13.09375 2.8125 -13.320312 2.96875 -13.5625 C 3.125 -13.800781 3.253906 -14.066406 3.359375 -14.359375 C 3.472656 -14.703125 3.65625 -14.984375 3.90625 -15.203125 C 4.164062 -15.421875 4.421875 -15.625 4.671875 -15.8125 C 4.929688 -16.007812 5.097656 -16.242188 5.171875 -16.515625 C 5.441406 -16.785156 5.71875 -17.078125 6 -17.390625 C 6.28125 -17.703125 6.613281 -17.941406 7 -18.109375 C 7.238281 -18.210938 7.441406 -18.359375 7.609375 -18.546875 C 7.785156 -18.742188 8.019531 -18.84375 8.3125 -18.84375 C 8.945312 -18.84375 9.648438 -18.703125 10.421875 -18.421875 C 11.203125 -18.140625 11.878906 -17.742188 12.453125 -17.234375 C 13.023438 -16.734375 13.3125 -16.15625 13.3125 -15.5 C 13.3125 -15.445312 13.300781 -15.382812 13.28125 -15.3125 C 13.269531 -15.238281 13.265625 -15.175781 13.265625 -15.125 C 13.265625 -15.007812 13.269531 -14.894531 13.28125 -14.78125 C 13.300781 -14.675781 13.3125 -14.5625 13.3125 -14.4375 C 13.3125 -13.976562 13.140625 -13.625 12.796875 -13.375 C 12.628906 -13.28125 12.488281 -13.117188 12.375 -12.890625 C 12.269531 -12.660156 12.144531 -12.457031 12 -12.28125 C 11.875 -12.164062 11.75 -12.046875 11.625 -11.921875 C 11.507812 -11.796875 11.398438 -11.640625 11.296875 -11.453125 C 11.179688 -11.203125 10.890625 -10.863281 10.421875 -10.4375 C 9.960938 -10.019531 9.410156 -9.640625 8.765625 -9.296875 C 8.117188 -8.953125 7.457031 -8.78125 6.78125 -8.78125 C 6.539062 -8.78125 6.289062 -8.804688 6.03125 -8.859375 C 5.78125 -8.910156 5.519531 -8.9375 5.25 -8.9375 C 4.90625 -8.9375 4.695312 -8.738281 4.625 -8.34375 C 4.550781 -7.957031 4.515625 -7.617188 4.515625 -7.328125 C 4.515625 -6.796875 4.546875 -6.15625 4.609375 -5.40625 C 4.671875 -4.664062 4.796875 -4.015625 4.984375 -3.453125 C 5.179688 -2.898438 5.5 -2.625 5.9375 -2.625 C 6.207031 -2.625 6.492188 -2.707031 6.796875 -2.875 C 7.097656 -3.050781 7.347656 -3.222656 7.546875 -3.390625 C 8.546875 -4.191406 9.523438 -4.988281 10.484375 -5.78125 C 11.441406 -6.570312 12.394531 -7.378906 13.34375 -8.203125 C 13.488281 -8.328125 13.726562 -8.554688 14.0625 -8.890625 C 14.40625 -9.234375 14.789062 -9.554688 15.21875 -9.859375 C 15.644531 -10.160156 16.039062 -10.3125 16.40625 -10.3125 C 16.53125 -10.3125 16.65625 -10.28125 16.78125 -10.21875 C 16.914062 -10.164062 16.984375 -10.066406 16.984375 -9.921875 C 16.984375 -9.671875 16.789062 -9.441406 16.40625 -9.234375 C 16.019531 -9.035156 15.726562 -8.875 15.53125 -8.75 C 15.53125 -8.75 15.429688 -8.660156 15.234375 -8.484375 C 15.046875 -8.316406 14.816406 -8.113281 14.546875 -7.875 C 14.273438 -7.632812 14.039062 -7.410156 13.84375 -7.203125 C 13.65625 -6.992188 13.5625 -6.84375 13.5625 -6.75 C 13.5625 -6.601562 13.507812 -6.421875 13.40625 -6.203125 C 13.3125 -5.984375 13.171875 -5.875 12.984375 -5.875 C 12.640625 -5.695312 12.335938 -5.429688 12.078125 -5.078125 C 11.828125 -4.734375 11.601562 -4.398438 11.40625 -4.078125 C 11.21875 -3.765625 11.015625 -3.570312 10.796875 -3.5 C 10.648438 -3.445312 10.410156 -3.253906 10.078125 -2.921875 C 9.753906 -2.597656 9.394531 -2.234375 9 -1.828125 C 8.613281 -1.429688 8.25 -1.082031 7.90625 -0.78125 C 7.570312 -0.476562 7.332031 -0.328125 7.1875 -0.328125 C 7.0625 -0.328125 6.9375 -0.363281 6.8125 -0.4375 C 6.695312 -0.363281 6.582031 -0.289062 6.46875 -0.21875 C 6.363281 -0.144531 6.25 -0.0703125 6.125 0 C 5.414062 -0.0703125 4.804688 -0.15625 4.296875 -0.25 C 3.785156 -0.351562 3.335938 -0.679688 2.953125 -1.234375 C 2.859375 -1.453125 2.75 -1.597656 2.625 -1.671875 C 2.40625 -1.796875 2.21875 -1.984375 2.0625 -2.234375 C 1.90625 -2.492188 1.78125 -2.742188 1.6875 -2.984375 C 1.601562 -3.234375 1.5625 -3.367188 1.5625 -3.390625 C 1.5625 -3.460938 1.570312 -3.539062 1.59375 -3.625 C 1.625 -3.707031 1.640625 -3.800781 1.640625 -3.90625 C 1.640625 -4.070312 1.570312 -4.226562 1.4375 -4.375 C 1.300781 -4.519531 1.234375 -4.664062 1.234375 -4.8125 C 1.234375 -4.863281 1.25 -4.925781 1.28125 -5 C 1.320312 -5.070312 1.34375 -5.144531 1.34375 -5.21875 C 1.34375 -5.332031 1.316406 -5.441406 1.265625 -5.546875 C 1.222656 -5.660156 1.203125 -5.78125 1.203125 -5.90625 C 1.203125 -6 1.234375 -6.09375 1.296875 -6.1875 C 1.359375 -6.289062 1.390625 -6.390625 1.390625 -6.484375 C 1.390625 -6.609375 1.34375 -6.742188 1.25 -6.890625 C 1.164062 -7.035156 1.125 -7.179688 1.125 -7.328125 C 1.125 -7.566406 1.128906 -7.882812 1.140625 -8.28125 C 1.160156 -8.6875 1.195312 -9.078125 1.25 -9.453125 C 1.3125 -9.835938 1.414062 -10.125 1.5625 -10.3125 C 1.832031 -10.632812 1.984375 -11.039062 2.015625 -11.53125 C 2.054688 -12.03125 2.210938 -12.476562 2.484375 -12.875 C 2.378906 -12.726562 2.328125 -12.59375 2.328125 -12.46875 C 2.328125 -12.394531 2.351562 -12.332031 2.40625 -12.28125 C 2.425781 -12.3125 2.445312 -12.328125 2.46875 -12.328125 C 2.5 -12.328125 2.515625 -12.363281 2.515625 -12.4375 C 2.515625 -12.507812 2.507812 -12.582031 2.5 -12.65625 C 2.488281 -12.726562 2.46875 -12.800781 2.4375 -12.875 Z M 5.90625 -11.046875 C 6.25 -11.097656 6.660156 -11.203125 7.140625 -11.359375 C 7.628906 -11.515625 8.125 -11.734375 8.625 -12.015625 C 9.125 -12.296875 9.535156 -12.644531 9.859375 -13.0625 C 10.191406 -13.488281 10.359375 -13.992188 10.359375 -14.578125 C 10.359375 -14.898438 10.300781 -15.253906 10.1875 -15.640625 C 10.082031 -16.023438 9.847656 -16.21875 9.484375 -16.21875 C 8.867188 -16.21875 8.300781 -16.015625 7.78125 -15.609375 C 7.257812 -15.210938 6.796875 -14.726562 6.390625 -14.15625 C 5.992188 -13.59375 5.6875 -13.046875 5.46875 -12.515625 C 5.25 -11.992188 5.140625 -11.613281 5.140625 -11.375 C 5.140625 -11.25 5.191406 -11.175781 5.296875 -11.15625 C 5.410156 -11.132812 5.613281 -11.097656 5.90625 -11.046875 Z M 5.90625 -11.046875 "/></g></g></g><g fill="#ffbd59" fill-opacity="1"><g transform="translate(75.57048, 39.123247)"><g><path d="M 13.640625 -4.375 C 13.859375 -4.207031 13.96875 -3.976562 13.96875 -3.6875 C 13.96875 -3.21875 13.828125 -2.84375 13.546875 -2.5625 C 13.265625 -2.289062 12.867188 -2.15625 12.359375 -2.15625 C 12.117188 -2.15625 11.941406 -2.34375 11.828125 -2.71875 C 11.722656 -3.09375 11.65625 -3.414062 11.625 -3.6875 C 11.164062 -3.6875 10.800781 -3.5625 10.53125 -3.3125 C 10.269531 -3.070312 10.015625 -2.800781 9.765625 -2.5 C 9.523438 -2.195312 9.195312 -1.945312 8.78125 -1.75 C 8.226562 -1.507812 7.757812 -1.171875 7.375 -0.734375 C 7 -0.296875 6.617188 0.03125 6.234375 0.25 C 5.816406 0.394531 5.453125 0.765625 5.140625 1.359375 C 4.828125 1.960938 4.523438 2.492188 4.234375 2.953125 C 4.085938 3.191406 4.015625 3.445312 4.015625 3.71875 C 4.015625 3.988281 3.988281 4.253906 3.9375 4.515625 C 3.9375 4.691406 4.03125 4.816406 4.21875 4.890625 C 4.414062 4.960938 4.578125 5 4.703125 5 C 4.847656 5 4.992188 4.976562 5.140625 4.9375 C 5.285156 4.90625 5.421875 4.890625 5.546875 4.890625 C 5.617188 4.890625 5.679688 4.894531 5.734375 4.90625 C 5.796875 4.914062 5.863281 4.921875 5.9375 4.921875 C 6.207031 4.921875 6.382812 4.820312 6.46875 4.625 C 6.550781 4.4375 6.65625 4.222656 6.78125 3.984375 C 6.90625 3.753906 7.113281 3.601562 7.40625 3.53125 C 7.914062 3.414062 8.265625 3.117188 8.453125 2.640625 C 8.648438 2.171875 8.847656 1.664062 9.046875 1.125 C 9.234375 0.832031 9.503906 0.429688 9.859375 -0.078125 C 10.210938 -0.585938 10.390625 -1.007812 10.390625 -1.34375 C 10.390625 -1.320312 10.390625 -1.3125 10.390625 -1.3125 C 10.441406 -1.3125 10.523438 -1.40625 10.640625 -1.59375 C 10.765625 -1.789062 10.894531 -1.988281 11.03125 -2.1875 C 11.164062 -2.382812 11.242188 -2.484375 11.265625 -2.484375 C 11.460938 -2.484375 11.578125 -2.410156 11.609375 -2.265625 C 11.648438 -2.117188 11.679688 -1.960938 11.703125 -1.796875 C 11.722656 -1.640625 11.769531 -1.5625 11.84375 -1.5625 C 11.894531 -1.5625 11.957031 -1.566406 12.03125 -1.578125 C 12.101562 -1.597656 12.1875 -1.609375 12.28125 -1.609375 C 12.457031 -1.609375 12.546875 -1.535156 12.546875 -1.390625 C 12.546875 -1.097656 12.398438 -0.8125 12.109375 -0.53125 C 11.816406 -0.25 11.4375 0.0234375 10.96875 0.296875 C 10.894531 0.296875 10.828125 0.285156 10.765625 0.265625 C 10.710938 0.253906 10.648438 0.238281 10.578125 0.21875 C 10.578125 0.21875 10.585938 0.226562 10.609375 0.25 C 10.628906 0.28125 10.640625 0.296875 10.640625 0.296875 L 10.609375 0.1875 C 10.679688 0.207031 10.816406 0.242188 11.015625 0.296875 C 11.015625 0.679688 10.992188 1.035156 10.953125 1.359375 C 10.921875 1.691406 10.734375 1.921875 10.390625 2.046875 C 10.171875 2.066406 10.054688 2.222656 10.046875 2.515625 C 10.035156 2.804688 9.90625 3 9.65625 3.09375 C 9.4375 3.195312 9.304688 3.359375 9.265625 3.578125 C 9.234375 3.796875 9.1875 3.992188 9.125 4.171875 C 9.070312 4.359375 8.882812 4.453125 8.5625 4.453125 C 8.320312 4.453125 8.160156 4.570312 8.078125 4.8125 C 7.992188 5.050781 7.851562 5.195312 7.65625 5.25 C 7.4375 5.320312 7.207031 5.457031 6.96875 5.65625 C 6.53125 5.988281 6.148438 6.191406 5.828125 6.265625 C 5.515625 6.335938 5.140625 6.375 4.703125 6.375 C 4.316406 6.375 4.0625 6.484375 3.9375 6.703125 C 3.8125 6.921875 3.640625 7.03125 3.421875 7.03125 C 3.128906 7.03125 2.828125 6.859375 2.515625 6.515625 C 2.203125 6.179688 1.941406 5.8125 1.734375 5.40625 C 1.523438 5.007812 1.421875 4.703125 1.421875 4.484375 C 1.421875 4.429688 1.5 4.25 1.65625 3.9375 C 1.8125 3.625 1.941406 3.332031 2.046875 3.0625 C 2.066406 2.96875 2.15625 2.632812 2.3125 2.0625 C 2.46875 1.488281 2.726562 0.875 3.09375 0.21875 C 3.457031 -0.4375 3.945312 -0.945312 4.5625 -1.3125 C 4.875 -1.507812 5.101562 -1.757812 5.25 -2.0625 C 5.394531 -2.363281 5.675781 -2.5625 6.09375 -2.65625 C 6.457031 -2.757812 6.757812 -2.9375 7 -3.1875 C 7.238281 -3.445312 7.4375 -3.6875 7.59375 -3.90625 C 7.757812 -4.125 7.898438 -4.234375 8.015625 -4.234375 C 8.265625 -4.273438 8.453125 -4.363281 8.578125 -4.5 C 8.710938 -4.632812 8.84375 -4.769531 8.96875 -4.90625 C 9.09375 -5.039062 9.273438 -5.109375 9.515625 -5.109375 C 9.785156 -5.109375 10.003906 -5.21875 10.171875 -5.4375 C 10.335938 -5.65625 10.519531 -5.882812 10.71875 -6.125 C 10.914062 -6.363281 11.171875 -6.519531 11.484375 -6.59375 C 11.972656 -6.71875 12.304688 -6.957031 12.484375 -7.3125 C 12.671875 -7.664062 12.789062 -8.101562 12.84375 -8.625 C 12.90625 -9.144531 12.988281 -9.707031 13.09375 -10.3125 C 13.09375 -10.5625 13.007812 -10.796875 12.84375 -11.015625 C 12.6875 -11.234375 12.476562 -11.34375 12.21875 -11.34375 C 12.113281 -11.34375 12.019531 -11.328125 11.9375 -11.296875 C 11.851562 -11.273438 11.773438 -11.265625 11.703125 -11.265625 C 11.609375 -11.265625 11.5 -11.296875 11.375 -11.359375 C 11.25 -11.421875 11.128906 -11.453125 11.015625 -11.453125 C 10.765625 -11.453125 10.453125 -11.328125 10.078125 -11.078125 C 9.703125 -10.835938 9.234375 -10.632812 8.671875 -10.46875 C 8.285156 -10.34375 7.992188 -10.21875 7.796875 -10.09375 C 7.609375 -9.976562 7.316406 -9.785156 6.921875 -9.515625 C 6.804688 -9.566406 6.695312 -9.617188 6.59375 -9.671875 C 6.5 -9.734375 6.414062 -9.765625 6.34375 -9.765625 C 6.34375 -9.765625 6.226562 -9.679688 6 -9.515625 C 5.769531 -9.347656 5.453125 -9.175781 5.046875 -9 C 4.648438 -8.832031 4.195312 -8.75 3.6875 -8.75 C 3.582031 -8.75 3.5 -8.835938 3.4375 -9.015625 C 3.382812 -9.203125 3.296875 -9.332031 3.171875 -9.40625 C 2.585938 -9.625 2.097656 -9.894531 1.703125 -10.21875 C 1.316406 -10.550781 1.125 -10.984375 1.125 -11.515625 C 1.125 -11.566406 1.132812 -11.625 1.15625 -11.6875 C 1.1875 -11.75 1.203125 -11.800781 1.203125 -11.84375 C 1.203125 -11.96875 1.179688 -12.085938 1.140625 -12.203125 C 1.109375 -12.328125 1.09375 -12.453125 1.09375 -12.578125 C 1.09375 -12.773438 1.140625 -12.960938 1.234375 -13.140625 C 1.335938 -13.328125 1.390625 -13.515625 1.390625 -13.703125 C 1.410156 -14.117188 1.523438 -14.472656 1.734375 -14.765625 C 1.941406 -15.054688 2.164062 -15.320312 2.40625 -15.5625 C 2.53125 -15.6875 2.71875 -15.878906 2.96875 -16.140625 C 3.226562 -16.410156 3.457031 -16.660156 3.65625 -16.890625 C 3.863281 -17.128906 3.96875 -17.25 3.96875 -17.25 C 4.070312 -17.582031 4.238281 -17.796875 4.46875 -17.890625 C 4.695312 -17.992188 4.929688 -18.097656 5.171875 -18.203125 C 5.421875 -18.316406 5.59375 -18.53125 5.6875 -18.84375 C 5.757812 -19.0625 5.988281 -19.257812 6.375 -19.4375 C 6.769531 -19.625 7.0625 -19.875 7.25 -20.1875 C 7.519531 -20.625 7.8125 -20.960938 8.125 -21.203125 C 8.445312 -21.453125 8.765625 -21.734375 9.078125 -22.046875 C 9.347656 -22.003906 9.710938 -21.953125 10.171875 -21.890625 C 10.628906 -21.828125 11.050781 -21.703125 11.4375 -21.515625 C 11.832031 -21.335938 12.054688 -21.03125 12.109375 -20.59375 C 12.109375 -20.5 12.082031 -20.398438 12.03125 -20.296875 C 11.976562 -20.203125 11.914062 -20.144531 11.84375 -20.125 C 11.332031 -20.050781 10.863281 -19.820312 10.4375 -19.4375 C 10.019531 -19.0625 9.675781 -18.679688 9.40625 -18.296875 C 9.1875 -18.054688 8.914062 -17.84375 8.59375 -17.65625 C 8.28125 -17.476562 7.976562 -17.242188 7.6875 -16.953125 C 7.394531 -16.660156 7.164062 -16.222656 7 -15.640625 C 6.925781 -15.367188 6.707031 -15.125 6.34375 -14.90625 C 5.976562 -14.6875 5.734375 -14.359375 5.609375 -13.921875 C 5.535156 -13.753906 5.40625 -13.546875 5.21875 -13.296875 C 5.039062 -13.054688 4.953125 -12.863281 4.953125 -12.71875 C 4.953125 -12.550781 5.0625 -12.46875 5.28125 -12.46875 C 5.382812 -12.46875 5.457031 -12.476562 5.5 -12.5 C 6.40625 -12.75 7.460938 -13.035156 8.671875 -13.359375 C 9.890625 -13.691406 11.203125 -13.859375 12.609375 -13.859375 C 13.316406 -13.859375 13.851562 -13.765625 14.21875 -13.578125 C 14.582031 -13.398438 14.957031 -13.113281 15.34375 -12.71875 C 15.445312 -12.476562 15.484375 -12.226562 15.453125 -11.96875 C 15.429688 -11.71875 15.519531 -11.492188 15.71875 -11.296875 C 15.789062 -11.347656 15.875 -11.410156 15.96875 -11.484375 C 16.0625 -11.554688 16.132812 -11.59375 16.1875 -11.59375 C 16.332031 -11.59375 16.421875 -11.425781 16.453125 -11.09375 C 16.492188 -10.769531 16.523438 -10.507812 16.546875 -10.3125 C 16.765625 -10.289062 16.882812 -10.207031 16.90625 -10.0625 C 16.9375 -9.914062 16.992188 -9.78125 17.078125 -9.65625 C 17.160156 -9.539062 17.375 -9.484375 17.71875 -9.484375 C 17.976562 -9.484375 18.207031 -9.53125 18.40625 -9.625 C 18.75 -9.789062 19.085938 -9.863281 19.421875 -9.84375 C 19.765625 -9.820312 20.09375 -9.867188 20.40625 -9.984375 C 20.582031 -9.941406 20.804688 -9.898438 21.078125 -9.859375 C 21.359375 -9.828125 21.609375 -9.757812 21.828125 -9.65625 C 22.046875 -9.5625 22.15625 -9.40625 22.15625 -9.1875 C 22.15625 -8.945312 22.015625 -8.71875 21.734375 -8.5 C 21.460938 -8.28125 21.21875 -8.171875 21 -8.171875 C 20.894531 -8.171875 20.796875 -8.179688 20.703125 -8.203125 C 20.609375 -8.222656 20.507812 -8.234375 20.40625 -8.234375 C 20.164062 -8.234375 19.773438 -8.175781 19.234375 -8.0625 C 18.703125 -7.957031 18.191406 -7.789062 17.703125 -7.5625 C 17.222656 -7.332031 16.910156 -7.035156 16.765625 -6.671875 C 16.691406 -6.523438 16.5625 -6.453125 16.375 -6.453125 C 16.320312 -6.453125 16.257812 -6.457031 16.1875 -6.46875 C 16.113281 -6.476562 16.050781 -6.484375 16 -6.484375 C 15.882812 -6.484375 15.707031 -6.40625 15.46875 -6.25 C 15.238281 -6.09375 15.03125 -5.898438 14.84375 -5.671875 C 14.664062 -5.441406 14.578125 -5.21875 14.578125 -5 C 14.578125 -4.945312 14.582031 -4.890625 14.59375 -4.828125 C 14.613281 -4.765625 14.625 -4.710938 14.625 -4.671875 C 14.625 -4.546875 14.550781 -4.484375 14.40625 -4.484375 C 14.332031 -4.484375 14.257812 -4.488281 14.1875 -4.5 C 14.113281 -4.507812 14.050781 -4.515625 14 -4.515625 C 13.613281 -4.515625 13.421875 -4.285156 13.421875 -3.828125 C 13.421875 -3.515625 13.476562 -3.25 13.59375 -3.03125 C 13.519531 -3.050781 13.453125 -3.078125 13.390625 -3.109375 C 13.335938 -3.148438 13.285156 -3.171875 13.234375 -3.171875 C 13.140625 -3.171875 13.082031 -3.144531 13.0625 -3.09375 C 13.050781 -3.050781 13.023438 -2.992188 12.984375 -2.921875 C 13.316406 -2.921875 13.507812 -3 13.5625 -3.15625 C 13.613281 -3.3125 13.648438 -3.546875 13.671875 -3.859375 C 13.671875 -3.960938 13.664062 -4.050781 13.65625 -4.125 C 13.644531 -4.195312 13.640625 -4.28125 13.640625 -4.375 Z M 13.640625 -4.375 "/></g></g></g><g fill="#ffbd59" fill-opacity="1"><g transform="translate(94.455811, 39.123247)"><g><path d="M 13.640625 -4.375 C 13.859375 -4.207031 13.96875 -3.976562 13.96875 -3.6875 C 13.96875 -3.21875 13.828125 -2.84375 13.546875 -2.5625 C 13.265625 -2.289062 12.867188 -2.15625 12.359375 -2.15625 C 12.117188 -2.15625 11.941406 -2.34375 11.828125 -2.71875 C 11.722656 -3.09375 11.65625 -3.414062 11.625 -3.6875 C 11.164062 -3.6875 10.800781 -3.5625 10.53125 -3.3125 C 10.269531 -3.070312 10.015625 -2.800781 9.765625 -2.5 C 9.523438 -2.195312 9.195312 -1.945312 8.78125 -1.75 C 8.226562 -1.507812 7.757812 -1.171875 7.375 -0.734375 C 7 -0.296875 6.617188 0.03125 6.234375 0.25 C 5.816406 0.394531 5.453125 0.765625 5.140625 1.359375 C 4.828125 1.960938 4.523438 2.492188 4.234375 2.953125 C 4.085938 3.191406 4.015625 3.445312 4.015625 3.71875 C 4.015625 3.988281 3.988281 4.253906 3.9375 4.515625 C 3.9375 4.691406 4.03125 4.816406 4.21875 4.890625 C 4.414062 4.960938 4.578125 5 4.703125 5 C 4.847656 5 4.992188 4.976562 5.140625 4.9375 C 5.285156 4.90625 5.421875 4.890625 5.546875 4.890625 C 5.617188 4.890625 5.679688 4.894531 5.734375 4.90625 C 5.796875 4.914062 5.863281 4.921875 5.9375 4.921875 C 6.207031 4.921875 6.382812 4.820312 6.46875 4.625 C 6.550781 4.4375 6.65625 4.222656 6.78125 3.984375 C 6.90625 3.753906 7.113281 3.601562 7.40625 3.53125 C 7.914062 3.414062 8.265625 3.117188 8.453125 2.640625 C 8.648438 2.171875 8.847656 1.664062 9.046875 1.125 C 9.234375 0.832031 9.503906 0.429688 9.859375 -0.078125 C 10.210938 -0.585938 10.390625 -1.007812 10.390625 -1.34375 C 10.390625 -1.320312 10.390625 -1.3125 10.390625 -1.3125 C 10.441406 -1.3125 10.523438 -1.40625 10.640625 -1.59375 C 10.765625 -1.789062 10.894531 -1.988281 11.03125 -2.1875 C 11.164062 -2.382812 11.242188 -2.484375 11.265625 -2.484375 C 11.460938 -2.484375 11.578125 -2.410156 11.609375 -2.265625 C 11.648438 -2.117188 11.679688 -1.960938 11.703125 -1.796875 C 11.722656 -1.640625 11.769531 -1.5625 11.84375 -1.5625 C 11.894531 -1.5625 11.957031 -1.566406 12.03125 -1.578125 C 12.101562 -1.597656 12.1875 -1.609375 12.28125 -1.609375 C 12.457031 -1.609375 12.546875 -1.535156 12.546875 -1.390625 C 12.546875 -1.097656 12.398438 -0.8125 12.109375 -0.53125 C 11.816406 -0.25 11.4375 0.0234375 10.96875 0.296875 C 10.894531 0.296875 10.828125 0.285156 10.765625 0.265625 C 10.710938 0.253906 10.648438 0.238281 10.578125 0.21875 C 10.578125 0.21875 10.585938 0.226562 10.609375 0.25 C 10.628906 0.28125 10.640625 0.296875 10.640625 0.296875 L 10.609375 0.1875 C 10.679688 0.207031 10.816406 0.242188 11.015625 0.296875 C 11.015625 0.679688 10.992188 1.035156 10.953125 1.359375 C 10.921875 1.691406 10.734375 1.921875 10.390625 2.046875 C 10.171875 2.066406 10.054688 2.222656 10.046875 2.515625 C 10.035156 2.804688 9.90625 3 9.65625 3.09375 C 9.4375 3.195312 9.304688 3.359375 9.265625 3.578125 C 9.234375 3.796875 9.1875 3.992188 9.125 4.171875 C 9.070312 4.359375 8.882812 4.453125 8.5625 4.453125 C 8.320312 4.453125 8.160156 4.570312 8.078125 4.8125 C 7.992188 5.050781 7.851562 5.195312 7.65625 5.25 C 7.4375 5.320312 7.207031 5.457031 6.96875 5.65625 C 6.53125 5.988281 6.148438 6.191406 5.828125 6.265625 C 5.515625 6.335938 5.140625 6.375 4.703125 6.375 C 4.316406 6.375 4.0625 6.484375 3.9375 6.703125 C 3.8125 6.921875 3.640625 7.03125 3.421875 7.03125 C 3.128906 7.03125 2.828125 6.859375 2.515625 6.515625 C 2.203125 6.179688 1.941406 5.8125 1.734375 5.40625 C 1.523438 5.007812 1.421875 4.703125 1.421875 4.484375 C 1.421875 4.429688 1.5 4.25 1.65625 3.9375 C 1.8125 3.625 1.941406 3.332031 2.046875 3.0625 C 2.066406 2.96875 2.15625 2.632812 2.3125 2.0625 C 2.46875 1.488281 2.726562 0.875 3.09375 0.21875 C 3.457031 -0.4375 3.945312 -0.945312 4.5625 -1.3125 C 4.875 -1.507812 5.101562 -1.757812 5.25 -2.0625 C 5.394531 -2.363281 5.675781 -2.5625 6.09375 -2.65625 C 6.457031 -2.757812 6.757812 -2.9375 7 -3.1875 C 7.238281 -3.445312 7.4375 -3.6875 7.59375 -3.90625 C 7.757812 -4.125 7.898438 -4.234375 8.015625 -4.234375 C 8.265625 -4.273438 8.453125 -4.363281 8.578125 -4.5 C 8.710938 -4.632812 8.84375 -4.769531 8.96875 -4.90625 C 9.09375 -5.039062 9.273438 -5.109375 9.515625 -5.109375 C 9.785156 -5.109375 10.003906 -5.21875 10.171875 -5.4375 C 10.335938 -5.65625 10.519531 -5.882812 10.71875 -6.125 C 10.914062 -6.363281 11.171875 -6.519531 11.484375 -6.59375 C 11.972656 -6.71875 12.304688 -6.957031 12.484375 -7.3125 C 12.671875 -7.664062 12.789062 -8.101562 12.84375 -8.625 C 12.90625 -9.144531 12.988281 -9.707031 13.09375 -10.3125 C 13.09375 -10.5625 13.007812 -10.796875 12.84375 -11.015625 C 12.6875 -11.234375 12.476562 -11.34375 12.21875 -11.34375 C 12.113281 -11.34375 12.019531 -11.328125 11.9375 -11.296875 C 11.851562 -11.273438 11.773438 -11.265625 11.703125 -11.265625 C 11.609375 -11.265625 11.5 -11.296875 11.375 -11.359375 C 11.25 -11.421875 11.128906 -11.453125 11.015625 -11.453125 C 10.765625 -11.453125 10.453125 -11.328125 10.078125 -11.078125 C 9.703125 -10.835938 9.234375 -10.632812 8.671875 -10.46875 C 8.285156 -10.34375 7.992188 -10.21875 7.796875 -10.09375 C 7.609375 -9.976562 7.316406 -9.785156 6.921875 -9.515625 C 6.804688 -9.566406 6.695312 -9.617188 6.59375 -9.671875 C 6.5 -9.734375 6.414062 -9.765625 6.34375 -9.765625 C 6.34375 -9.765625 6.226562 -9.679688 6 -9.515625 C 5.769531 -9.347656 5.453125 -9.175781 5.046875 -9 C 4.648438 -8.832031 4.195312 -8.75 3.6875 -8.75 C 3.582031 -8.75 3.5 -8.835938 3.4375 -9.015625 C 3.382812 -9.203125 3.296875 -9.332031 3.171875 -9.40625 C 2.585938 -9.625 2.097656 -9.894531 1.703125 -10.21875 C 1.316406 -10.550781 1.125 -10.984375 1.125 -11.515625 C 1.125 -11.566406 1.132812 -11.625 1.15625 -11.6875 C 1.1875 -11.75 1.203125 -11.800781 1.203125 -11.84375 C 1.203125 -11.96875 1.179688 -12.085938 1.140625 -12.203125 C 1.109375 -12.328125 1.09375 -12.453125 1.09375 -12.578125 C 1.09375 -12.773438 1.140625 -12.960938 1.234375 -13.140625 C 1.335938 -13.328125 1.390625 -13.515625 1.390625 -13.703125 C 1.410156 -14.117188 1.523438 -14.472656 1.734375 -14.765625 C 1.941406 -15.054688 2.164062 -15.320312 2.40625 -15.5625 C 2.53125 -15.6875 2.71875 -15.878906 2.96875 -16.140625 C 3.226562 -16.410156 3.457031 -16.660156 3.65625 -16.890625 C 3.863281 -17.128906 3.96875 -17.25 3.96875 -17.25 C 4.070312 -17.582031 4.238281 -17.796875 4.46875 -17.890625 C 4.695312 -17.992188 4.929688 -18.097656 5.171875 -18.203125 C 5.421875 -18.316406 5.59375 -18.53125 5.6875 -18.84375 C 5.757812 -19.0625 5.988281 -19.257812 6.375 -19.4375 C 6.769531 -19.625 7.0625 -19.875 7.25 -20.1875 C 7.519531 -20.625 7.8125 -20.960938 8.125 -21.203125 C 8.445312 -21.453125 8.765625 -21.734375 9.078125 -22.046875 C 9.347656 -22.003906 9.710938 -21.953125 10.171875 -21.890625 C 10.628906 -21.828125 11.050781 -21.703125 11.4375 -21.515625 C 11.832031 -21.335938 12.054688 -21.03125 12.109375 -20.59375 C 12.109375 -20.5 12.082031 -20.398438 12.03125 -20.296875 C 11.976562 -20.203125 11.914062 -20.144531 11.84375 -20.125 C 11.332031 -20.050781 10.863281 -19.820312 10.4375 -19.4375 C 10.019531 -19.0625 9.675781 -18.679688 9.40625 -18.296875 C 9.1875 -18.054688 8.914062 -17.84375 8.59375 -17.65625 C 8.28125 -17.476562 7.976562 -17.242188 7.6875 -16.953125 C 7.394531 -16.660156 7.164062 -16.222656 7 -15.640625 C 6.925781 -15.367188 6.707031 -15.125 6.34375 -14.90625 C 5.976562 -14.6875 5.734375 -14.359375 5.609375 -13.921875 C 5.535156 -13.753906 5.40625 -13.546875 5.21875 -13.296875 C 5.039062 -13.054688 4.953125 -12.863281 4.953125 -12.71875 C 4.953125 -12.550781 5.0625 -12.46875 5.28125 -12.46875 C 5.382812 -12.46875 5.457031 -12.476562 5.5 -12.5 C 6.40625 -12.75 7.460938 -13.035156 8.671875 -13.359375 C 9.890625 -13.691406 11.203125 -13.859375 12.609375 -13.859375 C 13.316406 -13.859375 13.851562 -13.765625 14.21875 -13.578125 C 14.582031 -13.398438 14.957031 -13.113281 15.34375 -12.71875 C 15.445312 -12.476562 15.484375 -12.226562 15.453125 -11.96875 C 15.429688 -11.71875 15.519531 -11.492188 15.71875 -11.296875 C 15.789062 -11.347656 15.875 -11.410156 15.96875 -11.484375 C 16.0625 -11.554688 16.132812 -11.59375 16.1875 -11.59375 C 16.332031 -11.59375 16.421875 -11.425781 16.453125 -11.09375 C 16.492188 -10.769531 16.523438 -10.507812 16.546875 -10.3125 C 16.765625 -10.289062 16.882812 -10.207031 16.90625 -10.0625 C 16.9375 -9.914062 16.992188 -9.78125 17.078125 -9.65625 C 17.160156 -9.539062 17.375 -9.484375 17.71875 -9.484375 C 17.976562 -9.484375 18.207031 -9.53125 18.40625 -9.625 C 18.75 -9.789062 19.085938 -9.863281 19.421875 -9.84375 C 19.765625 -9.820312 20.09375 -9.867188 20.40625 -9.984375 C 20.582031 -9.941406 20.804688 -9.898438 21.078125 -9.859375 C 21.359375 -9.828125 21.609375 -9.757812 21.828125 -9.65625 C 22.046875 -9.5625 22.15625 -9.40625 22.15625 -9.1875 C 22.15625 -8.945312 22.015625 -8.71875 21.734375 -8.5 C 21.460938 -8.28125 21.21875 -8.171875 21 -8.171875 C 20.894531 -8.171875 20.796875 -8.179688 20.703125 -8.203125 C 20.609375 -8.222656 20.507812 -8.234375 20.40625 -8.234375 C 20.164062 -8.234375 19.773438 -8.175781 19.234375 -8.0625 C 18.703125 -7.957031 18.191406 -7.789062 17.703125 -7.5625 C 17.222656 -7.332031 16.910156 -7.035156 16.765625 -6.671875 C 16.691406 -6.523438 16.5625 -6.453125 16.375 -6.453125 C 16.320312 -6.453125 16.257812 -6.457031 16.1875 -6.46875 C 16.113281 -6.476562 16.050781 -6.484375 16 -6.484375 C 15.882812 -6.484375 15.707031 -6.40625 15.46875 -6.25 C 15.238281 -6.09375 15.03125 -5.898438 14.84375 -5.671875 C 14.664062 -5.441406 14.578125 -5.21875 14.578125 -5 C 14.578125 -4.945312 14.582031 -4.890625 14.59375 -4.828125 C 14.613281 -4.765625 14.625 -4.710938 14.625 -4.671875 C 14.625 -4.546875 14.550781 -4.484375 14.40625 -4.484375 C 14.332031 -4.484375 14.257812 -4.488281 14.1875 -4.5 C 14.113281 -4.507812 14.050781 -4.515625 14 -4.515625 C 13.613281 -4.515625 13.421875 -4.285156 13.421875 -3.828125 C 13.421875 -3.515625 13.476562 -3.25 13.59375 -3.03125 C 13.519531 -3.050781 13.453125 -3.078125 13.390625 -3.109375 C 13.335938 -3.148438 13.285156 -3.171875 13.234375 -3.171875 C 13.140625 -3.171875 13.082031 -3.144531 13.0625 -3.09375 C 13.050781 -3.050781 13.023438 -2.992188 12.984375 -2.921875 C 13.316406 -2.921875 13.507812 -3 13.5625 -3.15625 C 13.613281 -3.3125 13.648438 -3.546875 13.671875 -3.859375 C 13.671875 -3.960938 13.664062 -4.050781 13.65625 -4.125 C 13.644531 -4.195312 13.640625 -4.28125 13.640625 -4.375 Z M 13.640625 -4.375 "/></g></g></g></g></g><g transform="matrix(1, 0, 0, 1, 14, 91)"><g clip-path="url(#07e2b916ea)"><g fill="#14cec7" fill-opacity="1"><g transform="translate(0.400001, 30.597949)"><g><path d="M 14.1875 -10.3125 L 14.1875 -6.640625 C 14.1875 -4.398438 13.640625 -2.679688 12.546875 -1.484375 C 11.453125 -0.285156 9.835938 0.3125 7.703125 0.3125 C 5.566406 0.3125 3.953125 -0.285156 2.859375 -1.484375 C 1.765625 -2.679688 1.21875 -4.398438 1.21875 -6.640625 L 1.21875 -21.015625 C 1.21875 -23.253906 1.765625 -24.972656 2.859375 -26.171875 C 3.953125 -27.367188 5.566406 -27.96875 7.703125 -27.96875 C 9.835938 -27.96875 11.453125 -27.367188 12.546875 -26.171875 C 13.640625 -24.972656 14.1875 -23.253906 14.1875 -21.015625 L 14.1875 -18.328125 L 10.078125 -18.328125 L 10.078125 -21.296875 C 10.078125 -22.296875 9.867188 -23 9.453125 -23.40625 C 9.046875 -23.8125 8.503906 -24.015625 7.828125 -24.015625 C 7.140625 -24.015625 6.585938 -23.8125 6.171875 -23.40625 C 5.765625 -23 5.5625 -22.296875 5.5625 -21.296875 L 5.5625 -6.359375 C 5.5625 -5.359375 5.765625 -4.660156 6.171875 -4.265625 C 6.585938 -3.867188 7.140625 -3.671875 7.828125 -3.671875 C 8.503906 -3.671875 9.046875 -3.867188 9.453125 -4.265625 C 9.867188 -4.660156 10.078125 -5.359375 10.078125 -6.359375 L 10.078125 -10.3125 Z M 14.1875 -10.3125 "/></g></g></g><g fill="#14cec7" fill-opacity="1"><g transform="translate(15.646084, 30.597949)"><g><path d="M 5.5625 -6.359375 C 5.5625 -5.359375 5.765625 -4.65625 6.171875 -4.25 C 6.585938 -3.84375 7.140625 -3.640625 7.828125 -3.640625 C 8.503906 -3.640625 9.046875 -3.84375 9.453125 -4.25 C 9.867188 -4.65625 10.078125 -5.359375 10.078125 -6.359375 L 10.078125 -21.296875 C 10.078125 -22.296875 9.867188 -23 9.453125 -23.40625 C 9.046875 -23.8125 8.503906 -24.015625 7.828125 -24.015625 C 7.140625 -24.015625 6.585938 -23.8125 6.171875 -23.40625 C 5.765625 -23 5.5625 -22.296875 5.5625 -21.296875 Z M 1.21875 -21.015625 C 1.21875 -23.253906 1.785156 -24.972656 2.921875 -26.171875 C 4.054688 -27.367188 5.691406 -27.96875 7.828125 -27.96875 C 9.953125 -27.96875 11.582031 -27.367188 12.71875 -26.171875 C 13.851562 -24.972656 14.421875 -23.253906 14.421875 -21.015625 L 14.421875 -6.640625 C 14.421875 -4.398438 13.851562 -2.679688 12.71875 -1.484375 C 11.582031 -0.285156 9.953125 0.3125 7.828125 0.3125 C 5.691406 0.3125 4.054688 -0.285156 2.921875 -1.484375 C 1.785156 -2.679688 1.21875 -4.398438 1.21875 -6.640625 Z M 1.21875 -21.015625 "/></g></g></g><g fill="#14cec7" fill-opacity="1"><g transform="translate(31.28714, 30.597949)"><g><path d="M 15.640625 0 L 11.25 0 L 10.5 -5.015625 L 5.171875 -5.015625 L 4.421875 0 L 0.4375 0 L 4.859375 -27.65625 L 11.21875 -27.65625 Z M 5.734375 -8.765625 L 9.921875 -8.765625 L 7.828125 -22.75 Z M 5.734375 -8.765625 "/></g></g></g><g fill="#14cec7" fill-opacity="1"><g transform="translate(47.362675, 30.597949)"><g><path d="M 14.1875 -10.3125 L 14.1875 -6.640625 C 14.1875 -4.398438 13.640625 -2.679688 12.546875 -1.484375 C 11.453125 -0.285156 9.835938 0.3125 7.703125 0.3125 C 5.566406 0.3125 3.953125 -0.285156 2.859375 -1.484375 C 1.765625 -2.679688 1.21875 -4.398438 1.21875 -6.640625 L 1.21875 -21.015625 C 1.21875 -23.253906 1.765625 -24.972656 2.859375 -26.171875 C 3.953125 -27.367188 5.566406 -27.96875 7.703125 -27.96875 C 9.835938 -27.96875 11.453125 -27.367188 12.546875 -26.171875 C 13.640625 -24.972656 14.1875 -23.253906 14.1875 -21.015625 L 14.1875 -18.328125 L 10.078125 -18.328125 L 10.078125 -21.296875 C 10.078125 -22.296875 9.867188 -23 9.453125 -23.40625 C 9.046875 -23.8125 8.503906 -24.015625 7.828125 -24.015625 C 7.140625 -24.015625 6.585938 -23.8125 6.171875 -23.40625 C 5.765625 -23 5.5625 -22.296875 5.5625 -21.296875 L 5.5625 -6.359375 C 5.5625 -5.359375 5.765625 -4.660156 6.171875 -4.265625 C 6.585938 -3.867188 7.140625 -3.671875 7.828125 -3.671875 C 8.503906 -3.671875 9.046875 -3.867188 9.453125 -4.265625 C 9.867188 -4.660156 10.078125 -5.359375 10.078125 -6.359375 L 10.078125 -10.3125 Z M 14.1875 -10.3125 "/></g></g></g><g fill="#14cec7" fill-opacity="1"><g transform="translate(62.608757, 30.597949)"><g><path d="M 5.921875 0 L 1.578125 0 L 1.578125 -27.65625 L 5.921875 -27.65625 L 5.921875 -15.796875 L 10.859375 -15.796875 L 10.859375 -27.65625 L 15.28125 -27.65625 L 15.28125 0 L 10.859375 0 L 10.859375 -11.84375 L 5.921875 -11.84375 Z M 5.921875 0 "/></g></g></g><g fill="#14cec7" fill-opacity="1"><g transform="translate(79.47424, 30.597949)"><g><path d="M 1.578125 -27.65625 L 5.921875 -27.65625 L 5.921875 0 L 1.578125 0 Z M 1.578125 -27.65625 "/></g></g></g><g fill="#14cec7" fill-opacity="1"><g transform="translate(86.978789, 30.597949)"><g><path d="M 5.453125 -20.03125 L 5.453125 0 L 1.546875 0 L 1.546875 -27.65625 L 6.984375 -27.65625 L 11.453125 -11.09375 L 11.453125 -27.65625 L 15.328125 -27.65625 L 15.328125 0 L 10.859375 0 Z M 5.453125 -20.03125 "/></g></g></g><g fill="#14cec7" fill-opacity="1"><g transform="translate(103.844272, 30.597949)"><g><path d="M 8.09375 -15.40625 L 14.1875 -15.40625 L 14.1875 -6.640625 C 14.1875 -4.398438 13.640625 -2.679688 12.546875 -1.484375 C 11.453125 -0.285156 9.835938 0.3125 7.703125 0.3125 C 5.566406 0.3125 3.953125 -0.285156 2.859375 -1.484375 C 1.765625 -2.679688 1.21875 -4.398438 1.21875 -6.640625 L 1.21875 -21.015625 C 1.21875 -23.253906 1.765625 -24.972656 2.859375 -26.171875 C 3.953125 -27.367188 5.566406 -27.96875 7.703125 -27.96875 C 9.835938 -27.96875 11.453125 -27.367188 12.546875 -26.171875 C 13.640625 -24.972656 14.1875 -23.253906 14.1875 -21.015625 L 14.1875 -18.328125 L 10.078125 -18.328125 L 10.078125 -21.296875 C 10.078125 -22.296875 9.867188 -23 9.453125 -23.40625 C 9.046875 -23.8125 8.503906 -24.015625 7.828125 -24.015625 C 7.140625 -24.015625 6.585938 -23.8125 6.171875 -23.40625 C 5.765625 -23 5.5625 -22.296875 5.5625 -21.296875 L 5.5625 -6.359375 C 5.5625 -5.359375 5.765625 -4.660156 6.171875 -4.265625 C 6.585938 -3.867188 7.140625 -3.671875 7.828125 -3.671875 C 8.503906 -3.671875 9.046875 -3.867188 9.453125 -4.265625 C 9.867188 -4.660156 10.078125 -5.359375 10.078125 -6.359375 L 10.078125 -11.453125 L 8.09375 -11.453125 Z M 8.09375 -15.40625 "/></g></g></g></g></g></svg>